<?xml version="1.0" standalone="no"?>
<!DOCTYPE svg PUBLIC "-//W3C//DTD SVG 1.1//EN" "http://www.w3.org/Graphics/SVG/1.1/DTD/svg11.dtd" >
<svg>
<metadata>
Created by FontForge 20090914 at Tue May 17 09:25:36 2016
 By www-data
Cirilicna slova dodao Nikola Kovanovic.
</metadata>
<defs>
<font id="ATLANTIDA" horiz-adv-x="980" >
  <font-face 
    font-family="ATLANTIDA"
    font-weight="400"
    font-stretch="normal"
    units-per-em="1000"
    panose-1="2 0 5 7 5 0 0 2 0 4"
    ascent="800"
    descent="-200"
    x-height="576"
    cap-height="724"
    bbox="-57.4209 -179.856 1421 1016"
    underline-thickness="20"
    underline-position="-123"
    unicode-range="U+0020-U+F002"
  />
<missing-glyph horiz-adv-x="500" 
d="M63 0v800h375v-800h-375zM125 63h250v675h-250v-675z" />
    <glyph glyph-name=".notdef" horiz-adv-x="500" 
d="M63 0v800h375v-800h-375zM125 63h250v675h-250v-675z" />
    <glyph glyph-name="uni0020" unicode=" " horiz-adv-x="400" 
 />
    <glyph glyph-name="exclam" unicode="!" horiz-adv-x="280" 
d="M258 722c-30.667 -9.33301 -50.332 -27.333 -58.999 -54c-6 -18.667 -9 -39.334 -9 -62.001v-439h-93v439c0 20.667 -3.33301 41.334 -10 62.001c-8.66699 26.667 -28.334 44.667 -59.001 54h230zM209.002 65c0 -19.333 -7 -35.833 -21 -49.5s-30.667 -20.5 -50 -20.5
s-36 6.83301 -50 20.5s-21 30.167 -21 49.5s7 36 21 50s30.667 21 50 21s36 -7 50 -21s21 -30.667 21 -50z" />
    <glyph glyph-name="quotedbl" unicode="&#x22;" horiz-adv-x="300" 
d="M274 721c0 -15.333 -4.83301 -44.833 -14.5 -88.5s-14.5 -77.834 -14.5 -102.501c-5.33301 -7.33301 -13 -11 -23 -11c-10.667 0 -18.667 3.66699 -24 11c0 24.667 -4.83301 58.834 -14.5 102.501s-14.5 73.167 -14.5 88.5h105zM129 721
c0 -15.333 -4.83301 -44.833 -14.5 -88.5s-14.5 -77.834 -14.5 -102.501c-5.33301 -7.33301 -13 -11 -23 -11c-10.667 0 -18.667 3.66699 -24 11c0 24.667 -4.83301 58.834 -14.5 102.501s-14.5 73.167 -14.5 88.5h105z" />
    <glyph glyph-name="numbersign" unicode="#" horiz-adv-x="500" 
d="M487 527l-14 -61h-96l-29 -137h99l-14 -60h-98l-41 -197h-66l42 197h-93l-42 -195h-66l42 195h-101l14 60h100l28 137h-93l15 61h91l41 188l64 -3l-39 -185h92l39 189l66 -5l-39 -184h98zM311 466h-93l-29 -137h94z" />
    <glyph glyph-name="dollar" unicode="$" horiz-adv-x="770" 
d="M653 203c6 25.333 1.66992 44.332 -12.9971 56.999c-22.667 22 -55.334 38.667 -98.001 50c-18 3.33301 -36 7 -54 11s-36.333 7.66699 -55 11c-0.666992 -0.666992 -1.33398 -1.16699 -2.00098 -1.5s-1.66699 -1.16602 -3 -2.49902
c-0.666992 -21.333 -0.833984 -47.833 -0.500977 -79.5s1.16602 -69.5 2.49902 -113.5c-2 -14 4.66699 -21.667 20 -23c30 4 54.333 7.66699 73 11s32.334 6.33301 41.001 9c42 14 71.667 37.667 89 71zM361.003 417.999c0.666992 21.333 0.831055 48.667 0.498047 82
s-1.16602 72.333 -2.49902 117c-54 0.666992 -106.667 -12 -158 -38c-28 -14.667 -41 -39 -39 -73c2.66699 -14 15 -28.667 37 -44c18.667 -10.667 41.334 -19.5 68.001 -26.5s58 -12.833 94 -17.5zM731 256c0.666992 -4.66699 1.16113 -9.17188 1.49414 -13.5049
s0.5 -8.83301 0.5 -13.5c0 -41.333 -14 -73 -42 -95c-57.333 -45.333 -142.666 -74.333 -255.999 -87l-1 -45l-71 -2l-1 47c-3.33301 2 -7 3 -11 3c-125.333 8.66699 -230.666 52.667 -315.999 132c-1.33301 3.33301 -0.333008 8 3 14c13.333 9.33301 33 25 59 47
c6 0 10.667 -4 14 -12c4 -9.33301 8 -15.666 12 -18.999c58 -60 136 -93.333 234 -100c2 0.666992 5 3 9 7c-0.666992 9.33301 -1.16699 31.666 -1.5 66.999s-0.5 84 -0.5 146c-7.33301 1.33301 -16.333 3.33301 -27 6s-23.334 5.66699 -38.001 9
c-29.333 7.33301 -53.666 13.833 -72.999 19.5s-33.666 10.834 -42.999 15.501c-42 18.667 -72.333 45 -91 79c-6.66699 12.667 -10 27 -10 43c0 28 8 52 24 72c28.667 34.667 66.667 60.667 114 78c15.333 5.33301 34.333 10.333 57 15s49.334 9.33398 80.001 14.001l4 39
l62 -3c0.666992 -1.33301 1 -9.66602 1 -24.999c-1.33301 -10 2.33398 -16.667 11.001 -20c84 -7.33301 169.333 -41 256 -101c0 -4.66699 -0.333008 -7.33398 -1 -8.00098c-10 -9.33301 -19.333 -18.666 -28 -27.999s-16.667 -18.666 -24 -27.999
c-4.66699 0.666992 -8.66699 4 -12 10c-5.33301 8.66699 -8.33301 13.334 -9 14.001c-47.333 42.667 -110 70 -188 82c-6 0 -8.33301 -3 -7 -9c0.666992 -20.667 1.33398 -46.834 2.00098 -78.501s1.66699 -69.5 3 -113.5c12.667 -2.66699 28.167 -6.16699 46.5 -10.5
s39.833 -9.16602 64.5 -14.499c106.667 -28.667 171 -73 193 -133z" />
    <glyph glyph-name="percent" unicode="%" horiz-adv-x="800" 
d="M389 485c-2 -34 -16.332 -65.666 -42.999 -94.999c-24.667 -26.667 -51.667 -44 -81 -52c-24 -6 -45 -9 -63 -9c-28 0 -55.333 7.33301 -82 22c-62 34.667 -93 86.667 -93 156c0 11.333 1 22.666 3 33.999c5.33301 32.667 19.333 62 42 88s47.667 43 75 51
c21.333 6.66699 42.666 10 63.999 10c51.333 0 94 -17.667 128 -53c37.333 -38 54 -88.667 50 -152zM743.001 612.001c0 -2 -0.666992 -1.33203 -2 2.00098c-2 6 -3.66699 8.66699 -5 8c-6 1.33301 -12.833 -0.166992 -20.5 -4.5s-14.834 -8.83301 -21.501 -13.5l-536 -541
l-21 -28c-7.33301 -11.333 -12.666 -22 -15.999 -32c0 4 -1.66699 8.66699 -5 14c-12.667 14 -30 36.667 -52 68c2 6.66699 8.33301 6.66699 19 0l561 556c24.667 35.333 36.334 55.666 35.001 60.999c-2.66699 0.666992 -4.33398 0.666992 -5.00098 0
c16.667 -18 39.667 -48 69 -90zM768.001 149.002c-2 -34 -16.333 -65.667 -43 -95c-24.667 -26 -52 -43 -82 -51c-25.333 -6.66699 -47.333 -10 -66 -10c-27.333 0 -53.333 6.66699 -78 20c-62 34 -93 86.667 -93 158c0 11.333 1 23 3 35c5.33301 32.667 19.333 62 42 88
s47.667 43 75 51c20 6 40 9 60 9c52 0 96.333 -18 133 -54s53 -86.333 49 -151zM321.001 575.002c-16.667 31.333 -45.334 51.667 -86.001 61c-13.333 3.33301 -26 5 -38 5c-41.333 0 -73.666 -18.333 -96.999 -55c-12.667 -19.333 -19 -43.333 -19 -72
c0 -24 4.33301 -45.667 13 -65c12.667 -29.333 36.667 -50.333 72 -63c18 -6.66699 35 -10 51 -10c44 0 77 20.667 99 62c13.333 24.667 20 50 20 76c0 22 -5 42.333 -15 61zM700.001 239.003c-16 30.667 -44.668 50.665 -86.001 59.998c-13.333 3.33301 -26 5 -38 5
c-40.667 0 -73 -18 -97 -54c-13.333 -20 -20 -44.333 -20 -73c0 -23.333 4.33301 -44.666 13 -63.999c12.667 -29.333 37 -50.666 73 -63.999c16.667 -6.66699 33.334 -10 50.001 -10c44 0 77 21 99 63c13.333 25.333 20 51 20 77c0 22 -4.66699 42 -14 60z" />
    <glyph glyph-name="ampersand" unicode="&#x26;" horiz-adv-x="1055" 
d="M1024 12c0 -2 -9.66699 -3.66504 -29 -4.99805c-16 -2 -26 -3 -30 -3h-226c-0.666992 4 3.16602 13 11.499 27s12.833 25.667 13.5 35c2 13.333 -3 27 -15 41l-33 35c-7.33301 9.33301 -15.666 12.333 -24.999 9c-32.667 -35.333 -74.667 -68.666 -126 -99.999
c-73.333 -34.667 -150.333 -52 -231 -52c-60.667 0 -114.334 11 -161.001 33c-34.667 26 -54 40.667 -58 44c-22 19.333 -35.667 39 -41 59c-17.333 13.333 -26 37.666 -26 72.999c0 8 0.333008 18.333 1 31c1.33301 16.667 2 26.667 2 30c13.333 43.333 40.333 82 81 116
c38 32 80 53.667 126 65c18.667 6 45.667 16.333 81 31c-3.33301 8 -7.16602 16 -11.499 24s-10.833 12.667 -19.5 14c-43.333 37.333 -115 104.666 -215 201.999c322 -4.66699 552.667 -6 692 -4c13.333 3.33301 22.333 5 27 5c9.33301 0 13.666 -3.33301 12.999 -10
c-88.667 -102 -198.334 -188.667 -329.001 -260l197 -176c2.66699 -2 5.33398 -3 8.00098 -3c7.33301 0 13.333 5 18 15c58.667 73.333 96.334 145.333 113.001 216c1.33301 1.33301 2.66602 2 3.99902 2c2 0 4.66699 -2 8 -6s5.33301 -6.33301 6 -7
c9.33301 -17.333 24.333 -39.333 45 -66c24.667 -32.667 40.334 -54 47.001 -64l-42 2c-16.667 -0.666992 -28.667 -6.33398 -36 -17.001c-12.667 -12 -30 -32.333 -52 -61s-40 -49.667 -54 -63v-6c49.333 -46 123.333 -109.667 222 -191c10 0 24.333 -2.33301 43 -7
c0 -0.666992 0.333008 -2 1 -4v-4zM655 647.002c-23.333 2.66699 -48.667 4 -76 4c-25.333 0 -71.333 -2.33301 -138 -7c-58.667 -3.33301 -105.334 -4.33301 -140.001 -3c-2.66699 0 -4.66699 -1 -6 -3s-1.66602 -4.33301 -0.999023 -7l134 -123
c5.33301 -2.66699 10.333 -4 15 -4c6.66699 0 16.167 4.83301 28.5 14.5s22.5 14.167 30.5 13.5l82 49c32 20.667 55.667 42.667 71 66zM639.999 209.002l-110.003 108.001c-42.667 40.667 -82 74.667 -118 102c-3.33301 2.66699 -6.66602 4 -9.99902 4
s-8.66602 -2.16699 -15.999 -6.5s-12.666 -6.83301 -15.999 -7.5c-76 -18 -140.333 -48 -193 -90c-28.667 -18.667 -43 -49.334 -43 -92.001c0 -36 10.833 -67.5 32.5 -94.5s50.167 -44.833 85.5 -53.5c27.333 -6.66699 55.333 -10 84 -10c116.667 0 218 46.667 304 140z
" />
    <glyph glyph-name="quotesingle" unicode="'" horiz-adv-x="200" 
d="M151 721c0 -15.333 -4.83301 -44.833 -14.5 -88.5s-14.5 -77.834 -14.5 -102.501c-5.33301 -7.33301 -13 -11 -23 -11c-10.667 0 -18.667 3.66699 -24 11c0 24.667 -4.83301 58.834 -14.5 102.501s-14.5 73.167 -14.5 88.5h105z" />
    <glyph glyph-name="parenleft" unicode="(" horiz-adv-x="330" 
d="M303 -116c0 -4 -3.16797 -8.66699 -9.50098 -14s-12.5 -8 -18.5 -8c-8 0 -15.667 3.33301 -23 10c-65.333 60 -112.666 119.667 -141.999 179c-38 76.667 -57 167.667 -57 273c0 87.333 22 178.666 66 273.999c30.667 66.667 74.667 127.334 132 182.001
c9.33301 4.66699 17.333 7 24 7c6 0 12.167 -2.33301 18.5 -7s9.5 -9 9.5 -13c0 -8.66699 -4 -16 -12 -22c-104.667 -110.667 -157 -251 -157 -421c0 -169.333 52.667 -309 158 -419c7.33301 -6 11 -13 11 -21z" />
    <glyph glyph-name="parenright" unicode=")" horiz-adv-x="330" 
d="M274 324c0 -105.333 -19.001 -196.333 -57.001 -273c-29.333 -59.333 -76.666 -119 -141.999 -179c-7.33301 -6.66699 -15 -10 -23 -10c-6 0 -12.167 2.66699 -18.5 8s-9.5 10 -9.5 14c0 8 3.66699 15 11 21c105.333 110 158 249.667 158 419
c0 170 -52.333 310.333 -157 421c-8 6 -12 13.333 -12 22c0 4 3.16699 8.33301 9.5 13s12.5 7 18.5 7c6.66699 0 14.667 -2.33301 24 -7c57.333 -54.667 101.333 -115.334 132 -182.001c44 -95.333 66 -186.666 66 -273.999z" />
    <glyph glyph-name="asterisk" unicode="*" horiz-adv-x="370" 
d="M164 483l-70 -48.9971c-4 -2.66699 -7.66699 -9.66699 -11 -21c-14 19.333 -25 35.666 -33 48.999c9.33301 0 16.333 1.66699 21 5l79 55c-13.333 10 -39 28.333 -77 55c-8 3.33301 -16 4.33301 -24 3c8 10.667 19.333 26.667 34 48c2.66699 -8.66699 6.66699 -15 12 -19
l69 -48v84c0 6.66699 -2.66699 13.667 -8 21h60c-8 -8 -12 -14.667 -12 -20v-87l71 50c4.66699 3.33301 8.66699 9.66602 12 18.999l35 -49c-11.333 2 -19.333 1.33301 -24 -2l-79 -55l80 -55c4.66699 -3.33301 11.667 -5 21 -5l-34 -50
c-2 11.333 -5.33301 18.666 -10 21.999l-72 51v-88c0 -6.66699 3.66699 -13.667 11 -21h-59c5.33301 8 8 15 8 21v86z" />
    <glyph glyph-name="plus" unicode="+" horiz-adv-x="470" 
d="M432 326h-163v-172h-60v172h-165v56h165v172h60v-172h163v-56z" />
    <glyph glyph-name="comma" unicode="," horiz-adv-x="200" 
d="M156 65c0.666992 -28.667 -7.99902 -52.6689 -25.999 -72.002l-30 -28c-19.333 -15.333 -35 -22 -47 -20c-1.33301 0.666992 -2 1.33398 -2 2.00098c0 1.33301 4.66699 4.83301 14 10.5s15.333 9.5 18 11.5c0.666992 1.33301 3.66699 5.33301 9 12
c4.66699 4.66699 6.66699 9.66699 6 15c-14.667 0.666992 -27.334 8.33398 -38.001 23.001s-16 32 -16 52c0 20.667 5.5 38.334 16.5 53.001s24.167 22 39.5 22s28.5 -7.33301 39.5 -22s16.5 -32.334 16.5 -53.001v-6z" />
    <glyph glyph-name="hyphen" unicode="-" horiz-adv-x="400" 
d="M341 318h-298v56h298v-56z" />
    <glyph glyph-name="hyphen" unicode="&#x2010;" horiz-adv-x="400" 
d="M341 318h-298v56h298v-56z" />
    <glyph glyph-name="period" unicode="." horiz-adv-x="200" 
d="M156 71c0 -20.667 -5.5 -38.334 -16.5 -53.001s-24.167 -22 -39.5 -22s-28.5 7.33301 -39.5 22s-16.5 32.334 -16.5 53.001s5.5 38.334 16.5 53.001s24.167 22 39.5 22s28.5 -7.33301 39.5 -22s16.5 -32.334 16.5 -53.001z" />
    <glyph glyph-name="slash" unicode="/" horiz-adv-x="666" 
d="M636 725c0.666992 -3.33301 0.335938 -5.33301 -0.99707 -6s-4 -1 -8 -1c-3.33301 0.666992 -5.66602 0.666992 -6.99902 0c-6 0 -12 -3 -18 -9s-11.667 -12 -17 -18l-459 -623c-17.333 -34.667 -25 -58.334 -23 -71.001c-4.66699 -1.33301 -9 0.666992 -13 6
s-7.33301 8 -10 8l-43 25c-14.667 8.66699 -26.334 18 -35.001 28c-0.666992 7.33301 1.66602 12.833 6.99902 16.5s11 4.83398 17 3.50098l479 639c13.333 27.333 20 44.666 20 51.999c0 6.66699 -1.66699 12.667 -5 18
c3.33301 0.666992 8.66602 0.333984 15.999 -0.999023c23.333 -12.667 56.666 -35 99.999 -67z" />
    <glyph glyph-name="zero" unicode="0" horiz-adv-x="940" 
d="M902 364c0 -100 -42 -185.833 -126 -257.5s-185.333 -107.5 -304 -107.5s-219.667 35.833 -303 107.5s-125 157.5 -125 257.5s41.667 185.5 125 256.5s184.333 106.5 303 106.5s220 -35.5 304 -106.5s126 -156.5 126 -256.5zM826 364c0 80 -34.667 147.833 -104 203.5
s-152.666 83.5 -249.999 83.5s-180.333 -27.833 -249 -83.5s-103 -123.5 -103 -203.5s34.333 -148.167 103 -204.5s151.667 -84.5 249 -84.5s180.666 28.167 249.999 84.5s104 124.5 104 204.5z" />
    <glyph glyph-name="one" unicode="1" horiz-adv-x="290" 
d="M256 0l-232.003 -0.00195312c30.667 9.33301 50.334 27.333 59.001 54c6.66699 20.667 10 41.334 10 62.001c0 -8.66699 0.666992 19 2 83s2 123.333 2 178c0 76.667 -1 138.334 -3 185.001c-4.66699 21.333 -8.66699 35.666 -12 42.999c-6.66699 15.333 -17 25 -31 29
c-8 2 -18.667 2.66699 -32 2c0 1.33301 1.16699 3.33301 3.5 6s3.83301 4.66699 4.5 6c60.667 18.667 111.334 43.334 152.001 74.001h8c0.666992 -49.333 1 -251.333 1 -606c0 -22.667 3 -43.334 9 -62.001c4.66699 -13.333 12.834 -25.666 24.501 -36.999
s23.167 -17 34.5 -17z" />
    <glyph glyph-name="two" unicode="2" horiz-adv-x="910" 
d="M870 20c-2 -6.66699 -8 -13.333 -18 -20c-92 0 -228.333 -0.5 -409 -1.5s-315.334 -1.5 -404.001 -1.5c0.666992 15.333 7.66699 30.333 21 45l39 36c46.667 48 104 89.667 172 125c42.667 22 106.667 48.667 192 80c88 33.333 152 60 192 80
c23.333 14.667 42.333 33.834 57 57.501s20.334 47.834 17.001 72.501c-4.66699 36 -24 67.333 -58 94c-27.333 21.333 -61 37 -101 47c-32.667 8 -65.667 12 -99 12c-107.333 0 -198.333 -38 -273 -114c-8 -10.667 -17.667 -27.667 -29 -51
c-22.667 19.333 -46.667 45.333 -72 78c0 1.33301 2.66699 5 8 11c108 100.667 232 151 372 151c61.333 0 119.666 -11.333 174.999 -34c73.333 -30 125 -73 155 -129c14 -26.667 21 -56 21 -88c0 -24 -4.33301 -45.333 -13 -64
c-34.667 -72.667 -110.667 -127.834 -228 -165.501s-235.666 -88.167 -354.999 -151.5l485 2c17.333 0 34.166 5.33301 50.499 16s27.833 24.667 34.5 42c7.33301 -0.666992 10.833 -5.83398 10.5 -15.501s0.833984 -15.5 3.50098 -17.5c15.333 -42 33.333 -74 54 -96z" />
    <glyph glyph-name="three" unicode="3" horiz-adv-x="875" 
d="M833 721l-285.999 -281.002c17.333 -3.33301 43 -9 77 -17c99.333 -26.667 163 -74.334 191 -143.001c4 -16 6 -32 6 -48c0 -42 -12.333 -76.333 -37 -103c-57.333 -62 -145.666 -102.333 -264.999 -121c-38 -6 -75.667 -9 -113 -9c-138 0 -249.333 40 -334 120
c-1.33301 1.33301 -4 2.33301 -8 3c-4.66699 4.66699 -16.334 22.667 -35.001 54c19.333 12.667 32.666 21.667 39.999 27c15.333 12 28 24 38 36c6 -0.666992 9.66699 -5.66699 11 -15c2 -11.333 4.66699 -18.666 8 -21.999c61.333 -88 156.333 -132 285 -132
c28.667 0 57.667 2.66699 87 8c61.333 10.667 106.333 22.667 135 36c47.333 22 77.333 55 90 99c1.33301 6 2 12 2 18c0 24.667 -9 46.667 -27 66c-34.667 32 -81.334 54.667 -140.001 68l-157 23c-17.333 -3.33301 -29 -4.66602 -35 -3.99902l266 243c0 6 -6 9 -18 9
c-32 -0.666992 -171.667 -1 -419 -1c-11.333 -3.33301 -22.333 -6.33301 -33 -9c-12 -4.66699 -20.667 -12 -26 -22c-1.33301 -5.33301 -4.66602 -12.666 -9.99902 -21.999c-8 23.333 -31 69 -69 137z" />
    <glyph glyph-name="four" unicode="4" horiz-adv-x="970" 
d="M930 220l-210 -0.000976562v-104c0 -22.667 3 -43.334 9 -62.001c8.66699 -26.667 28.334 -44.667 59.001 -54h-230c30.667 9.33301 50.334 27.333 59.001 54c6.66699 20.667 10 41.334 10 62.001v104h-587c-1.33301 0 -2 0.333008 -2 1s1.5 2.33398 4.5 5.00098
s4.5 4.66699 4.5 6c134 135.333 233.333 255.333 298 360c12.667 28 19 49.667 19 65c0 8 -1 15.667 -3 23c-16 28 -30.667 42 -44 42h197c-50 -120.667 -147 -259 -291 -415h404v299c0 20.667 -3.33301 41.334 -10 62.001c-8.66699 26.667 -28.334 44.667 -59.001 54h230
c-30.667 -9.33301 -50.334 -27.333 -59.001 -54c-6 -18.667 -9 -39.334 -9 -62.001v-299h210c0.666992 -16.667 0.666992 -45.667 0 -87z" />
    <glyph glyph-name="five" unicode="5" horiz-adv-x="855" 
d="M809 206c-58.667 -145.333 -211.665 -213.999 -458.998 -205.999c-130 4.66699 -235.667 44.667 -317 120c-2.66699 6.66699 -4 12.667 -4 18c0 12 9 23.333 27 34c22 12.667 35.333 23 40 31c4.66699 -2 9 -7.83301 13 -17.5s7.66699 -16.167 11 -19.5
c61.333 -63.333 153.333 -95 276 -95c32 0 67.667 2 107 6c55.333 12 97 25.667 125 41c44 23.333 72.333 56 85 98c1.33301 8 2 16 2 24c0 47.333 -20 82.666 -60 105.999c-62 36.667 -139 55 -231 55c-51.333 0 -108 -5.66699 -170 -17c-80 -14 -152.667 -35.667 -218 -65
l170 399l551 -2c8 -2 19.333 0.666992 34 8c-14.667 -18.667 -35 -50.667 -61 -96l-479 -1c-22.667 -40.667 -51 -103.667 -85 -189c0 -0.666992 0.666992 -1 2 -1s2 -0.666992 2 -2c83.333 26.667 167.666 40 252.999 40c119.333 0 219.666 -26 300.999 -78
c60 -38 90 -88.667 90 -152c0 -13.333 -1.66699 -26.333 -5 -39z" />
    <glyph glyph-name="six" unicode="6" horiz-adv-x="855" 
d="M824 230c-4 -40 -29.001 -83.667 -75.001 -131c-6.66699 -0.666992 -14 -5.33398 -22 -14.001c-10 -11.333 -16.333 -17.666 -19 -18.999c-72.667 -44 -159.334 -66 -260.001 -66c-44.667 -0 -91.667 4.33301 -141 13c-6.66699 6 -17.5 11.5 -32.5 16.5
s-25.5 9.83301 -31.5 14.5c-59.333 27.333 -107.666 68.166 -144.999 122.499s-56.666 113.5 -57.999 177.5c-1.33301 66 14.334 127 47.001 183s78 100 136 132c76 41.333 162 62 258 62c114 0 212.667 -27.667 296 -83c-30.667 -28 -52.334 -53 -65.001 -75
c-5.33301 1.33301 -9.5 5 -12.5 11s-5.16699 9.66699 -6.5 11c-50 44 -129.667 67 -239 69c-66 1.33301 -127 -15 -183 -49c-58 -34 -100 -80.667 -126 -140c-15.333 -35.333 -23 -60.666 -23 -75.999c0 -5.33301 0.333008 -10.333 1 -15c4.66699 0 8 1 10 3
c89.333 74 198 111 326 111c84.667 0 163 -17.667 235 -53c94.667 -58 138 -126.333 130 -205zM730.999 281c-10 45.333 -41.332 79.333 -93.999 102c-56 24 -117.333 36 -184 36c-106.667 0 -198 -28.667 -274 -86c-9.33301 -6 -18.333 -12.333 -27 -19
c-10.667 -8 -16.667 -16.667 -18 -26c17.333 -72.667 55.166 -127.667 113.499 -165s127.833 -56 208.5 -56c79.333 0 147 18.667 203 56c50 34 75 76.667 75 128c0 10 -1 20 -3 30z" />
    <glyph glyph-name="seven" unicode="7" horiz-adv-x="930" 
d="M899 719c-198.667 -192 -339.67 -375.333 -423.003 -550c-14.667 -31.333 -22 -60 -22 -86c0 -23.333 6 -43.333 18 -60c0.666992 -2 -0.166016 -3.5 -2.49902 -4.5s-3.83301 -1.83301 -4.5 -2.5c-24 0 -52.333 -3 -85 -9c-27.333 -6 -54.666 -11.667 -81.999 -17
c1.33301 4 1.33301 11 0 21c16 37.333 42 92 78 164c2 10.667 8 24 18 40c11.333 19.333 18.333 33 21 41c98 159.333 192 286 282 380c-1.33301 1.33301 -2 3 -2 5c-34.667 -2 -120.667 -1.66699 -258 1c-114.667 2 -196.667 -0.666992 -246 -8
c-35.333 -5.33301 -59.666 -20.333 -72.999 -45c0 -4.66699 -2.33301 -11.334 -7 -20.001c-4.66699 4 -8.83398 12.5 -12.501 25.5s-7.5 22.167 -11.5 27.5c-8.66699 22.667 -28.334 53.667 -59.001 93v7c54.667 0 151.334 -0.666992 290.001 -2
c123.333 -1.33301 220.333 -1.66602 291 -0.999023c106.667 0.666992 203.334 3 290.001 7c2.66699 -2.66699 2.66699 -5 0 -7z" />
    <glyph glyph-name="eight" unicode="8" horiz-adv-x="890" 
d="M854 268c1.33301 -9.33301 1.99707 -18.6621 1.99707 -27.9951c0 -57.333 -24.333 -104 -73 -140c-90.667 -67.333 -206 -101 -346 -101c-65.333 0 -132.333 7.66699 -201 23c-45.333 10 -85 27.667 -119 53c-39.333 28.667 -64.666 63.667 -75.999 105
c-3.33301 19.333 -5 36.666 -5 51.999c0 38 9.66699 68.667 29 92c26 32 59.667 57.667 101 77c27.333 13.333 66.666 27 117.999 41c-34 18.667 -53.333 29.667 -58 33c-22 13.333 -40.333 26.666 -55 39.999c-53.333 50 -94.666 109.333 -123.999 178
c0 -2.66699 -0.333008 2.66602 -1 15.999c0 5.33301 2 9.66602 6 12.999c28.667 0 100.834 -0.666992 216.501 -2s209.834 -2 282.501 -2c112 0 207.333 1.33301 286 4c4.66699 -6 5.66699 -16.667 3 -32c-23.333 -50.667 -56.833 -98.334 -100.5 -143.001
s-90.5 -78.667 -140.5 -102c0.666992 -0.666992 1 -1.5 1 -2.5s0.333008 -1.83301 1 -2.5c144.667 -26 229 -83.333 253 -172zM716.997 642.004l-1 1.00098c-120 0.666992 -300.667 0 -542 -2c0 -0.666992 -0.333008 -1.83398 -1 -3.50098s-1 -2.83398 -1 -3.50098
c30.667 -47.333 72.667 -84.666 126 -111.999c60 -30.667 112 -50.667 156 -60l97 44c37.333 18 68 37 92 57c21.333 18 35 30 41 36c15.333 14.667 26.333 29 33 43zM762.997 213.005c2.66699 48 -10.999 80.666 -40.999 97.999c-38.667 22.667 -87 41.334 -145 56.001
c-14.667 3.33301 -66.667 13.666 -156 30.999c-18.667 -7.33301 -54.334 -16.666 -107.001 -27.999c-46 -10.667 -80.667 -21.667 -104 -33c-35.333 -17.333 -62 -42 -80 -74c-2.66699 -11.333 -4 -22.333 -4 -33c0 -46.667 18 -81 54 -103c58 -36 135 -54 231 -54
c30 0 63 1.66699 99 5c64.667 6.66699 114.667 17 150 31c52.667 22 87 56.667 103 104z" />
    <glyph glyph-name="nine" unicode="9" horiz-adv-x="860" 
d="M786 528c27.333 -46 41.002 -99.667 41.002 -161c0 -67.333 -16 -125.666 -48 -174.999c-42.667 -66 -100.334 -115.667 -173.001 -149c-66.667 -30 -141.334 -45 -224.001 -45c-43.333 0 -87.333 4.33301 -132 13c-36.667 7.33301 -88.667 26.333 -156 57
c-2 2 -3 4 -3 6c0 3.33301 3.66699 7.66602 11 12.999c18 18.667 35.667 39.667 53 63c5.33301 1.33301 9.33301 0 12 -4s5 -8 7 -12c58.667 -46 131.334 -69 218.001 -69c54 0 104.333 9.33301 151 28c52 20.667 96.667 53 134 97c39.333 47.333 61 97 65 149
c0 2.66699 -1.83301 4 -5.5 4s-5.83398 0.666992 -6.50098 2c-95.333 -76 -208 -114 -338 -114c-68.667 0 -133 12 -193 36c-36 14.667 -68 35 -96 61c-31.333 28.667 -52.333 60 -63 94c-4.66699 16 -7 32 -7 48c0 52.667 22.667 101 68 145c74 71.333 173 107 297 107
c52 0 105.333 -6.33301 160 -19c118 -46 194 -104.333 228 -175zM730.002 438c-28 100 -93.332 165.333 -195.999 196c-52 15.333 -96.333 23 -133 23c-31.333 0 -65.333 -5 -102 -15c-96 -26.667 -151.333 -73 -166 -139c-2.66699 -10.667 -4 -21.667 -4 -33
c0 -50 21.333 -88 64 -114c57.333 -35.333 126.666 -53 207.999 -53c78 0 148 16 210 48l63 39c24 15.333 42.667 31.333 56 48z" />
    <glyph glyph-name="colon" unicode=":" horiz-adv-x="200" 
d="M156 423c0 -20.667 -5.5 -38.334 -16.5 -53.001s-24.167 -22 -39.5 -22s-28.5 7.33301 -39.5 22s-16.5 32.334 -16.5 53.001s5.5 38.334 16.5 53.001s24.167 22 39.5 22s28.5 -7.33301 39.5 -22s16.5 -32.334 16.5 -53.001zM156 71c0 -20.667 -5.5 -38.334 -16.5 -53.001
s-24.167 -22 -39.5 -22s-28.5 7.33301 -39.5 22s-16.5 32.334 -16.5 53.001s5.5 38.334 16.5 53.001s24.167 22 39.5 22s28.5 -7.33301 39.5 -22s16.5 -32.334 16.5 -53.001z" />
    <glyph glyph-name="semicolon" unicode=";" horiz-adv-x="200" 
d="M156 423c0 -20.667 -5.5 -38.334 -16.5 -53.001s-24.167 -22 -39.5 -22s-28.5 7.33301 -39.5 22s-16.5 32.334 -16.5 53.001s5.5 38.334 16.5 53.001s24.167 22 39.5 22s28.5 -7.33301 39.5 -22s16.5 -32.334 16.5 -53.001zM156 65
c0.666992 -28.667 -7.99902 -52.6689 -25.999 -72.002l-30 -28c-19.333 -15.333 -35 -22 -47 -20c-1.33301 0.666992 -2 1.33398 -2 2.00098c0 1.33301 4.66699 4.83301 14 10.5s15.333 9.5 18 11.5c0.666992 1.33301 3.66699 5.33301 9 12
c4.66699 4.66699 6.66699 9.66699 6 15c-14.667 0.666992 -27.334 8.33398 -38.001 23.001s-16 32 -16 52c0 20.667 5.5 38.334 16.5 53.001s24.167 22 39.5 22s28.5 -7.33301 39.5 -22s16.5 -32.334 16.5 -53.001v-6z" />
    <glyph glyph-name="less" unicode="&#x3c;" horiz-adv-x="315" 
d="M295 137h-82l-199 198l199 198h82l-198 -198z" />
    <glyph glyph-name="equal" unicode="=" horiz-adv-x="470" 
d="M426 398h-388v56h388v-56zM426 248h-388v56h388v-56z" />
    <glyph glyph-name="greater" unicode="&#x3e;" horiz-adv-x="310" 
d="M295 335l-198 -198h-83l198 198l-198 198h83z" />
    <glyph glyph-name="question" unicode="?" horiz-adv-x="495" 
d="M470 503c0 -57.333 -17.9961 -104.332 -53.9961 -140.999c-50 -51.333 -107.667 -81 -173 -89c0 -0.666992 -1 -1.83398 -3 -3.50098s-3 -3.5 -3 -5.5c2 -15.333 2.66699 -36 2 -62c0 -30 0.333008 -50.667 1 -62l-3 -2c-36 5.33301 -64 5.33301 -84 0
c-2 14.667 -2.33301 36 -1 64c1.33301 31.333 1.66602 53 0.999023 65c-6 34 -18.667 58.667 -38 74c4 2 10.667 2.33301 20 1c10 -1.33301 17.333 -1.66602 22 -0.999023c81.333 3.33301 145.666 30.666 192.999 81.999c20 29.333 30 60 30 92
c0 18.667 -4 35.334 -12 50.001c-29.333 53.333 -77 78.666 -143 75.999c-48.667 -2 -83.334 -20 -104.001 -54c-9.33301 -15.333 -14 -30.333 -14 -45c0 -28.667 13 -45 39 -49c8.66699 -1.33301 19.167 0 31.5 4s20.166 6 23.499 6c-9.33301 -9.33301 -24.333 -19 -45 -29
c-26.667 -12.667 -43.667 -21.667 -51 -27c-16 -11.333 -41 -28 -75 -50c-0.666992 4 1.33301 9 6 15s7.33398 10.333 8.00098 13c0 14 -3.83301 34.667 -11.5 62s-10.834 49 -9.50098 65c2 32 15.333 63 40 93c22.667 27.333 49.667 47.333 81 60
c28 11.333 57.333 17 88 17c55.333 0 107 -16 155 -48c55.333 -36.667 83 -93.667 83 -171zM258.004 47.001c-2.66699 -16.667 -13.668 -29.333 -33.001 -38c-10.667 -6 -22.334 -9 -35.001 -9c-15.333 0 -28.666 4.33301 -39.999 13c-15.333 12 -23 27.333 -23 46
c0 34.667 19.667 56 59 64c28.667 -2.66699 48.334 -10 59.001 -22c12 -14 16.333 -32 13 -54z" />
    <glyph glyph-name="at" unicode="@" horiz-adv-x="860" 
d="M817 473c0 -68 -19.334 -132 -58.001 -192c-44 -68 -98.667 -102 -164 -102c-26.667 0 -50 6.66699 -70 20s-31.667 32.666 -35 57.999h-2c-30 -52 -69.333 -78 -118 -78c-42.667 0 -76.667 16.333 -102 49c-23.333 30 -35 67.333 -35 112
c0 59.333 23.333 113.666 70 162.999s99.334 74 158.001 74c48 0 77 -20.333 87 -61h2l17 53h93l-70 -250c-10.667 -38 -16 -61.667 -16 -71c0 -10 4 -18.667 12 -26s17 -11 27 -11c50.667 0 93.667 31.333 129 94c30.667 54.667 46 111 46 169
c0 82.667 -30 148.667 -90 198c-56 45.333 -126.333 68 -211 68c-112 0 -204.333 -39 -277 -117c-68 -73.333 -102 -161 -102 -263c0 -102.667 33.333 -183.667 100 -243c62 -54.667 140 -82 234 -82c116.667 0 214 31.333 292 94l17 -21c-91.333 -68 -191 -102 -299 -102
c-120.667 0 -219 31.333 -295 94c-78.667 65.333 -118 153 -118 263c0 118.667 43.667 217.334 131 296.001c84 76 185.667 114 305 114c95.333 0 175 -25.667 239 -77c68.667 -55.333 103 -129.666 103 -222.999zM527.999 477c0 44.667 -19.334 67.001 -58.001 67.001
c-39.333 0 -74.333 -38.333 -105 -115c-24.667 -62.667 -37 -114.334 -37 -155.001c0 -42 20.333 -63 61 -63c36.667 0 70.334 36.667 101.001 110c25.333 61.333 38 113.333 38 156z" />
    <glyph glyph-name="A" unicode="A" horiz-adv-x="1050" 
d="M1039 0l-253.998 -1.00195c8.66699 4.66699 16.667 9.33398 24 14.001c16.667 11.333 27 21 31 29s6 17.333 6 28c0 11.333 -4.66699 32.333 -14 63c-6 20.667 -20.667 60.334 -44 119.001l-529 -1c-31.333 -71.333 -48.666 -135.333 -51.999 -192
c-0.666992 -8 2.66602 -15.833 9.99902 -23.5l21 -21.5c1.33301 -1.33301 5.16602 -2.83301 11.499 -4.5s9.16602 -4.83398 8.49902 -9.50098h-228c48.667 38 90 103.333 124 196l160 445c-76.667 -0.666992 -131.667 -0.666992 -165 0
c-16.667 -5.33301 -29.667 -16.666 -39 -33.999c-10.667 12 -26.667 34.167 -48 66.5s-30 48.5 -26 48.5h977c0.666992 0 -7.33301 -12.667 -24 -38c-20 -30.667 -33.333 -52 -40 -64c-6 5.33301 -16.667 12.333 -32 21c-36.667 2 -96.334 2.33301 -179.001 1l107 -282
c42.667 -112.667 81.667 -205 117 -277c26.667 -43.333 52.334 -71 77.001 -83zM769.002 322.998l-115 316.001c-30 0 -74 0.333008 -132 1h-124c-2 0 -17.667 -39.667 -47 -119c-31.333 -84.667 -54 -150.334 -68 -197.001c0.666992 -0.666992 162.667 -1 486 -1z" />
    <glyph glyph-name="B" unicode="B" horiz-adv-x="1000" 
d="M963 200c0 -55.333 -20.334 -102.503 -61.001 -141.503s-90 -58.5 -148 -58.5h-720c30.667 9.33301 50.334 27.333 59.001 54c6.66699 20.667 10 41.334 10 62.001v490c0 20.667 -3.33301 41.334 -10 62.001c-9.33301 28 -29 46.667 -59 56h685c56 0 104 -17.667 144 -53
s60 -77.666 60 -126.999c0 -64.667 -30.333 -114.667 -91 -150c38.667 -20 70.167 -47.333 94.5 -82s36.5 -72 36.5 -112zM845.999 527.997c0 30.667 -12.5 56.833 -37.5 78.5s-54.833 32.5 -89.5 32.5c-29.333 0 -125.333 0.333008 -288 1c-162.667 0 -241 0 -235 0v-222
h523c35.333 0 65.333 10.667 90 32s37 47.333 37 78zM885.999 213.996c0 34 -12.501 63.333 -37.501 88s-54.833 37 -89.5 37c-29.333 0 -132 0.333008 -308 1c-176 0 -261 0 -255 0v-252h564c34.667 0 64.334 12.5 89.001 37.5s37 54.5 37 88.5z" />
    <glyph glyph-name="C" unicode="C" 
d="M969 274l-21.9971 -22.998c-47.333 -50.667 -90.666 -90.334 -129.999 -119.001c-66 -48 -120.333 -81.333 -163 -100c-56 -24.667 -115.667 -37 -179 -37c-122.667 0 -227.334 37.667 -314.001 113s-130 165.333 -130 270s43.167 194.5 129.5 269.5
s191.166 112.5 314.499 112.5c109.333 0 205.333 -30.667 288 -92h1c29.333 -24 78.333 -60.333 147 -109c20 -12.667 30 -21.334 30 -26.001h-271c22.667 16 34 28.333 34 37c0 15.333 -3.33301 28.333 -10 39l-12 12c-62.667 36 -131.667 54 -207 54
c-98.667 0 -183.167 -29 -253.5 -87s-105.5 -128 -105.5 -210c0 -82.667 35.167 -153 105.5 -211s154.833 -87 253.5 -87c81.333 0 151.666 19 210.999 57l14 9l35.5 33c11.667 11.333 17.5 23 17.5 35c0 6 -1.33301 11.833 -4 17.5s-9.33398 12.5 -20.001 20.5
s-17 15.333 -19 22h259z" />
    <glyph glyph-name="D" unicode="D" horiz-adv-x="1020" 
d="M941 503c23.333 -38 35.0029 -83.335 35.0029 -136.002c0 -67.333 -17 -129.666 -51 -186.999c-73.333 -123.333 -203.666 -183.666 -390.999 -180.999c-112 -0.666992 -280.333 -0.666992 -505 0c-3.33301 1.33301 -5 3.33301 -5 6c0 6.66699 4 10 12 10
c37.333 12.667 60.666 40 69.999 82c1.33301 126.667 1.66602 299.667 0.999023 519c-0.666992 35.333 -17.334 61.333 -50.001 78c-16.667 8.66699 -24.334 15.667 -23.001 21h488c92.667 1.33301 174.667 -14 246 -46c81.333 -36.667 139 -92 173 -166zM860.003 472.998
c-11.333 29.333 -29.667 55.835 -55 79.502s-53 40.5 -83 50.5c-67.333 22.667 -133 34 -197 34c-66 0 -173.667 -0.666992 -323 -2v-555l327 2c66.667 1.33301 121 8.66602 163 21.999c54.667 17.333 99.5 47.166 134.5 89.499s52.5 98.5 52.5 168.5
c0 40 -6.33301 77 -19 111z" />
    <glyph glyph-name="E" unicode="E" horiz-adv-x="1000" 
d="M968 130l-128.999 -130.002h-795c28 7.33301 46.333 24.333 55 51c6.66699 20.667 10 41.334 10 62.001v490c0 20.667 -3.33301 41.334 -10 62.001c-8.66699 26.667 -28.334 44.667 -59.001 54h715c31.333 0 50.333 -2.33301 57 -7c26.667 -22.667 68 -62 124 -118
c-83.333 28.667 -144 43 -182 43h-545v-220h643c26 0 47.667 8.66699 65 26v-132c-20 16.667 -40.667 25 -62 25h-648v-245h627c29.333 0 74 13 134 39z" />
    <glyph glyph-name="F" unicode="F" horiz-adv-x="970" 
d="M930 594c-83.333 28.667 -144 42.998 -182 42.998h-545v-220h643c26 0 47.667 8.66699 65 26v-132c-20 16.667 -40.667 25 -62 25h-648v-220c0 -21.333 3.33301 -42 10 -62c8.66699 -26.667 28.334 -44.667 59.001 -54h-232c28 7.33301 46.333 24.333 55 51
c6.66699 20.667 10 41.334 10 62.001v490c0 20.667 -3.33301 41.334 -10 62.001c-8.66699 26.667 -28.334 44.667 -59.001 54h715c31.333 0 50.333 -2.33301 57 -7c26.667 -22.667 68 -62 124 -118z" />
    <glyph glyph-name="G" unicode="G" 
d="M959 325c-31.333 -7.33301 -53.665 -21.998 -66.998 -43.998c-2.66699 -5.33301 -3.66699 -20.666 -3 -45.999c1.33301 -48 2 -70 2 -66c1.33301 -10 7.33301 -19.667 18 -29c16 -14.667 25 -23.334 27 -26.001c-32 -7.33301 -89 -25.333 -171 -54
c-75.333 -27.333 -133.666 -44.666 -174.999 -51.999c-46.667 -8.66699 -85 -13 -115 -13c-122.667 0 -227.334 37.667 -314.001 113s-130 165.333 -130 270s43.167 194.5 129.5 269.5s191.166 112.5 314.499 112.5c109.333 0 205.333 -30.667 288 -92h1
c29.333 -24 78.333 -60.333 147 -109c20 -12.667 30 -21.334 30 -26.001h-271c22.667 16 34 28.333 34 37c0 15.333 -3.33301 28.333 -10 39l-12 12c-62.667 36 -131.667 54 -207 54c-98.667 0 -183.167 -29 -253.5 -87s-105.5 -128 -105.5 -210
c0 -82.667 35.167 -153 105.5 -211s154.833 -87 253.5 -87c34 0 74.333 4 121 12c49.333 9.33301 90.666 20.666 123.999 33.999c19.333 8 32.333 14 39 18c11.333 7.33301 19.666 16.666 24.999 27.999c0 21.333 0.333008 42.333 1 63c0 24 -2.5 39.333 -7.5 46
s-17.5 15 -37.5 25c-24 12 -45 18 -63 18c-7.33301 0 -13.666 -1 -18.999 -3v23h301v-19z" />
    <glyph glyph-name="H" unicode="H" horiz-adv-x="1050" 
d="M1020 0h-230c30.667 9.33301 50.334 27.333 59.001 54c6.66699 20.667 10 41.334 10 62.001v220h-660v-220c0 -22.667 3 -43.334 9 -62.001c8.66699 -26.667 28.334 -44.667 59.001 -54h-230c30.667 9.33301 50.334 27.333 59.001 54c6.66699 20.667 10 41.334 10 62.001
v490c0 20.667 -3.33301 41.334 -10 62.001c-8.66699 26.667 -28.334 44.667 -59.001 54h230c-30.667 -9.33301 -50.334 -27.333 -59.001 -54c-6 -18.667 -9 -39.334 -9 -62.001v-201h660v201c0 20.667 -3.33301 41.334 -10 62.001
c-8.66699 26.667 -28.334 44.667 -59.001 54h230c-30.667 -9.33301 -50.334 -27.333 -59.001 -54c-6 -18.667 -9 -39.334 -9 -62.001v-490c0 -22.667 3 -43.334 9 -62.001c8.66699 -26.667 28.334 -44.667 59.001 -54z" />
    <glyph glyph-name="I" unicode="I" horiz-adv-x="270" 
d="M248 0h-230c30.667 9.33301 50.334 27.333 59.001 54c6.66699 20.667 10 41.334 10 62.001v490c0 20.667 -3.33301 41.334 -10 62.001c-8.66699 26.667 -28.334 44.667 -59.001 54h230c-30.667 -9.33301 -50.334 -27.333 -59.001 -54c-6 -18.667 -9 -39.334 -9 -62.001
v-490c0 -22.667 3 -43.334 9 -62.001c8.66699 -26.667 28.334 -44.667 59.001 -54z" />
    <glyph glyph-name="J" unicode="J" horiz-adv-x="615" 
d="M593 721c-30.667 -9.33301 -50.3301 -27.334 -58.9971 -54.001c-6 -18.667 -9 -39.334 -9 -62.001l1 -412c0 -58 -25.333 -105.667 -76 -143c-46 -33.333 -98.667 -50 -158 -50c-49.333 0 -90.333 11.667 -123 35c-22.667 10.667 -47.334 34.667 -74.001 72
s-49 61.666 -67 72.999l125 86c1.33301 -3.33301 0.333008 -7.66602 -3 -12.999s-5 -9.66602 -5 -12.999c-0.666992 -6 -1 -12 -1 -18c0 -54 30 -99.667 90 -137c18.667 -8.66699 38.667 -13 60 -13c35.333 0 66.333 10.333 93 31c22 16.667 35.333 41.667 40 75
c1.33301 7.33301 2.66602 37 3.99902 89c0.666992 29.333 1 142 1 338c0 20.667 -3.33301 41.334 -10 62.001c-8.66699 26.667 -28.334 44.667 -59.001 54h230z" />
    <glyph glyph-name="K" unicode="K" horiz-adv-x="1090" 
d="M261 0h-230c30.667 9.33301 50.334 27.333 59.001 54c6.66699 20.667 10 41.334 10 62.001v490c0 20.667 -3.33301 41.334 -10 62.001c-8.66699 26.667 -28.334 44.667 -59.001 54h230c-30.667 -9.33301 -50.334 -27.333 -59.001 -54c-6 -18.667 -9 -39.334 -9 -62.001
v-490c0 -22.667 3 -43.334 9 -62.001c8.66699 -26.667 28.334 -44.667 59.001 -54zM1059 0h-362.002c8.66699 6 20.334 15.333 35.001 28c12 6 18 15 18 27c0 4.66699 -1.66699 8.33398 -5 11.001c-108.667 71.333 -290.334 171.666 -545.001 300.999v10l423 230
c26 15.333 41.333 24.666 46 27.999c16.667 13.333 26.667 28 30 44c0 14 -12.667 27.333 -38 40h340c-18.667 -7.33301 -49 -21 -91 -41c-106.667 -56 -283.667 -157.667 -531 -305l226 -133c168.667 -95.333 298.334 -161 389.001 -197
c18.667 -7.33301 40.334 -21.666 65.001 -42.999z" />
    <glyph glyph-name="L" unicode="L" horiz-adv-x="930" 
d="M910 0l-878.999 -0.00195312c30.667 9.33301 50.334 27.333 59.001 54c6.66699 20.667 10 41.334 10 62.001v490c0 20.667 -3.33301 41.334 -10 62.001c-8.66699 26.667 -28.334 44.667 -59.001 54h230c-30.667 -9.33301 -50.334 -27.333 -59.001 -54
c-6 -18 -9 -38.667 -9 -62l-1 -509h556c11.333 0 22 7 32 21l24 35h3c16.667 -38 51 -89 103 -153z" />
    <glyph glyph-name="M" unicode="M" horiz-adv-x="1380" 
d="M1369 0l-310.001 0.000976562c10 5.33301 19 11 27 17c19.333 14 32 27.333 38 40c4.66699 8.66699 7 18 7 28c0 9.33301 -3.66699 25 -11 47c-32.667 104 -92 268.667 -178 494l-60 -135c-44 -101.333 -74 -178.333 -90 -231c0 -20.667 6.33301 -38.667 19 -54
c5.33301 -6.66699 13.333 -12.334 24 -17.001l23 -12h-327c11.333 4.66699 27 14.334 47 29.001c12.667 15.333 19 33.333 19 54c-24 78.667 -74 200.667 -150 366c-42 -108.667 -101.333 -273.334 -178 -494.001c-7.33301 -22 -11 -37.667 -11 -47
c0 -10 2.33301 -19.333 7 -28c9.33301 -18.667 31 -37.667 65 -57h-310c14.667 6.66699 27.667 13.334 39 20.001c28.667 15.333 48 28.666 58 39.999c22 24.667 38.333 50.667 49 78l191 499h-164c-23.333 0 -42.333 -8.33301 -57 -25
c-4.66699 -5.33301 -9.66699 -14.333 -15 -27l-77 135h587l-32 -16c-22.667 -12.667 -36 -23 -40 -31c-8.66699 -16 -9 -37.667 -1 -65c14.667 -48.667 36.334 -107.667 65.001 -177l72 -174l73 174c26.667 66 47.667 125 63 177c8 27.333 7.66699 49 -1 65
c-6.66699 11.333 -30.667 27 -72 47h587l-77 -135c-2 6 -7 15 -15 27c-14.667 16.667 -33.667 25 -57 25h-164l191 -499c10.667 -27.333 27 -53.333 49 -78c14.667 -16.667 47 -36.667 97 -60z" />
    <glyph glyph-name="N" unicode="N" horiz-adv-x="1040" 
d="M1012 0l-230.001 -0.000976562c30.667 9.33301 50.334 27.333 59.001 54c6.66699 20.667 10 41.334 10 62.001v24l-651 468v-492c0 -22.667 3 -43.334 9 -62.001c8.66699 -26.667 28.334 -44.667 59.001 -54h-230c30.667 9.33301 50.334 27.333 59.001 54
c6.66699 20.667 10 41.334 10 62.001v490c0 20.667 -3.33301 41.334 -10 62.001c-8.66699 26.667 -28.334 44.667 -59.001 54h163l650 -452v336c0 20.667 -3.33301 41.334 -10 62.001c-8.66699 26.667 -28.334 44.667 -59.001 54h230
c-30.667 -9.33301 -50.334 -27.333 -59.001 -54c-6 -18.667 -9 -39.334 -9 -62.001v-490c0 -22.667 3 -43.334 9 -62.001c8.66699 -26.667 28.334 -44.667 59.001 -54z" />
    <glyph glyph-name="O" unicode="O" horiz-adv-x="940" 
d="M920 378c0 -104.667 -43.498 -194.667 -130.498 -270s-191.833 -113 -314.5 -113s-227.334 37.667 -314.001 113s-130 165.333 -130 270s43.167 194.5 129.5 269.5s191.166 112.5 314.499 112.5s228.333 -37.5 315 -112.5s130 -164.833 130 -269.5zM835.002 378
c0 82.667 -35.333 152.833 -106 210.5s-155.334 86.5 -254.001 86.5s-183.167 -29 -253.5 -87s-105.5 -128 -105.5 -210c0 -82.667 35.167 -153 105.5 -211s154.833 -87 253.5 -87s183.334 29 254.001 87s106 128.333 106 211z" />
    <glyph glyph-name="P" unicode="P" 
d="M946 524c0 -54.667 -20.168 -101.668 -60.501 -141.001s-88.5 -59 -144.5 -59h-544l-1 -208c0 -22.667 3 -43.334 9 -62.001c8.66699 -26.667 28.334 -44.667 59.001 -54h-230c30.667 9.33301 50.334 27.333 59.001 54c6.66699 20.667 10 41.334 10 62.001v498
c0 16.667 -3.33301 35.334 -10 56.001c-8.66699 26.667 -28.334 44.667 -59.001 54h708c56 0 104 -19.667 144 -59s60 -86.333 60 -141zM868.999 523.999c0 34 -12.333 63 -37 87s-54.667 36 -90 36c-29.333 0 -129 0.333008 -299 1c-170 0 -252 0 -246 0
c-0.666992 -3.33301 -1 -85.333 -1 -246h545c34.667 0 64.667 11.833 90 35.5s38 52.5 38 86.5z" />
    <glyph glyph-name="Q" unicode="Q" horiz-adv-x="970" 
d="M937 48l-130.999 -117.001c0 42 -19.667 87.667 -59 137c-78 -48.667 -165 -73 -261 -73c-122.667 0 -227.334 37.667 -314.001 113s-130 165.333 -130 270s43.167 194.5 129.5 269.5s191.166 112.5 314.499 112.5s228.333 -37.5 315 -112.5s130 -164.833 130 -269.5
c0 -98 -38 -183 -114 -255c2.66699 -3.33301 7 -7.66602 13 -12.999c26 -23.333 42 -37 48 -41c18.667 -13.333 38.334 -20.333 59.001 -21zM846.001 377.999c0 82.667 -35.3311 152.834 -105.998 210.501s-155.334 86.5 -254.001 86.5s-183.167 -29 -253.5 -87
s-105.5 -128 -105.5 -210c0 -92 42.667 -168 128 -228c24 48.667 64.667 86 122 112c48 22 100.333 33 157 33c81.333 0 156.666 -37 225.999 -111c0.666992 -0.666992 0.666992 -0.333984 0 0.999023c57.333 52.667 86 117 86 193zM688.003 130.999
c-60.667 52.667 -112.332 79 -154.999 79c-90.667 0 -159.667 -33.333 -207 -100c44 -20 97.333 -30 160 -30c73.333 0 140.666 17 201.999 51z" />
    <glyph glyph-name="R" unicode="R" horiz-adv-x="1030" 
d="M1008 1c-12.667 0 -59.335 -0.332031 -140.002 -0.999023s-140.667 -1 -180 -1c2 5.33301 8.33301 9.16602 19 11.499s17.334 4.83301 20.001 7.5c7.33301 4.66699 15 10 23 16s12 12.333 12 19c-0.666992 29.333 -70 119.666 -208 270.999
c0.666992 0 -58 0.333008 -176 1h-176v-209c0 -22.667 3 -43.334 9 -62.001c8.66699 -26.667 28.334 -44.667 59.001 -54h-230c30.667 9.33301 50.334 27.333 59.001 54c6.66699 20.667 10 41.334 10 62.001v498c0 16.667 -3.33301 35.334 -10 56.001
c-8.66699 26.667 -28.334 44.667 -59.001 54h708c56 0 104 -19.667 144 -59s60 -86.333 60 -141s-20.167 -101.667 -60.5 -141s-88.5 -59 -144.5 -59h-63l120 -152c48.667 -60 84 -98.333 106 -115c17.333 -13.333 50 -32 98 -56zM874.999 524.001
c0 34 -12.3311 63.001 -36.998 87.001s-54.667 36 -90 36c-29.333 0 -129 0.333008 -299 1c-170 0 -252 0 -246 0c-0.666992 -3.33301 -1 -85.333 -1 -246h280l-48 51c19.333 -8 46.666 -14 81.999 -18c51.333 -6.66699 78.666 -10.334 81.999 -11.001
c6 -6.66699 14.333 -14 25 -22h124c34.667 0 64.667 11.833 90 35.5s38 52.5 38 86.5z" />
    <glyph glyph-name="S" unicode="S" horiz-adv-x="860" 
d="M825 191c-5.33301 -62 -54.668 -115.338 -148.001 -160.005c-67.333 -20.667 -143.333 -31 -228 -31c-72 0 -151.333 7.66699 -238 23c-3.33301 0.666992 -11.666 3 -24.999 7c-10.667 2.66699 -19.334 4 -26.001 4c-6 0 -12 -1 -18 -3
c-3.33301 -1.33301 -9.16602 -5.66602 -17.499 -12.999s-14.5 -11 -18.5 -11s-7.66699 2.66699 -11 8c-6.66699 22 -17.5 54.333 -32.5 97l-33.5 97c2 2.66699 4.66699 4 8 4c110 -96.667 251 -145 423 -145c40.667 0 82.334 2.66699 125.001 8
c83.333 22 131 57.333 143 106c4 28.667 -11.333 55.334 -46 80.001c-54 25.333 -145.333 50.333 -274 75c-122.667 23.333 -213 50.666 -271 81.999c-48.667 26 -73 69 -73 129c0 50 31.333 92.667 94 128c56 32 127.333 48 214 48c42 0 87.667 -4 137 -12
c22 -5.33301 55.333 -12.666 100 -21.999c8 -1.33301 17.333 2.33398 28 11.001s19 12.334 25 11.001l33 -84c14 -32.667 28 -59.667 42 -81c0.666992 -3.33301 0 -5.66602 -2 -6.99902c-0.666992 -0.666992 -2.66699 -0.666992 -6 0s-5.33301 1 -6 1
c-58.667 48.667 -151.667 86.334 -279 113.001c-24.667 2.66699 -48 4 -70 4c-72.667 0 -131.667 -13.333 -177 -40c-14.667 -6.66699 -29.667 -22 -45 -46c-8.66699 -20 -6.66699 -39.333 6 -58c23.333 -22.667 56.666 -39.667 99.999 -51l112 -28l207 -40
c78.667 -18.667 142.667 -45.334 192 -80.001c41.333 -38.667 60 -80 56 -124z" />
    <glyph glyph-name="T" unicode="T" horiz-adv-x="1030" 
d="M998 720l-71.0029 -119c-11.333 13.333 -27 24.666 -47 33.999c-51.333 3.33301 -156.666 5 -315.999 5l1 -526c0 -22.667 3 -43.334 9 -62.001c5.33301 -16 25 -34 59 -54h-230c30.667 9.33301 50.334 27.333 59.001 54c6.66699 20.667 10 41.334 10 62.001v526
c-159.333 0 -264.666 -1.66699 -315.999 -5c-20 -9.33301 -35.667 -20.666 -47 -33.999l-71 119h960z" />
    <glyph glyph-name="U" unicode="U" horiz-adv-x="1070" 
d="M1036 721c-16 -8 -32.667 -23.668 -50 -47.001c-11.333 -15.333 -22.666 -45.666 -33.999 -90.999c-10 -40 -22 -97.333 -36 -172c-14.667 -80.667 -26 -138.334 -34 -173.001c-37.333 -159.333 -154.333 -239 -351 -239c-90.667 0 -160.334 14 -209.001 42
c-62.667 36.667 -107.667 102.667 -135 198c-4.66699 16 -21 92.333 -49 229c-24 114 -42.167 182 -54.5 204s-32.5 38.333 -60.5 49h247c-10.667 -4 -21.334 -7.66699 -32.001 -11c-12.667 -7.33301 -22.334 -19 -29.001 -35c-7.33301 -18 -8 -44 -2 -78
c16 -93.333 26.667 -154.333 32 -183c13.333 -67.333 28.333 -126 45 -176c20 -61.333 50.333 -104.666 91 -129.999c36.667 -22.667 88.667 -34 156 -34c74.667 0 133.334 14.667 176.001 44c38 26 65.333 66.333 82 121c6.66699 22 18.667 75 36 159
c18 89.333 29 152 33 188c4.66699 44.667 3.66699 74 -3 88c-5.33301 11.333 -23.666 27 -54.999 47h236z" />
    <glyph glyph-name="V" unicode="V" horiz-adv-x="1080" 
d="M1057 720c-14.667 -6.66699 -27.668 -13.3301 -39.001 -19.9971c-28.667 -15.333 -48.167 -28.833 -58.5 -40.5s-26.5 -37.5 -48.5 -77.5l-267 -499h164c23.333 0 42.333 8.33301 57 25c4.66699 5.33301 9.66699 14.333 15 27l77 -135h-826l77 135c2 -6 7 -15 15 -27
c14.667 -16.667 33.667 -25 57 -25h164c-37.333 79.333 -126.333 245.666 -267 498.999c-9.33301 18 -25.666 44 -48.999 78c-14.667 16.667 -47 36.667 -97 60h310c-10 -5.33301 -19 -11 -27 -17c-19.333 -14 -32 -27.333 -38 -40c-4.66699 -10 -7 -20.333 -7 -31
c0 -14 3.66699 -28.667 11 -44c46.667 -96.667 134.667 -264.334 264 -503.001l264 503c8 15.333 12 29.666 12 42.999c0 11.333 -2.66699 22 -8 32c-9.33301 18.667 -31 37.667 -65 57h310z" />
    <glyph glyph-name="W" unicode="W" horiz-adv-x="1410" 
d="M1386 720c-14.667 -6.66699 -27.666 -13.335 -38.999 -20.002c-28.667 -15.333 -48 -28.666 -58 -39.999c-22 -24.667 -38.333 -50.667 -49 -78l-191 -499h164c23.333 0 42.333 8.33301 57 25c4.66699 5.33301 9.66699 14.333 15 27l77 -135h-587l32 16
c22.667 12.667 36 23 40 31c8.66699 16 9 37.667 1 65c-16 54.667 -61.333 171.667 -136 351l-72 -174c-28.667 -69.333 -50.334 -128.333 -65.001 -177c-8 -27.333 -7.66699 -49 1 -65c6.66699 -11.333 30.667 -27 72 -47h-587l77 135c2 -6 7 -15 15 -27
c14.667 -16.667 33.667 -25 57 -25h164l-191 499c-10.667 27.333 -27 53.333 -49 78c-14.667 16.667 -47 36.667 -97 60h310c-10 -5.33301 -19 -11 -27 -17c-19.333 -14 -32 -27.333 -38 -40c-4.66699 -8.66699 -7 -18 -7 -28c0 -9.33301 3.66699 -25 11 -47
c32.667 -104 92 -268.667 178 -494l60 135c44 101.333 74 178.333 90 231c0 20.667 -6.33301 38.667 -19 54c-5.33301 6.66699 -13.333 12.334 -24 17.001l-23 12h327c-11.333 -4.66699 -27 -14.334 -47 -29.001c-12.667 -15.333 -19 -33.333 -19 -54
c24 -78.667 74 -200.667 150 -366c42 108.667 101.333 273.334 178 494.001c7.33301 22 11 37.667 11 47c0 10 -2.33301 19.333 -7 28c-9.33301 18.667 -31 37.667 -65 57h310z" />
    <glyph glyph-name="X" unicode="X" 
d="M943 136l-109.001 -143c2 4.66699 3 9 3 13c0 7.33301 -8 23 -24 47c-18.667 21.333 -33.334 36.333 -44.001 45l-283 211l-283 -211c-8.66699 -6.66699 -23.334 -21.667 -44.001 -45c-16 -24 -24 -39.667 -24 -47c0 -4 1 -8.33301 3 -13l-109 143
c6.66699 -4.66699 13.334 -7 20.001 -7c5.33301 0 20 4.33301 44 13c14 5.33301 32.333 15.333 55 30c2.66699 2.66699 89.334 67.667 260.001 195l-258 193c-17.333 12.667 -36 22.667 -56 30c-23.333 8 -37.666 12 -42.999 12c-7.33301 0 -14.333 -2 -21 -6l109 143
c-2 -4.66699 -3 -9.33398 -3 -14.001c0 -8 8.33301 -23.333 25 -46c12 -16 26.667 -30.667 44 -44l281 -210l281 210c17.333 13.333 32 28 44 44c16.667 22.667 25 38 25 46c0 4.66699 -1 9.33398 -3 14.001l109 -143c-6.66699 4 -13.667 6 -21 6
c-5.33301 0 -19.666 -4 -42.999 -12c-18.667 -6.66699 -37.334 -16.667 -56.001 -30l-258 -193l260 -195c21.333 -14.667 39.666 -24.667 54.999 -30c24 -8.66699 38.667 -13 44 -13c6.66699 0 13.334 2.33301 20.001 7z" />
    <glyph glyph-name="Y" unicode="Y" 
d="M947 629c-6 2.66699 -12.002 4 -18.002 4c-7.33301 0 -22.333 -5.66699 -45 -17c-18.667 -9.33301 -36 -21.666 -52 -36.999l-300 -285v-178c0 -22.667 3 -43.334 9 -62.001c8.66699 -26.667 28.334 -44.667 59.001 -54h-230c30.667 9.33301 50.334 27.333 59.001 54
c6.66699 20.667 10 41.334 10 62.001v181l-297 282c-16 15.333 -33.333 27.666 -52 36.999c-22.667 11.333 -37.667 17 -45 17c-6 0 -12 -1.33301 -18 -4l126 129c-3.33301 -6 -5 -11.667 -5 -17c0 -6.66699 6.33301 -21.667 19 -45c8.66699 -16 21.667 -32.333 39 -49
l281 -270c84 74 177.667 164 281 270c17.333 16.667 30.333 33 39 49c12.667 23.333 19 38.333 19 45c0 5.33301 -1.66699 11 -5 17z" />
    <glyph glyph-name="Z" unicode="Z" horiz-adv-x="930" 
d="M900 720l-621 -636c200.667 -2 342 -2.33301 424 -1c42 0.666992 72 20.667 90 60c12.667 -54.667 39.334 -103 80.001 -145l-823 1l251 241c182.667 177.333 314 309.333 394 396h-458c-46.667 0 -77.334 -21.667 -92.001 -65l-112 148z" />
    <glyph glyph-name="bracketleft" unicode="[" horiz-adv-x="280" 
d="M244 -117h-203v914h203v-61h-118v-781h118v-72z" />
    <glyph glyph-name="backslash" unicode="\" horiz-adv-x="666" 
d="M664 71c-7.33301 -8.66699 -33.335 -26.333 -78.002 -53c-2.66699 0 -6 -2.66699 -10 -8s-8.33301 -7.33301 -13 -6c2 12.667 -5.66699 36.334 -23 71.001l-459 623c-5.33301 6 -11 12 -17 18s-12 9 -18 9c-1.33301 0.666992 -3.66602 0.666992 -6.99902 0
c-4 0 -6.66699 0.333008 -8 1s-1.66602 2.66699 -0.999023 6c10.667 10 27.834 22 51.501 36s39.834 24.333 48.501 31c7.33301 1.33301 12.666 1.66602 15.999 0.999023c-3.33301 -5.33301 -5 -11.333 -5 -18c0 -7.33301 6.66699 -24.666 20 -51.999l479 -639
c6 1.33301 11.667 0.166016 17 -3.50098s7.66602 -9.16699 6.99902 -16.5z" />
    <glyph glyph-name="bracketright" unicode="]" horiz-adv-x="280" 
d="M238 -117h-203v72h118v781h-118v61h203v-914z" />
    <glyph glyph-name="asciicircum" unicode="^" horiz-adv-x="540" 
d="M475 327h-89l-116 240l-117 -240h-88l162 328h86z" />
    <glyph glyph-name="underscore" unicode="_" horiz-adv-x="700" 
d="M700 -72h-700v45h700v-45z" />
    <glyph glyph-name="grave" unicode="`" horiz-adv-x="208" 
d="M176 621l-16.999 -6.00098l-99 99c-14.667 14.667 -22.334 24.667 -23.001 30c-0.666992 2.66699 -1 5.33398 -1 8.00098c0 18.667 13 28 39 28c14 0 26 -10 36 -30z" />
    <glyph glyph-name="a" unicode="a" horiz-adv-x="840" 
d="M831 0l-202.997 -1c12 6 26.667 17.667 44 35c2.66699 6 4 13.333 4 22c0 10 -3.33301 26.667 -10 50c-2.66699 8.66699 -14.667 40.667 -36 96l-423 -1c-24.667 -58 -38.334 -109.333 -41.001 -154c-0.666992 -6 2.33301 -12.667 9 -20
c4.66699 -5.33301 9.66699 -10.666 15 -15.999c0.666992 -1.33301 3.66699 -2.5 9 -3.5s7.66602 -3.5 6.99902 -7.5h-182c38 29.333 71 81.666 99 156.999l128 356c-61.333 -0.666992 -105.333 -0.666992 -132 0c-14 -4 -24.333 -13 -31 -27c-8 9.33301 -20.667 27 -38 53
s-24.333 39 -21 39h781c1.33301 0 -5 -10.333 -19 -31c-16.667 -25.333 -27.334 -42.333 -32.001 -51c-4.66699 4.66699 -13 10.334 -25 17.001c-30 1.33301 -78 1.66602 -144 0.999023l86 -226c34.667 -90.667 66 -164.667 94 -222c20.667 -34 41 -56 61 -66zM615.003 258
c-18.667 47.333 -49.6689 132.001 -93.002 254.001h-204c-1.33301 0 -13.666 -31.667 -36.999 -95c-25.333 -68.667 -43.666 -121.334 -54.999 -158.001c1.33301 -0.666992 131 -1 389 -1z" />
    <glyph glyph-name="b" unicode="b" horiz-adv-x="800" 
d="M770 160c0 -44 -16.1689 -81.6689 -48.502 -113.002s-71.833 -47 -118.5 -47h-576c24.667 8 40.334 22.333 47.001 43c5.33301 16.667 8 33.334 8 50.001v392c0 16 -2.66699 32.333 -8 49c-8 24 -23.667 39 -47 45h548c44.667 0 83 -14.167 115 -42.5
s48 -62.166 48 -101.499c0 -51.333 -24 -91.333 -72 -120c30.667 -16 55.334 -37.333 74.001 -64c20 -28.667 30 -59 30 -91zM676.998 421.998c0 24.667 -10 45.667 -30 63s-44 26 -72 26c-23.333 0 -100 0.333008 -230 1c-130 0 -192.667 0 -188 0v-178h418
c28 0 52 8.66699 72 26s30 38 30 62zM708.998 170.998c0 27.333 -10 50.833 -30 70.5s-44 29.5 -72 29.5c-23.333 0 -105.333 0.333008 -246 1c-140.667 0 -208.667 0 -204 0v-202h451c27.333 0 51 10 71 30s30 43.667 30 71z" />
    <glyph glyph-name="c" unicode="c" horiz-adv-x="785" 
d="M775 219l-16.9971 -17.998c-37.333 -40 -72 -71.667 -104 -95c-52.667 -38.667 -96.334 -65.334 -131.001 -80.001c-44.667 -20 -92.334 -30 -143.001 -30c-98.667 0 -182.5 30 -251.5 90s-103.5 132 -103.5 216s34.5 156 103.5 216s152.833 90 251.5 90
c88 0 164.667 -24.667 230 -74h1c23.333 -19.333 62.666 -48.333 117.999 -87c16 -10 24 -17 24 -21h-217c18 13.333 27 23.333 27 30c0 13.333 -2.66699 23.666 -8 30.999c-2 2.66699 -5 6 -9 10c-50.667 28.667 -106 43 -166 43c-79.333 0 -147 -23.167 -203 -69.5
s-84 -102.5 -84 -168.5s28 -122.167 84 -168.5s123.667 -69.5 203 -69.5c64.667 0 121 15.333 169 46l11 7l28 26.5c9.33301 9 14 18.167 14 27.5c0 4.66699 -1 9.5 -3 14.5s-7.16699 10.5 -15.5 16.5s-13.5 11.667 -15.5 17h207z" />
    <glyph glyph-name="d" unicode="d" horiz-adv-x="816" 
d="M753 402c18.667 -30.667 28.002 -67.001 28.002 -109.001c0 -53.333 -13.667 -103 -41 -149c-58.667 -99.333 -163 -147.666 -313 -144.999c-89.333 -0.666992 -224 -0.666992 -404 0c-2.66699 1.33301 -4 3 -4 5c0 5.33301 3.33301 8 10 8
c29.333 10.667 48 32.667 56 66c1.33301 101.333 1.66602 239.666 0.999023 414.999c-0.666992 27.333 -14 48 -40 62c-14 7.33301 -20.333 13 -19 17h391c74 1.33301 139.333 -11 196 -37c65.333 -29.333 111.666 -73.666 138.999 -132.999zM688.002 377.999
c-18.667 50.667 -55.5 85.333 -110.5 104s-107.5 28 -157.5 28c-53.333 0 -139.333 -0.666992 -258 -2v-444l261 2c112.667 2.66699 192 32 238 88c28 34 42 79 42 135c0 32 -5 61.667 -15 89z" />
    <glyph glyph-name="e" unicode="e" horiz-adv-x="800" 
d="M774 104l-102.998 -104h-636c22.667 6 37.334 19.667 44.001 41c5.33301 16.667 8 33 8 49v392c0 16.667 -2.66699 33.334 -8 50.001c-7.33301 22 -23 36.333 -47 43h572c25.333 0 40.666 -1.66699 45.999 -5c21.333 -18.667 54.333 -50.334 99 -95.001
c-66.667 23.333 -115.334 35 -146.001 35h-436v-176h515c20.667 0 38 6.66699 52 20v-105c-16.667 13.333 -33.334 20 -50.001 20h-518v-196h501c23.333 0 59 10.333 107 31z" />
    <glyph glyph-name="f" unicode="f" horiz-adv-x="776" 
d="M744 475c-66.667 23.333 -115.332 35 -145.999 35h-436v-176h515c21.333 0 38.666 6.66699 51.999 20v-105c-16.667 13.333 -33.334 20 -50.001 20h-518v-176c0 -17.333 2.66699 -34 8 -50c6.66699 -20.667 22.334 -35 47.001 -43h-186c22.667 6 37.334 19.667 44.001 41
c5.33301 16.667 8 33 8 49v392c0 16.667 -2.66699 33.334 -8 50.001c-7.33301 22 -23 36.333 -47 43h572c25.333 0 40.666 -1.66699 45.999 -5c21.333 -18.667 54.333 -50.334 99 -95.001z" />
    <glyph glyph-name="g" unicode="g" horiz-adv-x="784" 
d="M766 260c-24.667 -6 -42.3291 -17.6641 -52.9961 -34.9971c-2.66699 -4.66699 -3.66699 -17 -3 -37c1.33301 -38.667 2 -56.334 2 -53.001c0.666992 -8 5.33398 -15.667 14.001 -23c13.333 -12 20.666 -19 21.999 -21c-16.667 -4 -77.334 -23.333 -182.001 -58
c-74 -24.667 -136.333 -37 -187 -37c-98.667 0 -182.5 30 -251.5 90s-103.5 132 -103.5 216s34.5 156 103.5 216s152.833 90 251.5 90c88 0 164.667 -24.667 230 -74h1c23.333 -19.333 62.666 -48.333 117.999 -87c16 -10 24 -17 24 -21h-217c18 13.333 27 23.333 27 30
c0 13.333 -2.66699 23.666 -8 30.999c-2 2.66699 -5 6 -9 10c-50.667 28.667 -106 43 -166 43c-79.333 0 -147 -23.167 -203 -69.5s-84 -102.5 -84 -168.5s28 -122.167 84 -168.5s123.667 -69.5 203 -69.5c70 0 135.333 12.333 196 37c15.333 6 25.666 10.667 30.999 14
c9.33301 6 16 13.667 20 23c0 -8 0.333008 8.66699 1 50c0 20 -1.83301 32.667 -5.5 38s-13.834 11.666 -30.501 18.999c-18.667 9.33301 -35.667 14 -51 14c-5.33301 0 -10.333 -0.666992 -15 -2v18h241v-15z" />
    <glyph glyph-name="h" unicode="h" horiz-adv-x="840" 
d="M816 0l-184 -0.000976562c24.667 8 40.334 22.333 47.001 43c5.33301 16.667 8 33.334 8 50.001v176h-528v-176c0 -14.667 2.33301 -31.334 7 -50.001c8 -21.333 24 -35.666 48 -42.999h-184c24.667 8 40.334 22.333 47.001 43c5.33301 16.667 8 33.334 8 50.001v392
c0 16 -2.66699 32.333 -8 49c-6.66699 21.333 -22.334 36 -47.001 44h184c-24 -7.33301 -40 -22 -48 -44c-4.66699 -18.667 -7 -35 -7 -49v-161h528v161c0 16 -2.66699 32.333 -8 49c-6.66699 21.333 -22.334 36 -47.001 44h184c-24.667 -8 -40.334 -22.667 -47.001 -44
c-4.66699 -14.667 -7 -31 -7 -49v-392c0 -18.667 2.33301 -35.334 7 -50.001c6.66699 -20.667 22.334 -35 47.001 -43z" />
    <glyph glyph-name="i" unicode="i" horiz-adv-x="220" 
d="M198 0l-184 0.00292969c24 7.33301 40 21.666 48 42.999c5.33301 21.333 8 38 8 50v392c0 11.333 -2.66699 27.666 -8 48.999c-8 22 -24 36.667 -48 44h184c-24.667 -8 -40.334 -22.667 -47.001 -44c-4.66699 -14.667 -7 -31 -7 -49v-392
c0 -18.667 2.33301 -35.334 7 -50.001c6.66699 -20.667 22.334 -35 47.001 -43z" />
    <glyph glyph-name="j" unicode="j" horiz-adv-x="492" 
d="M474 577c-24.667 -8 -40.333 -22.3359 -47 -43.0029c-4.66699 -14 -7 -30.667 -7 -50l1 -330c0 -27.333 -8.16699 -52.666 -24.5 -75.999s-37.166 -41.666 -62.499 -54.999c-30 -15.333 -63.333 -23 -100 -23c-39.333 0 -72.333 9.33301 -99 28
c-18 8.66699 -37.5 27.834 -58.5 57.501s-39.167 49.167 -54.5 58.5l100 69c1.33301 -2.66699 0.666016 -6.16699 -2.00098 -10.5s-4 -7.83301 -4 -10.5c-6 -49.333 17.667 -90.666 71 -123.999c14.667 -6.66699 31 -10 49 -10c28 0 52.667 8 74 24
c17.333 13.333 28 33.333 32 60c1.33301 5.33301 2.33301 29.333 3 72c0.666992 31.333 1 121.333 1 270c0 12 -2.66699 28.667 -8 50c-8.66699 21.333 -24.667 35.666 -48 42.999h184z" />
    <glyph glyph-name="k" unicode="k" horiz-adv-x="870" 
d="M209 0h-184.001c24.667 8 40.334 22.333 47.001 43c5.33301 16.667 8 33.334 8 50.001v392c0 16 -2.66699 32.333 -8 49c-6.66699 21.333 -22.334 36 -47.001 44h184c-24 -8 -39.667 -22.667 -47 -44c-5.33301 -16.667 -8 -33 -8 -49v-392
c0 -16.667 2.66699 -33.334 8 -50.001c6.66699 -20.667 22.334 -35 47.001 -43zM846.999 0l-289 0.00195312c6.66699 4.66699 16 12 28 22c9.33301 5.33301 14 12.666 14 21.999c0 4 -1.33301 7 -4 9c-87.333 57.333 -232.666 137.666 -435.999 240.999v8l338 184
c21.333 12.667 33.666 20.334 36.999 23.001c14 10 22 21.333 24 34c0 12 -10 22.667 -30 32h272c-14.667 -6 -39 -17 -73 -33c-86 -44.667 -227.667 -126 -425 -244l181 -106c134.667 -76.667 238.334 -129.334 311.001 -158.001c15.333 -6 32.666 -17.333 51.999 -34z" />
    <glyph glyph-name="l" unicode="l" horiz-adv-x="744" 
d="M728 0h-702.999c24.667 8 40.334 22.333 47.001 43c5.33301 16.667 8 33.334 8 50.001v392c0 16 -2.66699 32.333 -8 49c-6.66699 21.333 -22.334 36 -47.001 44h184c-24 -8 -39.667 -22.667 -47 -44c-5.33301 -16.667 -8 -33 -8 -49v-407h444
c9.33301 0 18 5.33301 26 16c6 9.33301 12.333 18.666 19 27.999h3c13.333 -30 40.666 -70.667 81.999 -122z" />
    <glyph glyph-name="m" unicode="m" horiz-adv-x="1104" 
d="M1095 0l-247.999 0.000976562c8 4.66699 15 9.33398 21 14.001c15.333 11.333 25.666 22 30.999 32c3.33301 6.66699 5 14 5 22s-2.66699 20.667 -8 38c-26.667 82.667 -74 214.334 -142 395.001c-18 -38.667 -34 -74.667 -48 -108
c-35.333 -80.667 -59.333 -142.334 -72 -185.001c0 -16 5 -30.333 15 -43c4 -5.33301 10.333 -10 19 -14c6 -3.33301 12 -6.33301 18 -9h-261c9.33301 3.33301 21.666 11 36.999 23c10.667 11.333 16 25.666 16 42.999c-20 63.333 -60 161 -120 293
c-33.333 -87.333 -81 -219 -143 -395c-8.66699 -26.667 -9.66699 -46.667 -3 -60c7.33301 -14.667 24.666 -30 51.999 -46h-248c11.333 5.33301 22 10.666 32 15.999c22.667 12 38 22.667 46 32c12 13.333 25 34 39 62c15.333 42.667 40.833 109.5 76.5 200.5
s61.167 157.5 76.5 199.5h-132c-18 0 -33 -6.66699 -45 -20c-4.66699 -4.66699 -8.66699 -12 -12 -22l-62 108h470c-10 -4.66699 -18.667 -9 -26 -13c-18 -10 -28.667 -18.333 -32 -25c-7.33301 -12.667 -7.66602 -30 -0.999023 -52
c11.333 -39.333 28.666 -86.333 51.999 -141l58 -139l59 139c21.333 53.333 38 100.333 50 141c6.66699 22 6.33398 39.333 -0.999023 52c-5.33301 10 -24.666 22.667 -57.999 38h470l-62 -108c-2 4.66699 -6 12 -12 22c-11.333 13.333 -26.333 20 -45 20h-131l152 -400
c13.333 -26.667 26.333 -47 39 -61s38.667 -30.333 78 -49z" />
    <glyph glyph-name="n" unicode="n" horiz-adv-x="832" 
d="M810 0l-184.001 0.00195312c24.667 8 40.334 22.333 47.001 43c5.33301 16.667 8 33.334 8 50.001v19l-521 374v-393c0 -18.667 2.33301 -35.334 7 -50.001c6.66699 -20.667 22.334 -35 47.001 -43h-184c24 7.33301 40 21.666 48 42.999c5.33301 21.333 8 38 8 50v392
c0 11.333 -2.66699 27.666 -8 48.999c-8 22 -24 36.667 -48 44h131l520 -362v269c0 16 -2.66699 32.333 -8 49c-6.66699 21.333 -22.334 36 -47.001 44h184c-24 -7.33301 -40 -22 -48 -44c-4.66699 -18.667 -7 -35 -7 -49v-392c0 -14.667 2.33301 -31.334 7 -50.001
c8 -21.333 24 -35.666 48 -42.999z" />
    <glyph glyph-name="o" unicode="o" horiz-adv-x="752" 
d="M736 302c0 -83.333 -34.667 -155.167 -104 -215.5s-153.333 -90.5 -252 -90.5s-182.5 30 -251.5 90s-103.5 132 -103.5 216s34.5 156 103.5 216s152.833 90 251.5 90s182.667 -30 252 -90s104 -132 104 -216zM668 301.999c0 66 -28.167 122.167 -84.5 168.5
s-124.166 69.5 -203.499 69.5s-147 -23.167 -203 -69.5s-84 -102.5 -84 -168.5s28 -122.167 84 -168.5s123.667 -69.5 203 -69.5s147.166 23.167 203.499 69.5s84.5 102.5 84.5 168.5z" />
    <glyph glyph-name="p" unicode="p" horiz-adv-x="784" 
d="M757 419c0 -44 -16.1689 -81.667 -48.502 -113s-70.833 -47 -115.5 -47h-435l-1 -166c0 -18.667 2.33301 -35.334 7 -50.001c6.66699 -20.667 22.334 -35 47.001 -43h-184c24.667 8 40.334 22.333 47.001 43c5.33301 16.667 8 33.334 8 50.001v398
c0 13.333 -2.66699 28.333 -8 45c-7.33301 22 -23 36.333 -47 43h567c44.667 0 83 -15.667 115 -47s48 -69 48 -113zM694.998 419c0 27.333 -9.83398 50.667 -29.501 70s-43.5 29 -71.5 29h-436c-1.33301 -4.66699 -1.66602 -70 -0.999023 -196h436c28 0 52 9.5 72 28.5
s30 41.833 30 68.5z" />
    <glyph glyph-name="q" unicode="q" horiz-adv-x="776" 
d="M750 38l-104.999 -92.998c0 25.333 -13 57.666 -39 96.999c-0.666992 2 -3.33398 6 -8.00098 12c-64.667 -38.667 -134.334 -58 -209.001 -58c-98.667 0 -182.5 30 -251.5 90s-103.5 132 -103.5 216s34.5 156 103.5 216s152.833 90 251.5 90c98 0 181.833 -30 251.5 -90
s104.5 -132 104.5 -216c0 -77.333 -30.333 -145.333 -91 -204c2 -2.66699 5.33301 -6 10 -10c23.333 -20 36.333 -31 39 -33c14.667 -10.667 30.334 -16.334 47.001 -17.001zM677.001 302.002c0 66 -28.332 122.168 -84.999 168.501s-124.334 69.5 -203.001 69.5
c-79.333 0 -147 -23.167 -203 -69.5s-84 -102.5 -84 -168.5c0 -73.333 34 -134 102 -182c19.333 39.333 52 69.333 98 90c38 17.333 79.667 26 125 26c66 0 126.333 -29.667 181 -89c0.666992 0 0.666992 0.333008 0 1c46 41.333 69 92.666 69 153.999zM550.002 105.003
c-48.667 42 -90 63 -124 63c-73.333 0 -129 -26.667 -167 -80c43.333 -16 86.666 -24 129.999 -24c58.667 0 112.334 13.667 161.001 41z" />
    <glyph glyph-name="r" unicode="r" horiz-adv-x="824" 
d="M808 -1c-9.33301 0 -46.335 -0.333008 -111.002 -1s-113 -1 -145 -1c2 4 7.33301 7 16 9s14 4 16 6c6 4 12.167 8.33301 18.5 13s9.5 9.66699 9.5 15c0 24.667 -55.667 97 -167 217c0.666992 0 -46 0.333008 -140 1h-141v-167c0 -18.667 2.33301 -35.334 7 -50.001
c6.66699 -20.667 22.334 -35 47.001 -43h-184c24.667 8 40.334 22.333 47.001 43c5.33301 16.667 8 33.334 8 50.001v398c0 13.333 -2.66699 28.333 -8 45c-7.33301 22 -23 36.333 -47 43h566c45.333 0 84 -15.667 116 -47s48 -69 48 -113s-16.167 -81.667 -48.5 -113
s-70.833 -47 -115.5 -47h-51l96 -121c38.667 -47.333 67 -78 85 -92c13.333 -10.667 39.333 -25.667 78 -45zM701.998 417c0 27.333 -10 50.668 -30 70.001s-44 29 -72 29h-436c-0.666992 -4.66699 -0.666992 -70 0 -196h224l-39 40c15.333 -6.66699 37 -11.667 65 -15
c40.667 -4.66699 62.5 -7.33398 65.5 -8.00098s6.83301 -3.66699 11.5 -9s7.66699 -8 9 -8h100c28 0 52 9.5 72 28.5s30 41.833 30 68.5z" />
    <glyph glyph-name="s" unicode="s" horiz-adv-x="688" 
d="M660 153c-4 -49.333 -43.333 -92 -118 -128c-54.667 -16.667 -116.334 -25 -185.001 -25c-58 0 -120.667 6 -188 18c-3.33301 0.666992 -10.333 2.66699 -21 6c-8 2 -14.667 3 -20 3c-4.66699 0 -8.83398 -0.5 -12.501 -1.5s-9 -4.66699 -16 -11s-12.167 -9.5 -15.5 -9.5
s-6 2.33301 -8 7c-5.33301 18 -14 44 -26 78l-27 77c2 2 4.33301 3 7 3c88 -76.667 200.667 -115 338 -115c32.667 0 66 2 100 6c68 18 106 46.333 114 85c4 22 -8 43.333 -36 64c-43.333 20 -116.666 40 -219.999 60c-98 18.667 -170 40.334 -216 65.001
c-39.333 21.333 -59 55.666 -59 102.999c0 40.667 25 75 75 103c45.333 25.333 102.666 38 171.999 38c34 0 70.333 -3 109 -9l80 -18c6.66699 -1.33301 14.334 1.66699 23.001 9s15.334 10.333 20.001 9l26 -67c10.667 -26 22 -47.667 34 -65
c0 -3.33301 -0.666992 -5.33301 -2 -6c-0.666992 -0.666992 -2.33398 -0.666992 -5.00098 0l-5 1c-45.333 38.667 -119.666 68.667 -222.999 90c-20 2 -38.667 3 -56 3c-58 0 -105 -10.667 -141 -32c-13.333 -6 -25.333 -18 -36 -36c-7.33301 -15.333 -6 -31 4 -47
c18.667 -18 45.667 -31.667 81 -41l89 -22l166 -32c62.667 -14.667 113.667 -36 153 -64c32.667 -30.667 47.667 -63.667 45 -99z" />
    <glyph glyph-name="t" unicode="t" horiz-adv-x="824" 
d="M798 576l-55.999 -94.999c-10 10.667 -22.667 19.667 -38 27c-38 2.66699 -122.333 4 -253 4l1 -421c0 -18 2.16699 -34 6.5 -48s20.166 -29 47.499 -45h-184c24 7.33301 40 22 48 44c5.33301 21.333 8 37.666 8 48.999v421c-130.667 0 -215 -1.33301 -253 -4
c-15.333 -7.33301 -28 -16.333 -38 -27l-57 95h768z" />
    <glyph glyph-name="u" unicode="u" horiz-adv-x="856" 
d="M836 576c-13.333 -6.66699 -26.6641 -19.333 -39.9971 -38c-8.66699 -12.667 -17.667 -37 -27 -73c-11.333 -61.333 -30 -153.333 -56 -276c-29.333 -127.333 -123 -191 -281 -191c-72.667 0 -128.334 11.333 -167.001 34c-50 29.333 -86 82 -108 158
c-4 13.333 -17.333 74.333 -40 183c-18.667 90.667 -33.334 145.334 -44.001 164.001c-9.33301 16.667 -25.333 29.667 -48 39h198c-8.66699 -3.33301 -17 -6.33301 -25 -9c-10.667 -6 -18.667 -15.5 -24 -28.5s-5.66602 -33.5 -0.999023 -61.5c13.333 -80 22 -129 26 -147
c10 -54 21.667 -101 35 -141c16 -48.667 40.333 -83 73 -103c29.333 -18.667 71 -28 125 -28c110 0 178.667 44 206 132c5.33301 17.333 14.666 59.666 27.999 126.999c14.667 71.333 23.667 121.666 27 150.999c4 36 3.33301 59.333 -2 70
c-4.66699 8.66699 -19.334 21.334 -44.001 38.001h189z" />
    <glyph glyph-name="v" unicode="v" horiz-adv-x="864" 
d="M846 576c-19.333 -8.66699 -45.333 -24.665 -78 -47.998c-9.33301 -10 -22.333 -30.667 -39 -62l-214 -400h131c18 0 33.333 6.66699 46 20c4 4.66699 8 12 12 22l62 -108h-661l61 108c2 -4.66699 6 -12 12 -22c12.667 -13.333 28 -20 46 -20h131
c-34 73.333 -105 206.666 -213 399.999c-8 14.667 -21.333 35.334 -40 62.001c-12 13.333 -37.667 29.333 -77 48h248c-8 -4.66699 -15 -9.33398 -21 -14.001c-15.333 -11.333 -25.333 -21.5 -30 -30.5s-7 -17.833 -7 -26.5c0 -10.667 3 -22.334 9 -35.001
c37.333 -76.667 107.666 -210.667 210.999 -402l211 402c6.66699 12.667 10 24.667 10 36c0 8.66699 -2 16.667 -6 24c-7.33301 14.667 -24.666 30 -51.999 46h248z" />
    <glyph glyph-name="w" unicode="w" horiz-adv-x="1128" 
d="M1109 576c-19.333 -8.66699 -45.333 -24.668 -78 -48.001c-12 -13.333 -25 -34 -39 -62c-15.333 -42 -40.833 -108.5 -76.5 -199.5s-61.167 -157.833 -76.5 -200.5h131c18 0 33.333 6.66699 46 20c4 4.66699 8 12 12 22l62 -108h-470c10 4.66699 18.667 9 26 13
c18 10 28.667 18.333 32 25c6.66699 12.667 6.66699 30 0 52c-14.667 48 -50.667 141.333 -108 280l-58 -139c-22.667 -54.667 -40 -101.667 -52 -141c-6.66699 -21.333 -6.33398 -38.666 0.999023 -51.999c5.33301 -10 24.333 -22.667 57 -38h-469l61 108
c2 -4.66699 6 -12 12 -22c12.667 -13.333 28 -20 46 -20h131l-153 400c-8 21.333 -21 42 -39 62c-12 13.333 -37.667 29.333 -77 48h248c-8 -4.66699 -15 -9.33398 -21 -14.001c-15.333 -11.333 -25.666 -22 -30.999 -32c-3.33301 -6.66699 -5 -14 -5 -22
c0 -7.33301 2.66699 -20 8 -38c26 -82.667 73.333 -214.334 142 -395.001c18 38.667 34 74.667 48 108c35.333 80.667 59.333 142.334 72 185.001c0 16 -5 30.333 -15 43c-2 2.66699 -14.667 10.334 -38 23.001h262c-8.66699 -3.33301 -21.334 -11 -38.001 -23
c-10 -12 -15 -26.333 -15 -43c19.333 -63.333 59.333 -161 120 -293c33.333 87.333 81 219 143 395c8.66699 26.667 9.66699 46.667 3 60c-7.33301 14.667 -24.666 30 -51.999 46h248z" />
    <glyph glyph-name="x" unicode="x" horiz-adv-x="784" 
d="M754 109l-87.0039 -114.997c1.33301 4 2 7.66699 2 11c0 5.33301 -6.33301 17.666 -19 36.999c-7.33301 8.66699 -19 20.667 -35 36c-3.33301 3.33301 -78.666 59.666 -225.999 168.999l-227 -169c-8 -6 -19.667 -18 -35 -36c-12.667 -19.333 -19 -31.666 -19 -36.999
c0 -3.33301 0.666992 -7 2 -11l-87 115c5.33301 -3.33301 10.666 -5 15.999 -5c4.66699 0 16.334 3.33301 35.001 10c14.667 5.33301 29.334 13.333 44.001 24l208 156l-206 154c-13.333 10 -28.666 18.167 -45.999 24.5s-28.666 9.5 -33.999 9.5
s-10.666 -1.66699 -15.999 -5l87 114c-1.33301 -3.33301 -2 -6.66602 -2 -9.99902c0 -6.66699 6.66699 -19.334 20 -38.001c9.33301 -12.667 21 -24.334 35 -35.001l225 -168l225 168c10 7.33301 21.667 19 35 35c13.333 19.333 20 31.666 20 36.999c0 3.33301 -1 7 -3 11
l88 -114c-5.33301 3.33301 -11 5 -17 5c-5.33301 0 -17 -3.33301 -35 -10c-14 -5.33301 -28.667 -13.333 -44 -24c-2 -2 -71 -53.333 -207 -154l208 -156c18 -12 32.667 -20 44 -24c19.333 -6.66699 31 -10 35 -10c5.33301 0 10.666 1.66699 15.999 5z" />
    <glyph glyph-name="y" unicode="y" horiz-adv-x="784" 
d="M758 503c-4.66699 2.66699 -9.33594 3.99902 -14.0029 3.99902s-17 -4.66699 -37 -14c-17.333 -10 -31 -20 -41 -30c-64 -64 -144 -140 -240 -228v-142c0 -18.667 2.33301 -35.334 7 -50.001c6.66699 -20.667 22.334 -35 47.001 -43h-184
c24.667 8 40.334 22.333 47.001 43c5.33301 16.667 8 33.334 8 50.001v145l-237 225c-11.333 10.667 -25.333 20.667 -42 30c-20 9.33301 -32.333 14 -37 14c-4 0 -8.33301 -1.33301 -13 -4l100 103c-2 -4.66699 -3 -9 -3 -13c0 -5.33301 5 -17.333 15 -36
c6.66699 -12.667 17 -25.667 31 -39l225 -216c66.667 59.333 141.334 131.333 224.001 216c15.333 14.667 26 27.667 32 39c10 18 15 29.667 15 35c0 4.66699 -1.33301 9.33398 -4 14.001z" />
    <glyph glyph-name="z" unicode="z" horiz-adv-x="744" 
d="M720 576l-497 -509l339 -1c34.667 0.666992 58.667 16.667 72 48c10.667 -43.333 32 -82 64 -116l-658 1l200 192c146.667 142.667 252 248.667 316 318h-366c-38 0 -62.667 -17.333 -74 -52l-90 118z" />
    <glyph glyph-name="braceleft" unicode="{" horiz-adv-x="253" 
d="M220 -126c-65.333 -2.66699 -109.666 10.6689 -132.999 40.002c-16 21.333 -24 56.666 -24 105.999v209c0 31.333 -16.667 62.333 -50 93c0 -0.666992 8.33301 11.166 25 35.499s25 48.833 25 73.5v209c0 49.333 8 84.333 24 105c23.333 29.333 67.666 43 132.999 41
c1.33301 0 2 -11.333 2 -34c-0.666992 -22.667 -2 -34 -4 -34c-33.333 0 -55.333 -7 -66 -21c-8.66699 -10.667 -13 -30.667 -13 -60v-206c0 -20 -4 -38.667 -12 -56c-5.33301 -12 -12.333 -22.667 -21 -32s-13 -13.666 -13 -12.999c0 3.33301 7.66699 -6.83398 23 -30.501
s23 -47.167 23 -70.5v-209c0 -29.333 4.33301 -49.333 13 -60c10.667 -13.333 32.667 -20 66 -20c2 0 3.33301 -11 4 -33c0 -22 -0.666992 -33 -2 -33z" />
    <glyph glyph-name="bar" unicode="|" horiz-adv-x="130" 
d="M100 -60h-59v842h59v-842z" />
    <glyph glyph-name="braceright" unicode="}" horiz-adv-x="253" 
d="M241 322c-33.333 -30.667 -50 -61.6699 -50 -93.0029v-209c0 -49.333 -8 -84.666 -24 -105.999c-23.333 -29.333 -67.666 -42.666 -132.999 -39.999c-1.33301 0 -2 11 -2 33c0.666992 22 2 33 4 33c33.333 0 55.333 6.66699 66 20c8.66699 10.667 13 30.667 13 60v209
c0 23.333 7.66699 46.833 23 70.5s23 33.834 23 30.501c0 -0.666992 -4.33301 3.66602 -13 12.999s-15.667 20 -21 32c-8 17.333 -12 36 -12 56v206c0 29.333 -4.33301 49.333 -13 60c-10.667 14 -32.667 21 -66 21c-2 0 -3.33301 11.333 -4 34c0 22.667 0.666992 34 2 34
c65.333 2 109.666 -11.667 132.999 -41c16 -20.667 24 -55.667 24 -105v-209c0 -24.667 8.33301 -49.167 25 -73.5s25 -36.166 25 -35.499z" />
    <glyph glyph-name="asciitilde" unicode="~" horiz-adv-x="450" 
d="M403 404c0 -101.333 -30.001 -152 -90.001 -152c-25.333 0 -51.333 8.33301 -78 25l-35 22c-22 14 -39.333 21 -52 21c-28.667 0 -42 -25.333 -40 -76h-61c0 50 9.66699 88.667 29 116c18 24.667 40.667 37 68 37c23.333 0 45.333 -6.66699 66 -20l39 -25
c24.667 -16 43.334 -24 56.001 -24c26.667 0 39 25.333 37 76h61z" />
    <glyph glyph-name="uni00A0" unicode="&#xa0;" horiz-adv-x="400" 
 />
    <glyph glyph-name="exclamdown" unicode="&#xa1;" horiz-adv-x="280" 
d="M209 651c0 -19.333 -7 -36 -21 -50s-30.667 -21 -50 -21s-36 7 -50 21s-21 30.667 -21 50s7 35.833 21 49.5s30.667 20.5 50 20.5s36 -6.83301 50 -20.5s21 -30.167 21 -49.5zM258 -6h-230.002c30.667 9.33301 50.334 27.333 59.001 54
c6.66699 20.667 10 41.334 10 62.001v439h93v-439c0 -22.667 3 -43.334 9 -62.001c8.66699 -26.667 28.334 -44.667 59.001 -54z" />
    <glyph glyph-name="cent" unicode="&#xa2;" horiz-adv-x="800" 
d="M767 290c-4.66699 -4.66699 -10.999 -11.333 -18.999 -20c-26.667 -29.333 -61.334 -61 -104.001 -95c-63.333 -66 -143.666 -102.333 -240.999 -109v-73h-64v73c-92 6.66699 -169.167 39.5 -231.5 98.5s-93.5 128.167 -93.5 207.5s31.167 148.5 93.5 207.5
s139.5 91.833 231.5 98.5v52h64v-52c70.667 -6 136.667 -30.333 198 -73c24 -18.667 63.333 -47.667 118 -87c16.667 -10.667 25 -18.334 25 -23.001h-221c19.333 14 29 24.333 29 31c0 13.333 -2.66699 23.666 -8 30.999l-9 9c-40.667 23.333 -84.667 37.333 -132 42v-472
c48.667 4.66699 93.667 19.334 135 44.001l11 8c28 20.667 42 38 42 52c0 5.33301 -1 10.333 -3 15s-7.33301 10.334 -16 17.001s-14.334 12.667 -17.001 18h212zM339.001 136.001v472.001c-72 -6.66699 -132.5 -32.167 -181.5 -76.5s-73.5 -97.5 -73.5 -159.5
c0 -61.333 24.5 -114.333 73.5 -159s109.5 -70.334 181.5 -77.001z" />
    <glyph glyph-name="sterling" unicode="&#xa3;" horiz-adv-x="500" 
d="M467 43c-14 -16 -33.6699 -30.333 -59.0029 -43c-28 -14 -55.333 -21.333 -82 -22c-18 -0.666992 -39.667 6.5 -65 21.5s-46.666 22.167 -63.999 21.5c-39.333 -0.666992 -64.666 -4 -75.999 -10l-44 -34l-47 47c22.667 28 46.334 47 71.001 57
c11.333 3.33301 22.333 6.33301 33 9c48.667 48 73 96.333 73 145c0 2 -33.667 2.33301 -101 1v42h100c-4.66699 18.667 -19 44.667 -43 78c-30.667 43.333 -50.334 73.333 -59.001 90c-20 36.667 -30 72.667 -30 108c0 51.333 17.667 91.666 53 120.999
c32 26.667 72.667 40 122 40c124 0 189.667 -59 197 -177l-75 21c-2.66699 55.333 -43.334 83 -122.001 83c-70 0 -103 -34.333 -99 -103c2 -36 21 -80.667 57 -134c42.667 -62 67.334 -104 74.001 -126h112v-43c-71.333 1.33301 -107.666 1.33301 -108.999 0
c1.33301 -28.667 -6 -60.334 -22 -95.001c-5.33301 -11.333 -13.666 -23.666 -24.999 -36.999c-8 -10 -11.333 -15 -10 -15c19.333 -2.66699 37 -9.66699 53 -21s29.333 -17 40 -17c39.333 0.666992 70.333 12.334 93 35.001c1.33301 0.666992 10.666 -5.5 27.999 -18.5
s26 -21.167 26 -24.5z" />
    <glyph glyph-name="yen" unicode="&#xa5;" 
d="M947 629c-6 2.66699 -12.002 4.00098 -18.002 4.00098c-7.33301 0 -22.333 -5.66699 -45 -17c-18.667 -9.33301 -36 -21.666 -52 -36.999l-187 -179h69v-56h-128l-54 -50v-26h182v-56h-182v-96c0 -22.667 3 -43.334 9 -62.001c8.66699 -26.667 28.334 -44.667 59.001 -54
h-230c30.667 9.33301 50.334 27.333 59.001 54c6.66699 20.667 10 41.334 10 62.001v96h-173v56h173v29l-50 47h-123v56h64l-188 179c-16 15.333 -33.333 27.666 -52 36.999c-22.667 11.333 -37.667 17 -45 17c-6 0 -12 -1.33301 -18 -4l126 129
c-3.33301 -6 -5 -11.667 -5 -17c0 -6.66699 6.33301 -21.667 19 -45c8.66699 -16 21.667 -32.333 39 -49l256 -247h50c80 71.333 165.333 153.666 256 246.999c17.333 16.667 30.333 33 39 49c12.667 23.333 19 38.333 19 45c0 5.33301 -1.66699 11 -5 17z" />
    <glyph glyph-name="brokenbar" unicode="&#xa6;" horiz-adv-x="500" 
d="M475 79h-450v450h450v-450zM436 119v371h-371v-371h371z" />
    <glyph glyph-name="dieresis" unicode="&#xa8;" horiz-adv-x="360" 
d="M324 664c0 -13.333 -5.16699 -24.833 -15.5 -34.5s-21.5 -14.5 -33.5 -14.5c-11.333 0 -22.333 5 -33 15s-16 21.333 -16 34c0 13.333 5.16699 24.833 15.5 34.5s21.5 14.5 33.5 14.5s23.167 -4.83301 33.5 -14.5s15.5 -21.167 15.5 -34.5zM149 664
c0 -13.333 -5.16699 -24.833 -15.5 -34.5s-21.5 -14.5 -33.5 -14.5c-11.333 0 -22.333 5 -33 15s-16 21.333 -16 34c0 13.333 5.16699 24.833 15.5 34.5s21.5 14.5 33.5 14.5s23.167 -4.83301 33.5 -14.5s15.5 -21.167 15.5 -34.5z" />
    <glyph glyph-name="copyright" unicode="&#xa9;" horiz-adv-x="784" 
d="M724 413c1.33301 -94.667 -31 -175.335 -97 -242.002s-146.333 -100.667 -241 -102c-93.333 -1.33301 -174.166 31 -242.499 97s-102.833 146.333 -103.5 241c-0.666992 94 32 174.667 98 242s146 101.333 240 102c94.667 0.666992 175.667 -32.166 243 -98.499
s101.666 -146.166 102.999 -239.499zM686 412.999c-0.666992 84 -30.998 155.5 -90.998 214.5s-132.333 88.167 -217 87.5c-82.667 -0.666992 -153.834 -31.334 -213.501 -92.001s-89.167 -132.667 -88.5 -216c1.33301 -84 32.333 -155.5 93 -214.5s133 -88.167 217 -87.5
s155.167 30.834 213.5 90.501s87.166 132.167 86.499 217.5zM634.002 341.999l-7.00098 -10.0029c-12.667 -16.667 -35.334 -41.667 -68.001 -75c-34.667 -29.333 -62.334 -49.666 -83.001 -60.999c-30 -16.667 -61 -25 -93 -25c-63.333 0 -117.333 23.5 -162 70.5
s-67 103.5 -67 169.5s22.167 122.333 66.5 169s98.5 70 162.5 70c56.667 0 106.334 -19.333 149.001 -58h1c10 -8 22.5 -19.5 37.5 -34.5s27.5 -26.5 37.5 -34.5c8 -4 13 -7.33301 15 -10h-130c8 7.33301 12 14 12 20c0 10 -2 19 -6 27
c-3.33301 3.33301 -5.66602 6 -6.99902 8c-32.667 23.333 -69 35 -109 35c-52.667 0 -97.5 -18.667 -134.5 -56s-55.5 -82.666 -55.5 -135.999s18.5 -98.666 55.5 -135.999s81.833 -56 134.5 -56c46 0 83 12 111 36l7 6c19.333 20.667 29 36 29 46
c0 4.66699 -0.666992 9 -2 13s-4.66602 8 -9.99902 12s-8.33301 7.33301 -9 10h125z" />
    <glyph glyph-name="ordfeminine" unicode="&#xaa;" horiz-adv-x="768" 
d="M745 302c0 -83.333 -34.833 -155.167 -104.5 -215.5s-153.5 -90.5 -251.5 -90.5c-98.667 0 -182.5 30 -251.5 90s-103.5 132 -103.5 216s34.5 156 103.5 216s152.833 90 251.5 90c98 0 181.833 -30 251.5 -90s104.5 -132 104.5 -216zM677 301.999
c0 66 -28.333 122.167 -85 168.5s-124.334 69.5 -203.001 69.5c-79.333 0 -147 -23.167 -203 -69.5s-84 -102.5 -84 -168.5s28 -122.167 84 -168.5s123.667 -69.5 203 -69.5c78.667 0 146.334 23.167 203.001 69.5s85 102.5 85 168.5zM448 306.999
c0 -15.333 -5.66699 -28.666 -17 -39.999s-24.666 -17 -39.999 -17s-28.666 5.66699 -39.999 17s-17 24.666 -17 39.999s5.66699 28.666 17 39.999s24.666 17 39.999 17s28.666 -5.66699 39.999 -17s17 -24.666 17 -39.999z" />
    <glyph glyph-name="minus" unicode="&#xad;" horiz-adv-x="470" 
d="M432 326h-388v56h388v-56z" />
    <glyph glyph-name="minus" unicode="&#x2212;" horiz-adv-x="470" 
d="M432 326h-388v56h388v-56z" />
    <glyph glyph-name="registered" unicode="&#xae;" horiz-adv-x="784" 
d="M724 413c1.33301 -94.667 -31 -175.335 -97 -242.002s-146.333 -100.667 -241 -102c-93.333 -1.33301 -174.166 31 -242.499 97s-102.833 146.333 -103.5 241c-0.666992 94 32 174.667 98 242s146 101.333 240 102c94.667 0.666992 175.667 -32.166 243 -98.499
s101.666 -146.166 102.999 -239.499zM686 412.999c-0.666992 84 -30.998 155.5 -90.998 214.5s-132.333 88.167 -217 87.5c-82.667 -0.666992 -153.834 -31.334 -213.501 -92.001s-89.167 -132.667 -88.5 -216c1.33301 -84 32.333 -155.5 93 -214.5s133 -88.167 217 -87.5
s155.167 30.834 213.5 90.501s87.166 132.167 86.499 217.5zM621.002 239.999l-148 -0.000976562c4.66699 1.33301 10.667 4.33301 18 9c10 10 14.667 16.667 14 20c0 14 -31.333 58 -94 132h-163v-103c0 -12 1.33301 -22.333 4 -31c4 -14 13 -23 27 -27h-106
c14 4 23 13 27 27c3.33301 10.667 5 21 5 31v247c0 8 -1.83301 17.667 -5.5 29s-12.5 20 -26.5 26h328c26 0 48.167 -9.83301 66.5 -29.5s27.5 -43.167 27.5 -70.5s-9.33301 -50.666 -28 -69.999s-41 -29 -67 -29h-29c52 -72 87.667 -115.667 107 -131
c8 -6.66699 22.333 -16.667 43 -30zM560.002 499.998c0 16.667 -5.83301 30.998 -17.5 42.998s-25.5 18 -41.5 18c-20.667 0 -105 0.333008 -253 1c-0.666992 -4 -0.666992 -44.667 0 -122h129l-22 25c28 -11.333 57.333 -19.666 88 -24.999h57c16 0 30 5.83301 42 17.5
s18 25.834 18 42.501z" />
    <glyph glyph-name="uni02C9" unicode="&#xaf;" horiz-adv-x="300" 
d="M270 659h-232v55h232v-55z" />
    <glyph glyph-name="uni02C9" unicode="&#x2c9;" horiz-adv-x="300" 
d="M270 659h-232v55h232v-55z" />
    <glyph glyph-name="degree" unicode="&#xb0;" horiz-adv-x="270" 
d="M256 660c0 -31.333 -11.167 -58.166 -33.5 -80.499s-49.166 -33.5 -80.499 -33.5s-58.166 11.167 -80.499 33.5s-33.5 49.166 -33.5 80.499s11.167 58.166 33.5 80.499s49.166 33.5 80.499 33.5s58.166 -11.167 80.499 -33.5s33.5 -49.166 33.5 -80.499zM204 660
c0 16.667 -6.16699 31.167 -18.5 43.5s-26.833 18.5 -43.5 18.5c-16 0 -30.167 -6.16699 -42.5 -18.5s-18.5 -26.833 -18.5 -43.5s6.16699 -31 18.5 -43s26.5 -18 42.5 -18c16.667 0 31.167 6 43.5 18s18.5 26.333 18.5 43z" />
    <glyph glyph-name="acute" unicode="&#xb4;" horiz-adv-x="208" 
d="M147 714l-100 -98.999l-16 5l65 130c10 19.333 21.667 29 35 29c26 0 39 -9 39 -27c0 -2.66699 -0.333008 -5.33398 -1 -8.00098s-8 -12.667 -22 -30z" />
    <glyph glyph-name="paragraph" unicode="&#xb6;" horiz-adv-x="450" 
d="M424 695l-63 -0.000976562v-707h-37v707h-80v-707h-37v372c-58 1.33301 -102.667 17.833 -134 49.5s-47 76.5 -47 134.5c0 62.667 20.333 110.334 61 143.001c32.667 26.667 73 40 121 40h216v-32z" />
    <glyph glyph-name="uni2219" unicode="&#xb7;" horiz-adv-x="900" 
d="M507 425c0 -20.667 -5.5 -38.334 -16.5 -53.001s-24.167 -22 -39.5 -22s-28.5 7.33301 -39.5 22s-16.5 32.334 -16.5 53.001s5.5 38.334 16.5 53.001s24.167 22 39.5 22s28.5 -7.33301 39.5 -22s16.5 -32.334 16.5 -53.001z" />
    <glyph glyph-name="uni2219" unicode="&#x2219;" horiz-adv-x="900" 
d="M507 425c0 -20.667 -5.5 -38.334 -16.5 -53.001s-24.167 -22 -39.5 -22s-28.5 7.33301 -39.5 22s-16.5 32.334 -16.5 53.001s5.5 38.334 16.5 53.001s24.167 22 39.5 22s28.5 -7.33301 39.5 -22s16.5 -32.334 16.5 -53.001z" />
    <glyph glyph-name="cedilla" unicode="&#xb8;" horiz-adv-x="200" 
d="M186 -99c0 -22 -10.668 -38.666 -32.001 -49.999c-18 -9.33301 -39 -14 -63 -14c-27.333 0 -55.666 6 -84.999 18c-2.66699 1.33301 -4 4.33301 -4 9c0 12 3.33301 16.333 10 13c20.667 -10 42.667 -15 66 -15c37.333 0 56 10.667 56 32c0 10.667 -4 20 -12 28
s-18.667 12 -32 12c-6.66699 0 -18.667 -1.33301 -36 -4l23 66h25l-13 -33c28 1.33301 50.333 -2.33398 67 -11.001c20 -10 30 -27 30 -51z" />
    <glyph glyph-name="ordmasculine" unicode="&#xba;" horiz-adv-x="960" 
d="M931 378c0 -104.667 -43.498 -194.667 -130.498 -270s-191.833 -113 -314.5 -113s-227.334 37.667 -314.001 113s-130 165.333 -130 270s43.167 194.5 129.5 269.5s191.166 112.5 314.499 112.5s228.333 -37.5 315 -112.5s130 -164.833 130 -269.5zM846.002 378
c0 82.667 -35.333 152.833 -106 210.5s-155.334 86.5 -254.001 86.5s-183.167 -29 -253.5 -87s-105.5 -128 -105.5 -210c0 -82.667 35.167 -153 105.5 -211s154.833 -87 253.5 -87s183.334 29 254.001 87s106 128.333 106 211zM560.002 383.999c0 -19.333 -7 -36 -21 -50
s-30.667 -21 -50 -21s-36 7 -50 21s-21 30.667 -21 50s7 36 21 50s30.667 21 50 21s36 -7 50 -21s21 -30.667 21 -50z" />
    <glyph glyph-name="questiondown" unicode="&#xbf;" horiz-adv-x="495" 
d="M306 599c-28.667 2.66699 -48.667 10.499 -60 23.499s-15.333 30.5 -12 52.5c2.66699 16.667 13.667 29.334 33 38.001c10.667 6 22.334 9 35.001 9c15.333 0 28.666 -4.33301 39.999 -13c15.333 -12 23 -27.333 23 -46c0 -34.667 -19.667 -56 -59 -64zM469 169.999
c-2 -32 -15.3369 -63.002 -40.0039 -93.002c-22.667 -27.333 -49.667 -47.333 -81 -60c-28 -11.333 -57.333 -17 -88 -17c-55.333 0 -107 16 -155 48c-55.333 36.667 -83 93.667 -83 171c0 57.333 18 104.333 54 141c50 51.333 107.667 81 173 89
c0 0.666992 1 1.83398 3 3.50098s3 3.5 3 5.5c-2 15.333 -2.66699 36 -2 62c0 30 -0.333008 50.667 -1 62c0.666992 0.666992 1.66699 1.33398 3 2.00098c36 -5.33301 64 -5.33301 84 0c2 -14.667 2.33301 -36 1 -64c-1.33301 -31.333 -1.66602 -53 -0.999023 -65
c6 -34 18.667 -58.667 38 -74c-4 -2 -10.667 -2.33301 -20 -1c-10 1.33301 -17.333 1.66602 -22 0.999023c-81.333 -3.33301 -145.666 -30.666 -192.999 -81.999c-20 -29.333 -30 -60 -30 -92c0 -18.667 4 -35.334 12 -50.001c29.333 -53.333 77 -78.666 143 -75.999
c48.667 2 83.334 20 104.001 54c9.33301 15.333 14 30.333 14 45c0 28.667 -13 45 -39 49c-8.66699 1.33301 -18.667 0.333008 -30 -3c-13.333 -4.66699 -21.666 -7 -24.999 -7c9.33301 9.33301 24.333 19 45 29c26.667 12.667 43.667 21.667 51 27c16 11.333 41 28 75 50
c0.666992 -4 -1.33301 -9 -6 -15s-7.33398 -10.333 -8.00098 -13c0 -14 3.83301 -34.667 11.5 -62s10.834 -49 9.50098 -65z" />
    <glyph glyph-name="Agrave" unicode="&#xc0;" horiz-adv-x="1050" 
d="M558 777l-99 99c-14 14 -21.667 24 -23 30c-0.666992 2 -1 4.66699 -1 8c0 18.667 13 28 39 28c14 0 26 -10 36 -30l65 -129zM769 323l-56.502 156.5l-58.5 159.5h-56c-21.333 0 -46.666 0.333008 -75.999 1h-124c-2 0 -17.667 -39.667 -47 -119l-40 -113
c-11.333 -32.667 -20.666 -60.667 -27.999 -84c0.666992 -0.666992 162.667 -1 486 -1zM784.998 -1c4.66699 2.66699 9.00293 5.00098 13.0029 7.00098s7.66699 4.33301 11 7c16.667 11.333 27 21 31 29s6 17.333 6 28c0 10 -4.66699 31 -14 63
c-3.33301 10.667 -8.66602 25.667 -15.999 45l-28 74l-529 -1c-15.333 -36 -27.5 -69.833 -36.5 -101.5s-14.167 -61.834 -15.5 -90.501c-0.666992 -8 2.66602 -15.833 9.99902 -23.5l21 -21.5c1.33301 -1.33301 5.16602 -2.83301 11.499 -4.5
s9.16602 -4.83398 8.49902 -9.50098h-228c48.667 38 90 103.333 124 196l68 185.5l92 259.5c-77.333 -1.33301 -132.333 -1.33301 -165 0c-16.667 -4.66699 -29.667 -16 -39 -34c-11.333 12 -27.333 34 -48 66c-20.667 32.667 -29.334 49 -26.001 49h977
c1.33301 0 -6.66699 -12.667 -24 -38l-25 -39c-6.66699 -10.667 -11.667 -19 -15 -25c-5.33301 4 -16 11 -32 21c-18.667 1.33301 -42.667 2 -72 2s-65 -0.333008 -107 -1l53 -141l54 -141c42.667 -111.333 81.667 -203.666 117 -276.999c27.333 -44 53 -71.667 77 -83z" />
    <glyph glyph-name="Aacute" unicode="&#xc1;" horiz-adv-x="1050" 
d="M457 777l-16.001 5l65 130c10 19.333 21.667 29 35 29c26 0 39 -9 39 -27c0 -3.33301 -0.333008 -6 -1 -8c-1.33301 -4 -8.66602 -14 -21.999 -30zM768.999 323l-56.502 156.5l-58.5 159.5h-56c-21.333 0 -46.666 0.333008 -75.999 1h-124c-2 0 -17.667 -39.667 -47 -119
l-40 -113c-11.333 -32.667 -20.666 -60.667 -27.999 -84c0.666992 -0.666992 162.667 -1 486 -1zM784.997 -1c4.66699 2.66699 9.00293 5.00098 13.0029 7.00098s7.66699 4.33301 11 7c16.667 11.333 27 21 31 29s6 17.333 6 28c0 10 -4.66699 31 -14 63
c-3.33301 10.667 -8.66602 25.667 -15.999 45l-28 74l-529 -1c-15.333 -36 -27.5 -69.833 -36.5 -101.5s-14.167 -61.834 -15.5 -90.501c-0.666992 -8 2.66602 -15.833 9.99902 -23.5l21 -21.5c1.33301 -1.33301 5.16602 -2.83301 11.499 -4.5
s9.16602 -4.83398 8.49902 -9.50098h-228c48.667 38 90 103.333 124 196l68 185.5l92 259.5c-77.333 -1.33301 -132.333 -1.33301 -165 0c-16.667 -4.66699 -29.667 -16 -39 -34c-11.333 12 -27.333 34 -48 66c-20.667 32.667 -29.334 49 -26.001 49h977
c1.33301 0 -6.66699 -12.667 -24 -38l-25 -39c-6.66699 -10.667 -11.667 -19 -15 -25c-5.33301 4 -16 11 -32 21c-18.667 1.33301 -42.667 2 -72 2s-65 -0.333008 -107 -1l53 -141l54 -141c42.667 -111.333 81.667 -203.666 117 -276.999c27.333 -44 53 -71.667 77 -83z" />
    <glyph glyph-name="Acircumflex" unicode="&#xc2;" horiz-adv-x="1050" 
d="M602 765l-85 100l-86 -100h-41l93 137h66l95 -137h-42zM769 323l-56.502 156.5l-58.5 159.5h-56c-21.333 0 -46.666 0.333008 -75.999 1h-124c-2 0 -17.667 -39.667 -47 -119l-40 -113c-11.333 -32.667 -20.666 -60.667 -27.999 -84
c0.666992 -0.666992 162.667 -1 486 -1zM784.998 -1c4.66699 2.66699 9.00293 5.00098 13.0029 7.00098s7.66699 4.33301 11 7c16.667 11.333 27 21 31 29s6 17.333 6 28c0 10 -4.66699 31 -14 63c-3.33301 10.667 -8.66602 25.667 -15.999 45l-28 74l-529 -1
c-15.333 -36 -27.5 -69.833 -36.5 -101.5s-14.167 -61.834 -15.5 -90.501c-0.666992 -8 2.66602 -15.833 9.99902 -23.5l21 -21.5c1.33301 -1.33301 5.16602 -2.83301 11.499 -4.5s9.16602 -4.83398 8.49902 -9.50098h-228c48.667 38 90 103.333 124 196l68 185.5l92 259.5
c-77.333 -1.33301 -132.333 -1.33301 -165 0c-16.667 -4.66699 -29.667 -16 -39 -34c-11.333 12 -27.333 34 -48 66c-20.667 32.667 -29.334 49 -26.001 49h977c1.33301 0 -6.66699 -12.667 -24 -38l-25 -39c-6.66699 -10.667 -11.667 -19 -15 -25c-5.33301 4 -16 11 -32 21
c-18.667 1.33301 -42.667 2 -72 2s-65 -0.333008 -107 -1l53 -141l54 -141c42.667 -111.333 81.667 -203.666 117 -276.999c27.333 -44 53 -71.667 77 -83z" />
    <glyph glyph-name="Atilde" unicode="&#xc3;" horiz-adv-x="1050" 
d="M649 863c-3.33301 -23.333 -12.333 -42.333 -27 -57c-17.333 -16 -36.666 -24 -57.999 -24c-19.333 0 -36 3.33301 -50 10c-20 6.66699 -37 10 -51 10c-18 0 -30.667 -8.66699 -38 -26l-34 -3c2 20.667 10.667 39 26 55s33 24 53 24c12 0 31 -3.66699 57 -11
c24 -6.66699 41.667 -10 53 -10c13.333 0 24.666 10.667 33.999 32h35v0zM769 323l-56.502 156.5l-58.5 159.5h-56c-21.333 0 -46.666 0.333008 -75.999 1h-124c-2 0 -17.667 -39.667 -47 -119l-40 -113c-11.333 -32.667 -20.666 -60.667 -27.999 -84
c0.666992 -0.666992 162.667 -1 486 -1zM784.998 -1c4.66699 2.66699 9.00293 5.00098 13.0029 7.00098s7.66699 4.33301 11 7c16.667 11.333 27 21 31 29s6 17.333 6 28c0 10 -4.66699 31 -14 63c-3.33301 10.667 -8.66602 25.667 -15.999 45l-28 74l-529 -1
c-15.333 -36 -27.5 -69.833 -36.5 -101.5s-14.167 -61.834 -15.5 -90.501c-0.666992 -8 2.66602 -15.833 9.99902 -23.5l21 -21.5c1.33301 -1.33301 5.16602 -2.83301 11.499 -4.5s9.16602 -4.83398 8.49902 -9.50098h-228c48.667 38 90 103.333 124 196l68 185.5l92 259.5
c-77.333 -1.33301 -132.333 -1.33301 -165 0c-16.667 -4.66699 -29.667 -16 -39 -34c-11.333 12 -27.333 34 -48 66c-20.667 32.667 -29.334 49 -26.001 49h977c1.33301 0 -6.66699 -12.667 -24 -38l-25 -39c-6.66699 -10.667 -11.667 -19 -15 -25c-5.33301 4 -16 11 -32 21
c-18.667 1.33301 -42.667 2 -72 2s-65 -0.333008 -107 -1l53 -141l54 -141c42.667 -111.333 81.667 -203.666 117 -276.999c27.333 -44 53 -71.667 77 -83z" />
    <glyph glyph-name="Adieresis" unicode="&#xc4;" horiz-adv-x="1050" 
d="M478 818c0 -13.333 -5.16699 -24.833 -15.5 -34.5s-21.5 -14.5 -33.5 -14.5c-11.333 0 -22.333 5 -33 15s-16 21.333 -16 34c0 13.333 5.16699 24.833 15.5 34.5s21.5 14.5 33.5 14.5s23.167 -4.83301 33.5 -14.5s15.5 -21.167 15.5 -34.5zM653 818
c0 -13.333 -5.16699 -24.833 -15.5 -34.5s-21.5 -14.5 -33.5 -14.5c-11.333 0 -22.333 5 -33 15s-16 21.333 -16 34c0 13.333 5.16699 24.833 15.5 34.5s21.5 14.5 33.5 14.5s23.167 -4.83301 33.5 -14.5s15.5 -21.167 15.5 -34.5zM769 323l-56.502 156.5l-58.5 159.5h-56
c-21.333 0 -46.666 0.333008 -75.999 1h-124c-2 0 -17.667 -39.667 -47 -119l-40 -113c-11.333 -32.667 -20.666 -60.667 -27.999 -84c0.666992 -0.666992 162.667 -1 486 -1zM784.998 -1c4.66699 2.66699 9.00293 5.00098 13.0029 7.00098s7.66699 4.33301 11 7
c16.667 11.333 27 21 31 29s6 17.333 6 28c0 10 -4.66699 31 -14 63c-3.33301 10.667 -8.66602 25.667 -15.999 45l-28 74l-529 -1c-15.333 -36 -27.5 -69.833 -36.5 -101.5s-14.167 -61.834 -15.5 -90.501c-0.666992 -8 2.66602 -15.833 9.99902 -23.5l21 -21.5
c1.33301 -1.33301 5.16602 -2.83301 11.499 -4.5s9.16602 -4.83398 8.49902 -9.50098h-228c48.667 38 90 103.333 124 196l68 185.5l92 259.5c-77.333 -1.33301 -132.333 -1.33301 -165 0c-16.667 -4.66699 -29.667 -16 -39 -34c-11.333 12 -27.333 34 -48 66
c-20.667 32.667 -29.334 49 -26.001 49h977c1.33301 0 -6.66699 -12.667 -24 -38l-25 -39c-6.66699 -10.667 -11.667 -19 -15 -25c-5.33301 4 -16 11 -32 21c-18.667 1.33301 -42.667 2 -72 2s-65 -0.333008 -107 -1l53 -141l54 -141
c42.667 -111.333 81.667 -203.666 117 -276.999c27.333 -44 53 -71.667 77 -83z" />
    <glyph glyph-name="Aring" unicode="&#xc5;" horiz-adv-x="1050" 
d="M562 822c0 13.333 -4.66699 24.5 -14 33.5s-20.666 13.5 -33.999 13.5s-24.666 -4.5 -33.999 -13.5s-14 -20.167 -14 -33.5s4.66699 -24.666 14 -33.999s20.666 -14 33.999 -14s24.666 4.66699 33.999 14s14 20.666 14 33.999zM593 822
c0 -21.333 -7.5 -39.833 -22.5 -55.5s-33.833 -23.5 -56.5 -23.5s-41.5 7.83301 -56.5 23.5s-22.5 34.167 -22.5 55.5c0 22 7.5 40.667 22.5 56s33.833 23 56.5 23s41.5 -7.66699 56.5 -23s22.5 -34 22.5 -56zM769 323l-56.502 156.5l-58.5 159.5h-56
c-21.333 0 -46.666 0.333008 -75.999 1h-124c-2 0 -17.667 -39.667 -47 -119l-40 -113c-11.333 -32.667 -20.666 -60.667 -27.999 -84c0.666992 -0.666992 162.667 -1 486 -1zM784.998 -1c4.66699 2.66699 9.00293 5.00098 13.0029 7.00098s7.66699 4.33301 11 7
c16.667 11.333 27 21 31 29s6 17.333 6 28c0 10 -4.66699 31 -14 63c-3.33301 10.667 -8.66602 25.667 -15.999 45l-28 74l-529 -1c-15.333 -36 -27.5 -69.833 -36.5 -101.5s-14.167 -61.834 -15.5 -90.501c-0.666992 -8 2.66602 -15.833 9.99902 -23.5l21 -21.5
c1.33301 -1.33301 5.16602 -2.83301 11.499 -4.5s9.16602 -4.83398 8.49902 -9.50098h-228c48.667 38 90 103.333 124 196l68 185.5l92 259.5c-77.333 -1.33301 -132.333 -1.33301 -165 0c-16.667 -4.66699 -29.667 -16 -39 -34c-11.333 12 -27.333 34 -48 66
c-20.667 32.667 -29.334 49 -26.001 49h977c1.33301 0 -6.66699 -12.667 -24 -38l-25 -39c-6.66699 -10.667 -11.667 -19 -15 -25c-5.33301 4 -16 11 -32 21c-18.667 1.33301 -42.667 2 -72 2s-65 -0.333008 -107 -1l53 -141l54 -141
c42.667 -111.333 81.667 -203.666 117 -276.999c27.333 -44 53 -71.667 77 -83z" />
    <glyph glyph-name="Ccedilla" unicode="&#xc7;" 
d="M571 -99c0 -22 -10.667 -38.665 -32 -49.998c-18.667 -9.33301 -39.667 -14 -63 -14c-28 0 -56.333 6 -85 18c-2.66699 0.666992 -4 3.66699 -4 9c0 11.333 3.33301 15.666 10 12.999c20.667 -10 42.667 -15 66 -15c37.333 0 56 10.667 56 32c0 10.667 -4 20 -12 28
s-18.667 12 -32 12c-8.66699 0 -20.667 -1.33301 -36 -4l23 66h25l-13 -33c28.667 1.33301 51 -2.33398 67 -11.001c20 -10 30 -27 30 -51zM947 251.002c-23.333 -25.333 -45.999 -47.833 -67.999 -67.5s-42.667 -36.834 -62 -51.501
c-65.333 -47.333 -119.666 -80.666 -162.999 -99.999c-55.333 -24.667 -115 -37 -179 -37c-122 0 -226.667 37.667 -314 113c-86.667 74.667 -130 164.667 -130 270c0 104 43 193.667 129 269c87.333 75.333 192.333 113 315 113c108.667 0 204.667 -30.667 288 -92h1
c14.667 -12 34.167 -27 58.5 -45l88.5 -64c20 -13.333 30 -22 30 -26h-271c22.667 16 34 28.333 34 37c0 15.333 -3.33301 28.333 -10 39l-12 12c-63.333 36 -132.333 54 -207 54c-98.667 0 -183.334 -29 -254.001 -87c-70 -58 -105 -128 -105 -210
c0 -82.667 35 -153 105 -211c70.667 -58 155.334 -87 254.001 -87c81.333 0 151.666 19 210.999 57l14 9l35.5 33c11.667 11.333 17.5 23 17.5 35c0 6 -1.33301 11.833 -4 17.5s-9.33398 12.5 -20.001 20.5s-17 15.333 -19 22h259z" />
    <glyph glyph-name="Egrave" unicode="&#xc8;" horiz-adv-x="1000" 
d="M502 769l-99 99c-14 14 -21.667 24 -23 30c-0.666992 2 -1 4.66699 -1 8c0 18.667 13 28 39 28c14 0 26 -10 36 -30l65 -129zM839 0l-794.999 -0.000976562c27.333 6.66699 45.666 23.667 54.999 51c6.66699 20 10 40.667 10 62v490c0 21.333 -3.33301 42 -10 62
c-9.33301 27.333 -29 45.333 -59 54h715c31.333 0 50.333 -2.33301 57 -7c26.667 -23.333 68 -62.666 124 -117.999c-82 28.667 -142.667 43 -182 43h-545v-220h643c26 0 47.667 8.66699 65 26v-132c-19.333 16.667 -40 25 -62 25h-648v-245h627c29.333 0 74 13 134 39z" />
    <glyph glyph-name="Eacute" unicode="&#xc9;" horiz-adv-x="1000" 
d="M446 776l-16.001 5l65 130c10 19.333 21.667 29 35 29c26 0 39 -9 39 -27c0 -3.33301 -0.333008 -6 -1 -8c-1.33301 -4 -8.66602 -14 -21.999 -30zM838.999 0l-794.999 -0.000976562c27.333 6.66699 45.666 23.667 54.999 51c6.66699 20 10 40.667 10 62v490
c0 21.333 -3.33301 42 -10 62c-9.33301 27.333 -29 45.333 -59 54h715c31.333 0 50.333 -2.33301 57 -7c26.667 -23.333 68 -62.666 124 -117.999c-82 28.667 -142.667 43 -182 43h-545v-220h643c26 0 47.667 8.66699 65 26v-132c-19.333 16.667 -40 25 -62 25h-648v-245
h627c29.333 0 74 13 134 39z" />
    <glyph glyph-name="Ecircumflex" unicode="&#xca;" horiz-adv-x="1000" 
d="M537 768l-85 100l-86 -100h-41l93 137h66l95 -137h-42zM839 0l-794.999 -0.000976562c27.333 6.66699 45.666 23.667 54.999 51c6.66699 20 10 40.667 10 62v490c0 21.333 -3.33301 42 -10 62c-9.33301 27.333 -29 45.333 -59 54h715c31.333 0 50.333 -2.33301 57 -7
c26.667 -23.333 68 -62.666 124 -117.999c-82 28.667 -142.667 43 -182 43h-545v-220h643c26 0 47.667 8.66699 65 26v-132c-19.333 16.667 -40 25 -62 25h-648v-245h627c29.333 0 74 13 134 39z" />
    <glyph glyph-name="Edieresis" unicode="&#xcb;" horiz-adv-x="1000" 
d="M415 818c0 -13.333 -5.16699 -24.833 -15.5 -34.5s-21.5 -14.5 -33.5 -14.5c-11.333 0 -22.333 5 -33 15s-16 21.333 -16 34c0 13.333 5.16699 24.833 15.5 34.5s21.5 14.5 33.5 14.5s23.167 -4.83301 33.5 -14.5s15.5 -21.167 15.5 -34.5zM590 818
c0 -13.333 -5.16699 -24.833 -15.5 -34.5s-21.5 -14.5 -33.5 -14.5c-11.333 0 -22.333 5 -33 15s-16 21.333 -16 34c0 13.333 5.16699 24.833 15.5 34.5s21.5 14.5 33.5 14.5s23.167 -4.83301 33.5 -14.5s15.5 -21.167 15.5 -34.5zM839 0l-794.999 -0.000976562
c27.333 6.66699 45.666 23.667 54.999 51c6.66699 20 10 40.667 10 62v490c0 21.333 -3.33301 42 -10 62c-9.33301 27.333 -29 45.333 -59 54h715c31.333 0 50.333 -2.33301 57 -7c26.667 -23.333 68 -62.666 124 -117.999c-82 28.667 -142.667 43 -182 43h-545v-220h643
c26 0 47.667 8.66699 65 26v-132c-19.333 16.667 -40 25 -62 25h-648v-245h627c29.333 0 74 13 134 39z" />
    <glyph glyph-name="Igrave" unicode="&#xcc;" horiz-adv-x="270" 
d="M187 769l-99 99c-14 14 -21.667 24 -23 30c-0.666992 2 -1 4.66699 -1 8c0 18.667 13 28 39 28c14 0 26 -10 36 -30l65 -129zM18 0c30 8.66699 49.667 26.668 59 54.001c6.66699 20 10 40.667 10 62v490c0 21.333 -3.33301 42 -10 62c-9.33301 27.333 -29 45.333 -59 54
h230c-30 -8.66699 -49.667 -26.667 -59 -54c-6 -19.333 -9 -40 -9 -62v-490c0 -22.667 3 -43.334 9 -62.001c9.33301 -27.333 29 -45.333 59 -54h-230z" />
    <glyph glyph-name="Iacute" unicode="&#xcd;" horiz-adv-x="270" 
d="M96 762l-16.001 5l65 130c10 19.333 21.667 29 35 29c26 0 39 -9 39 -27c0 -3.33301 -0.333008 -6 -1 -8c-1.33301 -4 -8.66602 -14 -21.999 -30zM17.999 0c30 8.66699 49.667 26.668 59 54.001c6.66699 20 10 40.667 10 62v490c0 21.333 -3.33301 42 -10 62
c-9.33301 27.333 -29 45.333 -59 54h230c-30 -8.66699 -49.667 -26.667 -59 -54c-6 -19.333 -9 -40 -9 -62v-490c0 -22.667 3 -43.334 9 -62.001c9.33301 -27.333 29 -45.333 59 -54h-230z" />
    <glyph glyph-name="Icircumflex" unicode="&#xce;" horiz-adv-x="270" 
d="M215 768l-85 100l-86 -100h-41l93 137h66l95 -137h-42zM18 0c30 8.66699 49.667 26.668 59 54.001c6.66699 20 10 40.667 10 62v490c0 21.333 -3.33301 42 -10 62c-9.33301 27.333 -29 45.333 -59 54h230c-30 -8.66699 -49.667 -26.667 -59 -54c-6 -19.333 -9 -40 -9 -62
v-490c0 -22.667 3 -43.334 9 -62.001c9.33301 -27.333 29 -45.333 59 -54h-230z" />
    <glyph glyph-name="Idieresis" unicode="&#xcf;" horiz-adv-x="270" 
d="M100 818c0 -13.333 -5.16699 -24.833 -15.5 -34.5s-21.5 -14.5 -33.5 -14.5c-11.333 0 -22.333 5 -33 15s-16 21.333 -16 34c0 13.333 5.16699 24.833 15.5 34.5s21.5 14.5 33.5 14.5s23.167 -4.83301 33.5 -14.5s15.5 -21.167 15.5 -34.5zM275 818
c0 -13.333 -5.16699 -24.833 -15.5 -34.5s-21.5 -14.5 -33.5 -14.5c-11.333 0 -22.333 5 -33 15s-16 21.333 -16 34c0 13.333 5.16699 24.833 15.5 34.5s21.5 14.5 33.5 14.5s23.167 -4.83301 33.5 -14.5s15.5 -21.167 15.5 -34.5zM18 0c30 8.66699 49.667 26.668 59 54.001
c6.66699 20 10 40.667 10 62v490c0 21.333 -3.33301 42 -10 62c-9.33301 27.333 -29 45.333 -59 54h230c-30 -8.66699 -49.667 -26.667 -59 -54c-6 -19.333 -9 -40 -9 -62v-490c0 -22.667 3 -43.334 9 -62.001c9.33301 -27.333 29 -45.333 59 -54h-230z" />
    <glyph glyph-name="Ntilde" unicode="&#xd1;" horiz-adv-x="1040" 
d="M653 863c-3.33301 -23.333 -12.333 -42.333 -27 -57c-17.333 -16 -36.666 -24 -57.999 -24c-19.333 0 -36 3.33301 -50 10c-20 6.66699 -37 10 -51 10c-18 0 -30.667 -8.66699 -38 -26l-34 -3c2 20.667 10.667 39 26 55s33 24 53 24c12 0 31 -3.66699 57 -11
c24 -6.66699 41.667 -10 53 -10c13.333 0 24.666 10.667 33.999 32h35v0zM782 0c30 8.66699 49.667 26.6689 59 54.002c6.66699 20 10 40.667 10 62v24l-651 468v-492c0 -22.667 3 -43.334 9 -62.001c9.33301 -27.333 29 -45.333 59 -54h-230
c30 8.66699 49.667 26.667 59 54c6.66699 20 10 40.667 10 62v490c0 21.333 -3.33301 42 -10 62c-9.33301 27.333 -29 45.333 -59 54h163l268 -187.5l382 -264.5v336c0 21.333 -3.33301 42 -10 62c-9.33301 27.333 -29 45.333 -59 54h230
c-30 -8.66699 -49.667 -26.667 -59 -54c-6 -19.333 -9 -40 -9 -62v-490c0 -22.667 3 -43.334 9 -62.001c9.33301 -27.333 29 -45.333 59 -54h-230z" />
    <glyph glyph-name="Ograve" unicode="&#xd2;" horiz-adv-x="940" 
d="M523 790l-99 99c-14 14 -21.667 24 -23 30c-0.666992 2 -1 4.66699 -1 8c0 18.667 13 28 39 28c14 0 26 -10 36 -30l65 -129zM835 378c0 83.333 -35.333 153.333 -106 210c-71.333 58 -156 87 -254 87c-98.667 0 -183.334 -29 -254.001 -87c-70 -58 -105 -128 -105 -210
c0 -82.667 35 -153 105 -211c70.667 -58 155.334 -87 254.001 -87c98 0 182.667 29 254 87c70.667 58 106 128.333 106 211zM920 378c0 -104.667 -43.667 -194.666 -131 -269.999s-192 -113 -314 -113s-226.667 37.667 -314 113c-86.667 74.667 -130 164.667 -130 270
c0 104 43 193.667 129 269c87.333 75.333 192.333 113 315 113s227.667 -37.667 315 -113c86.667 -74.667 130 -164.334 130 -269.001z" />
    <glyph glyph-name="Oacute" unicode="&#xd3;" horiz-adv-x="940" 
d="M418 790l-16.001 5l65 130c10 19.333 21.667 29 35 29c26 0 39 -9 39 -27c0 -3.33301 -0.333008 -6 -1 -8c-1.33301 -4 -8.66602 -14 -21.999 -30zM834.999 378c0 83.333 -35.333 153.333 -106 210c-71.333 58 -156 87 -254 87c-98.667 0 -183.334 -29 -254.001 -87
c-70 -58 -105 -128 -105 -210c0 -82.667 35 -153 105 -211c70.667 -58 155.334 -87 254.001 -87c98 0 182.667 29 254 87c70.667 58 106 128.333 106 211zM919.999 378c0 -104.667 -43.667 -194.666 -131 -269.999s-192 -113 -314 -113s-226.667 37.667 -314 113
c-86.667 74.667 -130 164.667 -130 270c0 104 43 193.667 129 269c87.333 75.333 192.333 113 315 113s227.667 -37.667 315 -113c86.667 -74.667 130 -164.334 130 -269.001z" />
    <glyph glyph-name="Ocircumflex" unicode="&#xd4;" horiz-adv-x="940" 
d="M551 775l-85 100l-86 -100h-41l93 137h66l95 -137h-42zM835 378c0 83.333 -35.333 153.333 -106 210c-71.333 58 -156 87 -254 87c-98.667 0 -183.334 -29 -254.001 -87c-70 -58 -105 -128 -105 -210c0 -82.667 35 -153 105 -211c70.667 -58 155.334 -87 254.001 -87
c98 0 182.667 29 254 87c70.667 58 106 128.333 106 211zM920 378c0 -104.667 -43.667 -194.666 -131 -269.999s-192 -113 -314 -113s-226.667 37.667 -314 113c-86.667 74.667 -130 164.667 -130 270c0 104 43 193.667 129 269c87.333 75.333 192.333 113 315 113
s227.667 -37.667 315 -113c86.667 -74.667 130 -164.334 130 -269.001z" />
    <glyph glyph-name="Otilde" unicode="&#xd5;" horiz-adv-x="940" 
d="M597 877c-3.33301 -23.333 -12.333 -42.333 -27 -57c-17.333 -16 -36.666 -24 -57.999 -24c-19.333 0 -36 3.33301 -50 10c-20 6.66699 -37 10 -51 10c-18 0 -30.667 -8.66699 -38 -26l-34 -3c2 20.667 10.667 39 26 55s33 24 53 24c12 0 31 -3.66699 57 -11
c24 -6.66699 41.667 -10 53 -10c13.333 0 24.666 10.667 33.999 32h35v0zM835 378c0 83.333 -35.333 153.333 -106 210c-71.333 58 -156 87 -254 87c-98.667 0 -183.334 -29 -254.001 -87c-70 -58 -105 -128 -105 -210c0 -82.667 35 -153 105 -211
c70.667 -58 155.334 -87 254.001 -87c98 0 182.667 29 254 87c70.667 58 106 128.333 106 211zM920 378c0 -104.667 -43.667 -194.666 -131 -269.999s-192 -113 -314 -113s-226.667 37.667 -314 113c-86.667 74.667 -130 164.667 -130 270c0 104 43 193.667 129 269
c87.333 75.333 192.333 113 315 113s227.667 -37.667 315 -113c86.667 -74.667 130 -164.334 130 -269.001z" />
    <glyph glyph-name="Odieresis" unicode="&#xd6;" horiz-adv-x="940" 
d="M429 832c0 -13.333 -5.16699 -24.833 -15.5 -34.5s-21.5 -14.5 -33.5 -14.5c-11.333 0 -22.333 5 -33 15s-16 21.333 -16 34c0 13.333 5.16699 24.833 15.5 34.5s21.5 14.5 33.5 14.5s23.167 -4.83301 33.5 -14.5s15.5 -21.167 15.5 -34.5zM604 832
c0 -13.333 -5.16699 -24.833 -15.5 -34.5s-21.5 -14.5 -33.5 -14.5c-11.333 0 -22.333 5 -33 15s-16 21.333 -16 34c0 13.333 5.16699 24.833 15.5 34.5s21.5 14.5 33.5 14.5s23.167 -4.83301 33.5 -14.5s15.5 -21.167 15.5 -34.5zM835 378
c0 83.333 -35.333 153.333 -106 210c-71.333 58 -156 87 -254 87c-98.667 0 -183.334 -29 -254.001 -87c-70 -58 -105 -128 -105 -210c0 -82.667 35 -153 105 -211c70.667 -58 155.334 -87 254.001 -87c98 0 182.667 29 254 87c70.667 58 106 128.333 106 211zM920 378
c0 -104.667 -43.667 -194.666 -131 -269.999s-192 -113 -314 -113s-226.667 37.667 -314 113c-86.667 74.667 -130 164.667 -130 270c0 104 43 193.667 129 269c87.333 75.333 192.333 113 315 113s227.667 -37.667 315 -113c86.667 -74.667 130 -164.334 130 -269.001z" />
    <glyph glyph-name="multiply" unicode="&#xd7;" horiz-adv-x="470" 
d="M401 234l-42 -42l-122 122l-116 -117l-40 40l117 116l-122 122l42 42l122 -121l115 115l40 -40l-115 -115z" />
    <glyph glyph-name="Oslash" unicode="&#xd8;" horiz-adv-x="940" 
d="M920 378c0 -104.667 -43.499 -194.667 -130.499 -270s-191.833 -113 -314.5 -113c-99.333 0 -189.333 26.333 -270 79l-78 -77l-52 52l72 71c-77.333 73.333 -116 159.333 -116 258c0 104.667 43.167 194.5 129.5 269.5s191.166 112.5 314.499 112.5
c90.667 0 174 -22 250 -66l76 75l52 -51l-67 -67c89.333 -75.333 134 -166.333 134 -273zM663.001 631c-57.333 29.333 -120 44 -188 44c-98.667 0 -183.167 -29 -253.5 -87s-105.5 -128 -105.5 -210c0 -76.667 30.333 -142.667 91 -198zM835.001 378
c0 84.667 -36.334 155.667 -109.001 213l-459 -456c62 -36.667 131.333 -55 208 -55c98.667 0 183.334 29 254.001 87s106 128.333 106 211z" />
    <glyph glyph-name="Ugrave" unicode="&#xd9;" horiz-adv-x="1070" 
d="M593 727l-99 99c-14 14 -21.667 24 -23 30c-0.666992 2 -1 4.66699 -1 8c0 18.667 13 28 39 28c14 0 26 -10 36 -30l65 -129zM1036 721c-16 -8 -32.667 -23.666 -50 -46.999c-12 -16 -23.333 -46.333 -34 -91c-10 -40.667 -22 -98 -36 -172
c-7.33301 -40.667 -13.833 -75.334 -19.5 -104.001s-10.5 -51.667 -14.5 -69c-37.333 -159.333 -154.333 -239 -351 -239c-90.667 0 -160.334 14 -209.001 42c-63.333 36.667 -108.333 102.667 -135 198c-2.66699 8 -8 31 -16 69l-33 160
c-24 114.667 -42.333 182.667 -55 204c-12 21.333 -32 37.666 -60 48.999h247l-16 -6c-5.33301 -2 -10.666 -3.66699 -15.999 -5c-12 -6.66699 -21.667 -18.334 -29 -35.001c-7.33301 -18.667 -8 -44.667 -2 -78l20 -115.5l12 -67.5c13.333 -68 28.333 -126.667 45 -176
c20.667 -62 51 -105.333 91 -130c36.667 -22.667 88.667 -34 156 -34c74 0 132.667 14.667 176 44c38 26 65.333 66.333 82 121c6.66699 22 18.667 75 36 159c18 88.667 29 151.334 33 188.001c4.66699 44.667 3.66699 74 -3 88c-4.66699 10.667 -23 26.334 -55 47.001h236
v0z" />
    <glyph glyph-name="Uacute" unicode="&#xda;" horiz-adv-x="1070" 
d="M488 769l-16.001 5l65 130c10 19.333 21.667 29 35 29c26 0 39 -9 39 -27c0 -3.33301 -0.333008 -6 -1 -8c-1.33301 -4 -8.66602 -14 -21.999 -30zM1036 721c-16 -8 -32.667 -23.666 -50 -46.999c-12 -16 -23.333 -46.333 -34 -91c-10 -40.667 -22 -98 -36 -172
c-7.33301 -40.667 -13.833 -75.334 -19.5 -104.001s-10.5 -51.667 -14.5 -69c-37.333 -159.333 -154.333 -239 -351 -239c-90.667 0 -160.334 14 -209.001 42c-63.333 36.667 -108.333 102.667 -135 198c-2.66699 8 -8 31 -16 69l-33 160
c-24 114.667 -42.333 182.667 -55 204c-12 21.333 -32 37.666 -60 48.999h247l-16 -6c-5.33301 -2 -10.666 -3.66699 -15.999 -5c-12 -6.66699 -21.667 -18.334 -29 -35.001c-7.33301 -18.667 -8 -44.667 -2 -78l20 -115.5l12 -67.5c13.333 -68 28.333 -126.667 45 -176
c20.667 -62 51 -105.333 91 -130c36.667 -22.667 88.667 -34 156 -34c74 0 132.667 14.667 176 44c38 26 65.333 66.333 82 121c6.66699 22 18.667 75 36 159c18 88.667 29 151.334 33 188.001c4.66699 44.667 3.66699 74 -3 88c-4.66699 10.667 -23 26.334 -55 47.001h236
v0z" />
    <glyph glyph-name="Ucircumflex" unicode="&#xdb;" horiz-adv-x="1070" 
d="M614 768l-85 100l-86 -100h-41l93 137h66l95 -137h-42zM1036 721c-16 -8 -32.667 -23.666 -50 -46.999c-12 -16 -23.333 -46.333 -34 -91c-10 -40.667 -22 -98 -36 -172c-7.33301 -40.667 -13.833 -75.334 -19.5 -104.001s-10.5 -51.667 -14.5 -69
c-37.333 -159.333 -154.333 -239 -351 -239c-90.667 0 -160.334 14 -209.001 42c-63.333 36.667 -108.333 102.667 -135 198c-2.66699 8 -8 31 -16 69l-33 160c-24 114.667 -42.333 182.667 -55 204c-12 21.333 -32 37.666 -60 48.999h247l-16 -6
c-5.33301 -2 -10.666 -3.66699 -15.999 -5c-12 -6.66699 -21.667 -18.334 -29 -35.001c-7.33301 -18.667 -8 -44.667 -2 -78l20 -115.5l12 -67.5c13.333 -68 28.333 -126.667 45 -176c20.667 -62 51 -105.333 91 -130c36.667 -22.667 88.667 -34 156 -34
c74 0 132.667 14.667 176 44c38 26 65.333 66.333 82 121c6.66699 22 18.667 75 36 159c18 88.667 29 151.334 33 188.001c4.66699 44.667 3.66699 74 -3 88c-4.66699 10.667 -23 26.334 -55 47.001h236v0z" />
    <glyph glyph-name="Udieresis" unicode="&#xdc;" horiz-adv-x="1070" 
d="M499 818c0 -13.333 -5.16699 -24.833 -15.5 -34.5s-21.5 -14.5 -33.5 -14.5c-11.333 0 -22.333 5 -33 15s-16 21.333 -16 34c0 13.333 5.16699 24.833 15.5 34.5s21.5 14.5 33.5 14.5s23.167 -4.83301 33.5 -14.5s15.5 -21.167 15.5 -34.5zM674 818
c0 -13.333 -5.16699 -24.833 -15.5 -34.5s-21.5 -14.5 -33.5 -14.5c-11.333 0 -22.333 5 -33 15s-16 21.333 -16 34c0 13.333 5.16699 24.833 15.5 34.5s21.5 14.5 33.5 14.5s23.167 -4.83301 33.5 -14.5s15.5 -21.167 15.5 -34.5zM1036 721
c-16 -8 -32.667 -23.666 -50 -46.999c-12 -16 -23.333 -46.333 -34 -91c-10 -40.667 -22 -98 -36 -172c-7.33301 -40.667 -13.833 -75.334 -19.5 -104.001s-10.5 -51.667 -14.5 -69c-37.333 -159.333 -154.333 -239 -351 -239c-90.667 0 -160.334 14 -209.001 42
c-63.333 36.667 -108.333 102.667 -135 198c-2.66699 8 -8 31 -16 69l-33 160c-24 114.667 -42.333 182.667 -55 204c-12 21.333 -32 37.666 -60 48.999h247l-16 -6c-5.33301 -2 -10.666 -3.66699 -15.999 -5c-12 -6.66699 -21.667 -18.334 -29 -35.001
c-7.33301 -18.667 -8 -44.667 -2 -78l20 -115.5l12 -67.5c13.333 -68 28.333 -126.667 45 -176c20.667 -62 51 -105.333 91 -130c36.667 -22.667 88.667 -34 156 -34c74 0 132.667 14.667 176 44c38 26 65.333 66.333 82 121c6.66699 22 18.667 75 36 159
c18 88.667 29 151.334 33 188.001c4.66699 44.667 3.66699 74 -3 88c-4.66699 10.667 -23 26.334 -55 47.001h236v0z" />
    <glyph glyph-name="Yacute" unicode="&#xdd;" 
d="M437 765l-16.001 5l65 130c10 19.333 21.667 29 35 29c26 0 39 -9 39 -27c0 -3.33301 -0.333008 -6 -1 -8c-1.33301 -4 -8.66602 -14 -21.999 -30zM946.999 629c-5.33301 2.66699 -11.333 4.00098 -18 4.00098c-6 0 -21 -5.66699 -45 -17
c-9.33301 -4.66699 -18.333 -10.167 -27 -16.5s-17 -13.166 -25 -20.499l-300 -285v-178c0 -22.667 3 -43.334 9 -62.001c9.33301 -27.333 29 -45.333 59 -54h-230c30 8.66699 49.667 26.667 59 54c6.66699 20 10 40.667 10 62v181l-297 282
c-8 7.33301 -16.333 14.166 -25 20.499s-17.667 11.833 -27 16.5c-24 11.333 -39 17 -45 17c-6.66699 0 -12.667 -1.33301 -18 -4l126 129c-3.33301 -6.66699 -5 -12.334 -5 -17.001c0 -7.33301 6.33301 -22.333 19 -45c8.66699 -15.333 21.667 -31.666 39 -48.999
l109.5 -105.5l171.5 -164.5l133 123l148 147c17.333 17.333 30.333 33.666 39 48.999c12.667 22.667 19 37.667 19 45c0 4.66699 -1.66699 10.334 -5 17.001l126 -129v0z" />
    <glyph glyph-name="uni00DF" unicode="&#xdf;" horiz-adv-x="500" 
d="M465 185c0 -62 -17.6709 -111.331 -53.0039 -147.998c-32.667 -34.667 -74.667 -52 -126 -52c-48.667 0 -88.667 14.667 -120 44c-29.333 26.667 -46.666 60 -51.999 100l62 32c16 -74 52.667 -110 110 -108c36.667 1.33301 65.334 15.333 86.001 42
c19.333 24.667 28.333 54.667 27 90c-1.33301 46 -17.5 80 -48.5 102s-72.833 31 -125.5 27c-4 12 -10.333 34.333 -19 67c32 -0.666992 59.333 9.5 82 30.5s33.334 45.5 32.001 73.5c-1.33301 26 -10.666 48.167 -27.999 66.5s-38.666 27.5 -63.999 27.5h-41
c-24 0 -43.667 -6.33301 -59 -19s-23 -36.334 -23 -71.001v-504h-66v505c0 52 15 91.667 45 119c26.667 24 61.334 36 104.001 36h40c43.333 0 80.666 -15.667 111.999 -47s46.666 -68.333 45.999 -111c-0.666992 -56.667 -19.667 -94.667 -57 -114
c90.667 -30.667 136 -93.334 136 -188.001z" />
    <glyph glyph-name="agrave" unicode="&#xe0;" horiz-adv-x="840" 
d="M453 615l-99 99c-14 14 -21.667 24 -23 30c-0.666992 2 -1 4.66699 -1 8c0 18.667 13 28 39 28c14 0 26 -10 36 -30l65 -129zM615 258l-37.5029 98.5l-55.5 155.5h-204c-1.33301 0 -13.666 -31.667 -36.999 -95l-33 -91c-9.33301 -26 -16.666 -48.333 -21.999 -67
c0.666992 -0.666992 130.334 -1 389.001 -1zM627.997 -1c12 6 26.6699 17.6709 44.0029 35.0039c2.66699 5.33301 4 12.666 4 21.999c0 11.333 -3.33301 28 -10 50l-36 96l-423 -1c-12.667 -29.333 -22.334 -56.666 -29.001 -81.999s-10.667 -49.333 -12 -72
c-1.33301 -6 1.66699 -12.667 9 -20c2.66699 -2.66699 5.16699 -5.33398 7.5 -8.00098s4.83301 -5.33398 7.5 -8.00098c0.666992 -1.33301 3.66699 -2.5 9 -3.5s7.66602 -3.5 6.99902 -7.5h-182c37.333 28.667 70.333 81 99 157l54.5 148.5l73.5 207.5
c-61.333 -1.33301 -105.333 -1.33301 -132 0c-13.333 -4 -23.666 -13 -30.999 -27c-8.66699 9.33301 -21.334 27 -38.001 53c-17.333 26 -24.333 39 -21 39h781c1.33301 0 -5 -10.333 -19 -31c-8.66699 -12.667 -15.5 -23.167 -20.5 -31.5l-11.5 -19.5
c-4 4 -12.333 9.66699 -25 17c-15.333 0.666992 -34.833 1.16699 -58.5 1.5s-52.167 0.166016 -85.5 -0.500977l43 -113l43 -113c17.333 -46 33.833 -87.333 49.5 -124s30.5 -69.334 44.5 -98.001c21.333 -34 41.666 -56 60.999 -66z" />
    <glyph glyph-name="aacute" unicode="&#xe1;" horiz-adv-x="840" 
d="M362 615l-16.001 5l65 130c10 19.333 21.667 29 35 29c26 0 39 -9 39 -27c0 -3.33301 -0.333008 -6 -1 -8c-1.33301 -4 -8.66602 -14 -21.999 -30zM614.999 258l-37.5029 98.5l-55.5 155.5h-204c-1.33301 0 -13.666 -31.667 -36.999 -95l-33 -91
c-9.33301 -26 -16.666 -48.333 -21.999 -67c0.666992 -0.666992 130.334 -1 389.001 -1zM627.996 -1c12 6 26.6699 17.6709 44.0029 35.0039c2.66699 5.33301 4 12.666 4 21.999c0 11.333 -3.33301 28 -10 50l-36 96l-423 -1
c-12.667 -29.333 -22.334 -56.666 -29.001 -81.999s-10.667 -49.333 -12 -72c-1.33301 -6 1.66699 -12.667 9 -20c2.66699 -2.66699 5.16699 -5.33398 7.5 -8.00098s4.83301 -5.33398 7.5 -8.00098c0.666992 -1.33301 3.66699 -2.5 9 -3.5s7.66602 -3.5 6.99902 -7.5h-182
c37.333 28.667 70.333 81 99 157l54.5 148.5l73.5 207.5c-61.333 -1.33301 -105.333 -1.33301 -132 0c-13.333 -4 -23.666 -13 -30.999 -27c-8.66699 9.33301 -21.334 27 -38.001 53c-17.333 26 -24.333 39 -21 39h781c1.33301 0 -5 -10.333 -19 -31
c-8.66699 -12.667 -15.5 -23.167 -20.5 -31.5l-11.5 -19.5c-4 4 -12.333 9.66699 -25 17c-15.333 0.666992 -34.833 1.16699 -58.5 1.5s-52.167 0.166016 -85.5 -0.500977l43 -113l43 -113c17.333 -46 33.833 -87.333 49.5 -124s30.5 -69.334 44.5 -98.001
c21.333 -34 41.666 -56 60.999 -66z" />
    <glyph glyph-name="acircumflex" unicode="&#xe2;" horiz-adv-x="840" 
d="M495 621l-85 100l-86 -100h-41l93 137h66l95 -137h-42zM615 258l-37.5029 98.5l-55.5 155.5h-204c-1.33301 0 -13.666 -31.667 -36.999 -95l-33 -91c-9.33301 -26 -16.666 -48.333 -21.999 -67c0.666992 -0.666992 130.334 -1 389.001 -1zM627.997 -1
c12 6 26.6699 17.6709 44.0029 35.0039c2.66699 5.33301 4 12.666 4 21.999c0 11.333 -3.33301 28 -10 50l-36 96l-423 -1c-12.667 -29.333 -22.334 -56.666 -29.001 -81.999s-10.667 -49.333 -12 -72c-1.33301 -6 1.66699 -12.667 9 -20
c2.66699 -2.66699 5.16699 -5.33398 7.5 -8.00098s4.83301 -5.33398 7.5 -8.00098c0.666992 -1.33301 3.66699 -2.5 9 -3.5s7.66602 -3.5 6.99902 -7.5h-182c37.333 28.667 70.333 81 99 157l54.5 148.5l73.5 207.5c-61.333 -1.33301 -105.333 -1.33301 -132 0
c-13.333 -4 -23.666 -13 -30.999 -27c-8.66699 9.33301 -21.334 27 -38.001 53c-17.333 26 -24.333 39 -21 39h781c1.33301 0 -5 -10.333 -19 -31c-8.66699 -12.667 -15.5 -23.167 -20.5 -31.5l-11.5 -19.5c-4 4 -12.333 9.66699 -25 17
c-15.333 0.666992 -34.833 1.16699 -58.5 1.5s-52.167 0.166016 -85.5 -0.500977l43 -113l43 -113c17.333 -46 33.833 -87.333 49.5 -124s30.5 -69.334 44.5 -98.001c21.333 -34 41.666 -56 60.999 -66z" />
    <glyph glyph-name="atilde" unicode="&#xe3;" horiz-adv-x="840" 
d="M541 716c-3.33301 -23.333 -12.333 -42.333 -27 -57c-17.333 -16 -36.666 -24 -57.999 -24c-19.333 0 -36 3.33301 -50 10c-20 6.66699 -37 10 -51 10c-18 0 -30.667 -8.66699 -38 -26l-34 -3c2 20.667 10.667 39 26 55s33 24 53 24c12 0 31 -3.66699 57 -11
c24 -6.66699 41.667 -10 53 -10c13.333 0 24.666 10.667 33.999 32h35v0zM615 258l-37.5029 98.5l-55.5 155.5h-204c-1.33301 0 -13.666 -31.667 -36.999 -95l-33 -91c-9.33301 -26 -16.666 -48.333 -21.999 -67c0.666992 -0.666992 130.334 -1 389.001 -1zM627.997 -1
c12 6 26.6699 17.6709 44.0029 35.0039c2.66699 5.33301 4 12.666 4 21.999c0 11.333 -3.33301 28 -10 50l-36 96l-423 -1c-12.667 -29.333 -22.334 -56.666 -29.001 -81.999s-10.667 -49.333 -12 -72c-1.33301 -6 1.66699 -12.667 9 -20
c2.66699 -2.66699 5.16699 -5.33398 7.5 -8.00098s4.83301 -5.33398 7.5 -8.00098c0.666992 -1.33301 3.66699 -2.5 9 -3.5s7.66602 -3.5 6.99902 -7.5h-182c37.333 28.667 70.333 81 99 157l54.5 148.5l73.5 207.5c-61.333 -1.33301 -105.333 -1.33301 -132 0
c-13.333 -4 -23.666 -13 -30.999 -27c-8.66699 9.33301 -21.334 27 -38.001 53c-17.333 26 -24.333 39 -21 39h781c1.33301 0 -5 -10.333 -19 -31c-8.66699 -12.667 -15.5 -23.167 -20.5 -31.5l-11.5 -19.5c-4 4 -12.333 9.66699 -25 17
c-15.333 0.666992 -34.833 1.16699 -58.5 1.5s-52.167 0.166016 -85.5 -0.500977l43 -113l43 -113c17.333 -46 33.833 -87.333 49.5 -124s30.5 -69.334 44.5 -98.001c21.333 -34 41.666 -56 60.999 -66z" />
    <glyph glyph-name="adieresis" unicode="&#xe4;" horiz-adv-x="840" 
d="M373 664c0 -13.333 -5.16699 -24.833 -15.5 -34.5s-21.5 -14.5 -33.5 -14.5c-11.333 0 -22.333 5 -33 15s-16 21.333 -16 34c0 13.333 5.16699 24.833 15.5 34.5s21.5 14.5 33.5 14.5s23.167 -4.83301 33.5 -14.5s15.5 -21.167 15.5 -34.5zM548 664
c0 -13.333 -5.16699 -24.833 -15.5 -34.5s-21.5 -14.5 -33.5 -14.5c-11.333 0 -22.333 5 -33 15s-16 21.333 -16 34c0 13.333 5.16699 24.833 15.5 34.5s21.5 14.5 33.5 14.5s23.167 -4.83301 33.5 -14.5s15.5 -21.167 15.5 -34.5zM615 258l-37.5029 98.5l-55.5 155.5h-204
c-1.33301 0 -13.666 -31.667 -36.999 -95l-33 -91c-9.33301 -26 -16.666 -48.333 -21.999 -67c0.666992 -0.666992 130.334 -1 389.001 -1zM627.997 -1c12 6 26.6699 17.6709 44.0029 35.0039c2.66699 5.33301 4 12.666 4 21.999c0 11.333 -3.33301 28 -10 50l-36 96
l-423 -1c-12.667 -29.333 -22.334 -56.666 -29.001 -81.999s-10.667 -49.333 -12 -72c-1.33301 -6 1.66699 -12.667 9 -20c2.66699 -2.66699 5.16699 -5.33398 7.5 -8.00098s4.83301 -5.33398 7.5 -8.00098c0.666992 -1.33301 3.66699 -2.5 9 -3.5
s7.66602 -3.5 6.99902 -7.5h-182c37.333 28.667 70.333 81 99 157l54.5 148.5l73.5 207.5c-61.333 -1.33301 -105.333 -1.33301 -132 0c-13.333 -4 -23.666 -13 -30.999 -27c-8.66699 9.33301 -21.334 27 -38.001 53c-17.333 26 -24.333 39 -21 39h781
c1.33301 0 -5 -10.333 -19 -31c-8.66699 -12.667 -15.5 -23.167 -20.5 -31.5l-11.5 -19.5c-4 4 -12.333 9.66699 -25 17c-15.333 0.666992 -34.833 1.16699 -58.5 1.5s-52.167 0.166016 -85.5 -0.500977l43 -113l43 -113c17.333 -46 33.833 -87.333 49.5 -124
s30.5 -69.334 44.5 -98.001c21.333 -34 41.666 -56 60.999 -66z" />
    <glyph glyph-name="aring" unicode="&#xe5;" horiz-adv-x="840" 
d="M464 682c0 13.333 -4.66699 24.5 -14 33.5s-20.666 13.5 -33.999 13.5s-24.666 -4.5 -33.999 -13.5s-14 -20.167 -14 -33.5s4.66699 -24.666 14 -33.999s20.666 -14 33.999 -14s24.666 4.66699 33.999 14s14 20.666 14 33.999zM495 682
c0 -21.333 -7.5 -39.833 -22.5 -55.5s-33.833 -23.5 -56.5 -23.5s-41.5 7.83301 -56.5 23.5s-22.5 34.167 -22.5 55.5c0 22 7.5 40.667 22.5 56s33.833 23 56.5 23s41.5 -7.66699 56.5 -23s22.5 -34 22.5 -56zM615 258l-37.5029 98.5l-55.5 155.5h-204
c-1.33301 0 -13.666 -31.667 -36.999 -95l-33 -91c-9.33301 -26 -16.666 -48.333 -21.999 -67c0.666992 -0.666992 130.334 -1 389.001 -1zM627.997 -1c12 6 26.6699 17.6709 44.0029 35.0039c2.66699 5.33301 4 12.666 4 21.999c0 11.333 -3.33301 28 -10 50l-36 96
l-423 -1c-12.667 -29.333 -22.334 -56.666 -29.001 -81.999s-10.667 -49.333 -12 -72c-1.33301 -6 1.66699 -12.667 9 -20c2.66699 -2.66699 5.16699 -5.33398 7.5 -8.00098s4.83301 -5.33398 7.5 -8.00098c0.666992 -1.33301 3.66699 -2.5 9 -3.5
s7.66602 -3.5 6.99902 -7.5h-182c37.333 28.667 70.333 81 99 157l54.5 148.5l73.5 207.5c-61.333 -1.33301 -105.333 -1.33301 -132 0c-13.333 -4 -23.666 -13 -30.999 -27c-8.66699 9.33301 -21.334 27 -38.001 53c-17.333 26 -24.333 39 -21 39h781
c1.33301 0 -5 -10.333 -19 -31c-8.66699 -12.667 -15.5 -23.167 -20.5 -31.5l-11.5 -19.5c-4 4 -12.333 9.66699 -25 17c-15.333 0.666992 -34.833 1.16699 -58.5 1.5s-52.167 0.166016 -85.5 -0.500977l43 -113l43 -113c17.333 -46 33.833 -87.333 49.5 -124
s30.5 -69.334 44.5 -98.001c21.333 -34 41.666 -56 60.999 -66z" />
    <glyph glyph-name="ccedilla" unicode="&#xe7;" horiz-adv-x="785" 
d="M466 -99c0 -22 -10.667 -38.665 -32 -49.998c-18.667 -9.33301 -39.667 -14 -63 -14c-28 0 -56.333 6 -85 18c-2.66699 0.666992 -4 3.66699 -4 9c0 11.333 3.33301 15.666 10 12.999c20.667 -10 42.667 -15 66 -15c37.333 0 56 10.667 56 32c0 10.667 -4 20 -12 28
s-18.667 12 -32 12c-8.66699 0 -20.667 -1.33301 -36 -4l23 66h25l-13 -33c28.667 1.33301 51 -2.33398 67 -11.001c20 -10 30 -27 30 -51zM758 201.002c-37.333 -40 -71.999 -71.666 -103.999 -94.999c-52 -38 -95.667 -64.667 -131 -80c-45.333 -20 -93 -30 -143 -30
c-99.333 0 -183.333 30 -252 90s-103 132 -103 216s34.333 156 103 216s152.667 90 252 90c88 0 164.667 -24.667 230 -74h1c11.333 -9.33301 26.833 -21.333 46.5 -36l71.5 -51c16 -10 24 -17 24 -21h-217c18 12.667 27 22.667 27 30c0 13.333 -2.66699 23.666 -8 30.999
c-1.33301 2 -4.33301 5.33301 -9 10c-50.667 28.667 -106 43 -166 43c-80 0 -147.667 -23.333 -203 -70c-56 -46 -84 -102 -84 -168s28 -122.333 84 -169c56 -46 123.667 -69 203 -69c65.333 0 121.666 15.333 168.999 46l11 7l28 26.5c9.33301 9 14 18.167 14 27.5
c0 4.66699 -1 9.5 -3 14.5s-7.33301 10.5 -16 16.5c-8 6 -13 11.667 -15 17h207z" />
    <glyph glyph-name="egrave" unicode="&#xe8;" horiz-adv-x="800" 
d="M418 615l-99 99c-14 14 -21.667 24 -23 30c-0.666992 2 -1 4.66699 -1 8c0 18.667 13 28 39 28c14 0 26 -10 36 -30l65 -129zM671 0l-635.998 0.000976562c22 6 36.667 19.667 44 41c5.33301 18 8 34.333 8 49v392c0 15.333 -2.66699 32 -8 50
c-6.66699 21.333 -22.334 35.666 -47.001 42.999h572c25.333 0 40.666 -1.66699 45.999 -5c10.667 -9.33301 24.167 -21.833 40.5 -37.5l58.5 -57.5c-68 23.333 -116.667 35 -146 35h-436v-176h515c20 0 37.333 6.66699 52 20v-105c-17.333 13.333 -34 20 -50 20h-518v-196
h501c24 0 59.667 10.333 107 31z" />
    <glyph glyph-name="eacute" unicode="&#xe9;" horiz-adv-x="800" 
d="M341 615l-16.001 5l65 130c10 19.333 21.667 29 35 29c26 0 39 -9 39 -27c0 -3.33301 -0.333008 -6 -1 -8c-1.33301 -4 -8.66602 -14 -21.999 -30zM670.999 0l-635.998 0.000976562c22 6 36.667 19.667 44 41c5.33301 18 8 34.333 8 49v392c0 15.333 -2.66699 32 -8 50
c-6.66699 21.333 -22.334 35.666 -47.001 42.999h572c25.333 0 40.666 -1.66699 45.999 -5c10.667 -9.33301 24.167 -21.833 40.5 -37.5l58.5 -57.5c-68 23.333 -116.667 35 -146 35h-436v-176h515c20 0 37.333 6.66699 52 20v-105c-17.333 13.333 -34 20 -50 20h-518v-196
h501c24 0 59.667 10.333 107 31z" />
    <glyph glyph-name="ecircumflex" unicode="&#xea;" horiz-adv-x="800" 
d="M460 621l-85 100l-86 -100h-41l93 137h66l95 -137h-42zM671 0l-635.998 0.000976562c22 6 36.667 19.667 44 41c5.33301 18 8 34.333 8 49v392c0 15.333 -2.66699 32 -8 50c-6.66699 21.333 -22.334 35.666 -47.001 42.999h572c25.333 0 40.666 -1.66699 45.999 -5
c10.667 -9.33301 24.167 -21.833 40.5 -37.5l58.5 -57.5c-68 23.333 -116.667 35 -146 35h-436v-176h515c20 0 37.333 6.66699 52 20v-105c-17.333 13.333 -34 20 -50 20h-518v-196h501c24 0 59.667 10.333 107 31z" />
    <glyph glyph-name="edieresis" unicode="&#xeb;" horiz-adv-x="800" 
d="M338 664c0 -13.333 -5.16699 -24.833 -15.5 -34.5s-21.5 -14.5 -33.5 -14.5c-11.333 0 -22.333 5 -33 15s-16 21.333 -16 34c0 13.333 5.16699 24.833 15.5 34.5s21.5 14.5 33.5 14.5s23.167 -4.83301 33.5 -14.5s15.5 -21.167 15.5 -34.5zM513 664
c0 -13.333 -5.16699 -24.833 -15.5 -34.5s-21.5 -14.5 -33.5 -14.5c-11.333 0 -22.333 5 -33 15s-16 21.333 -16 34c0 13.333 5.16699 24.833 15.5 34.5s21.5 14.5 33.5 14.5s23.167 -4.83301 33.5 -14.5s15.5 -21.167 15.5 -34.5zM671 0l-635.998 0.000976562
c22 6 36.667 19.667 44 41c5.33301 18 8 34.333 8 49v392c0 15.333 -2.66699 32 -8 50c-6.66699 21.333 -22.334 35.666 -47.001 42.999h572c25.333 0 40.666 -1.66699 45.999 -5c10.667 -9.33301 24.167 -21.833 40.5 -37.5l58.5 -57.5c-68 23.333 -116.667 35 -146 35
h-436v-176h515c20 0 37.333 6.66699 52 20v-105c-17.333 13.333 -34 20 -50 20h-518v-196h501c24 0 59.667 10.333 107 31z" />
    <glyph glyph-name="igrave" unicode="&#xec;" horiz-adv-x="220" 
d="M159 615l-99 99c-14 14 -21.667 24 -23 30c-0.666992 2 -1 4.66699 -1 8c0 18.667 13 28 39 28c14 0 26 -10 36 -30l65 -129zM14 0c24 6.66699 39.999 20.998 47.999 42.998c5.33301 22.667 8 39.334 8 50.001v392c0 10 -2.66699 26.333 -8 49
c-8 22.667 -24 37.334 -48 44.001h184c-24 -8 -39.667 -22.667 -47 -44c-4.66699 -14 -7 -30.333 -7 -49v-392c0 -19.333 2.33301 -36 7 -50c6.66699 -20.667 22.334 -35 47.001 -43h-184z" />
    <glyph glyph-name="iacute" unicode="&#xed;" horiz-adv-x="220" 
d="M75 615l-16.001 5l65 130c10 19.333 21.667 29 35 29c26 0 39 -9 39 -27c0 -3.33301 -0.333008 -6 -1 -8c-1.33301 -4 -8.66602 -14 -21.999 -30zM13.999 0c24 6.66699 39.999 20.998 47.999 42.998c5.33301 22.667 8 39.334 8 50.001v392c0 10 -2.66699 26.333 -8 49
c-8 22.667 -24 37.334 -48 44.001h184c-24 -8 -39.667 -22.667 -47 -44c-4.66699 -14 -7 -30.333 -7 -49v-392c0 -19.333 2.33301 -36 7 -50c6.66699 -20.667 22.334 -35 47.001 -43h-184z" />
    <glyph glyph-name="icircumflex" unicode="&#xee;" horiz-adv-x="220" 
d="M194 621l-85 100l-86 -100h-41l93 137h66l95 -137h-42zM14 0c24 6.66699 39.999 20.998 47.999 42.998c5.33301 22.667 8 39.334 8 50.001v392c0 10 -2.66699 26.333 -8 49c-8 22.667 -24 37.334 -48 44.001h184c-24 -8 -39.667 -22.667 -47 -44
c-4.66699 -14 -7 -30.333 -7 -49v-392c0 -19.333 2.33301 -36 7 -50c6.66699 -20.667 22.334 -35 47.001 -43h-184z" />
    <glyph glyph-name="idieresis" unicode="&#xef;" horiz-adv-x="220" 
d="M65 664c0 -13.333 -5.16699 -24.833 -15.5 -34.5s-21.5 -14.5 -33.5 -14.5c-11.333 0 -22.333 5 -33 15s-16 21.333 -16 34c0 13.333 5.16699 24.833 15.5 34.5s21.5 14.5 33.5 14.5s23.167 -4.83301 33.5 -14.5s15.5 -21.167 15.5 -34.5zM240 664
c0 -13.333 -5.16699 -24.833 -15.5 -34.5s-21.5 -14.5 -33.5 -14.5c-11.333 0 -22.333 5 -33 15s-16 21.333 -16 34c0 13.333 5.16699 24.833 15.5 34.5s21.5 14.5 33.5 14.5s23.167 -4.83301 33.5 -14.5s15.5 -21.167 15.5 -34.5zM14 0
c24 6.66699 39.999 20.998 47.999 42.998c5.33301 22.667 8 39.334 8 50.001v392c0 10 -2.66699 26.333 -8 49c-8 22.667 -24 37.334 -48 44.001h184c-24 -8 -39.667 -22.667 -47 -44c-4.66699 -14 -7 -30.333 -7 -49v-392c0 -19.333 2.33301 -36 7 -50
c6.66699 -20.667 22.334 -35 47.001 -43h-184z" />
    <glyph glyph-name="ntilde" unicode="&#xf1;" horiz-adv-x="832" 
d="M562 716c-3.33301 -23.333 -12.333 -42.333 -27 -57c-17.333 -16 -36.666 -24 -57.999 -24c-19.333 0 -36 3.33301 -50 10c-20 6.66699 -37 10 -51 10c-18 0 -30.667 -8.66699 -38 -26l-34 -3c2 20.667 10.667 39 26 55s33 24 53 24c12 0 31 -3.66699 57 -11
c24 -6.66699 41.667 -10 53 -10c13.333 0 24.666 10.667 33.999 32h35v0zM626 0c24.667 8 40.332 22.332 46.999 42.999c5.33301 18 8 34.667 8 50v19l-196.5 143.5l-324.5 230.5v-393c0 -19.333 2.33301 -36 7 -50c6.66699 -20.667 22.334 -35 47.001 -43h-184
c24 6.66699 40 21 48 43c5.33301 22.667 8 39.334 8 50.001v392c0 10 -2.66699 26.333 -8 49c-8 22.667 -24 37.334 -48 44.001h131l261 -182.5l259 -179.5v269c0 14.667 -2.66699 31 -8 49c-7.33301 21.333 -23 36 -47 44h184c-24 -6.66699 -40 -21.334 -48 -44.001
c-4.66699 -18 -7 -34.333 -7 -49v-392c0 -15.333 2.33301 -32 7 -50c8 -22 24 -36.333 48 -43h-184z" />
    <glyph glyph-name="ograve" unicode="&#xf2;" horiz-adv-x="752" 
d="M425 622l-99 99c-14 14 -21.667 24 -23 30c-0.666992 2 -1 4.66699 -1 8c0 18.667 13 28 39 28c14 0 26 -10 36 -30l65 -129zM668 302c0 66 -28.333 122 -85 168c-55.333 46.667 -123 70 -203 70s-147.667 -23.333 -203 -70c-56 -46 -84 -102 -84 -168
s28 -122.333 84 -169c56 -46 123.667 -69 203 -69s147 23 203 69c56.667 46.667 85 103 85 169zM736 302c0 -82.667 -34.667 -154.667 -104 -216c-69.333 -60 -153.333 -90 -252 -90c-99.333 0 -183.333 30 -252 90s-103 132 -103 216s34.333 156 103 216s152.667 90 252 90
c98.667 0 182.667 -30 252 -90s104 -132 104 -216z" />
    <glyph glyph-name="oacute" unicode="&#xf3;" horiz-adv-x="752" 
d="M320 622l-16.001 5l65 130c10 19.333 21.667 29 35 29c26 0 39 -9 39 -27c0 -3.33301 -0.333008 -6 -1 -8c-1.33301 -4 -8.66602 -14 -21.999 -30zM667.999 302c0 66 -28.333 122 -85 168c-55.333 46.667 -123 70 -203 70s-147.667 -23.333 -203 -70
c-56 -46 -84 -102 -84 -168s28 -122.333 84 -169c56 -46 123.667 -69 203 -69s147 23 203 69c56.667 46.667 85 103 85 169zM735.999 302c0 -82.667 -34.667 -154.667 -104 -216c-69.333 -60 -153.333 -90 -252 -90c-99.333 0 -183.333 30 -252 90s-103 132 -103 216
s34.333 156 103 216s152.667 90 252 90c98.667 0 182.667 -30 252 -90s104 -132 104 -216z" />
    <glyph glyph-name="ocircumflex" unicode="&#xf4;" horiz-adv-x="752" 
d="M453 621l-85 100l-86 -100h-41l93 137h66l95 -137h-42zM668 302c0 66 -28.333 122 -85 168c-55.333 46.667 -123 70 -203 70s-147.667 -23.333 -203 -70c-56 -46 -84 -102 -84 -168s28 -122.333 84 -169c56 -46 123.667 -69 203 -69s147 23 203 69
c56.667 46.667 85 103 85 169zM736 302c0 -82.667 -34.667 -154.667 -104 -216c-69.333 -60 -153.333 -90 -252 -90c-99.333 0 -183.333 30 -252 90s-103 132 -103 216s34.333 156 103 216s152.667 90 252 90c98.667 0 182.667 -30 252 -90s104 -132 104 -216z" />
    <glyph glyph-name="otilde" unicode="&#xf5;" horiz-adv-x="752" 
d="M506 716c-3.33301 -23.333 -12.333 -42.333 -27 -57c-17.333 -16 -36.666 -24 -57.999 -24c-19.333 0 -36 3.33301 -50 10c-20 6.66699 -37 10 -51 10c-18 0 -30.667 -8.66699 -38 -26l-34 -3c2 20.667 10.667 39 26 55s33 24 53 24c12 0 31 -3.66699 57 -11
c24 -6.66699 41.667 -10 53 -10c13.333 0 24.666 10.667 33.999 32h35v0zM668 302c0 66 -28.333 122 -85 168c-55.333 46.667 -123 70 -203 70s-147.667 -23.333 -203 -70c-56 -46 -84 -102 -84 -168s28 -122.333 84 -169c56 -46 123.667 -69 203 -69s147 23 203 69
c56.667 46.667 85 103 85 169zM736 302c0 -82.667 -34.667 -154.667 -104 -216c-69.333 -60 -153.333 -90 -252 -90c-99.333 0 -183.333 30 -252 90s-103 132 -103 216s34.333 156 103 216s152.667 90 252 90c98.667 0 182.667 -30 252 -90s104 -132 104 -216z" />
    <glyph glyph-name="odieresis" unicode="&#xf6;" horiz-adv-x="752" 
d="M338 671c0 -13.333 -5.16699 -24.833 -15.5 -34.5s-21.5 -14.5 -33.5 -14.5c-11.333 0 -22.333 5 -33 15s-16 21.333 -16 34c0 13.333 5.16699 24.833 15.5 34.5s21.5 14.5 33.5 14.5s23.167 -4.83301 33.5 -14.5s15.5 -21.167 15.5 -34.5zM513 671
c0 -13.333 -5.16699 -24.833 -15.5 -34.5s-21.5 -14.5 -33.5 -14.5c-11.333 0 -22.333 5 -33 15s-16 21.333 -16 34c0 13.333 5.16699 24.833 15.5 34.5s21.5 14.5 33.5 14.5s23.167 -4.83301 33.5 -14.5s15.5 -21.167 15.5 -34.5zM668 302c0 66 -28.333 122 -85 168
c-55.333 46.667 -123 70 -203 70s-147.667 -23.333 -203 -70c-56 -46 -84 -102 -84 -168s28 -122.333 84 -169c56 -46 123.667 -69 203 -69s147 23 203 69c56.667 46.667 85 103 85 169zM736 302c0 -82.667 -34.667 -154.667 -104 -216c-69.333 -60 -153.333 -90 -252 -90
c-99.333 0 -183.333 30 -252 90s-103 132 -103 216s34.333 156 103 216s152.667 90 252 90c98.667 0 182.667 -30 252 -90s104 -132 104 -216z" />
    <glyph glyph-name="oslash" unicode="&#xf8;" horiz-adv-x="752" 
d="M736 302c0 -83.333 -34.667 -155.167 -104 -215.5s-153.333 -90.5 -252 -90.5c-79.333 0 -151.333 21 -216 63l-62 -61l-42 41l58 57c-62 58 -93 126.667 -93 206c0 84 34.5 156 103.5 216s152.833 90 251.5 90c72 0 138.667 -17.667 200 -53l61 60l41 -41l-53 -53
c71.333 -60.667 107 -133.667 107 -219zM530 504.999c-46.667 23.333 -96.667 35.001 -150 35.001c-79.333 0 -147 -23.167 -203 -69.5s-84 -102.5 -84 -168.5c0 -60.667 24.333 -113.334 73 -158.001zM668 302c0 66.667 -28.998 123.667 -86.998 171l-367 -365
c49.333 -29.333 104.666 -44 165.999 -44c79.333 0 147.166 23.167 203.499 69.5s84.5 102.5 84.5 168.5z" />
    <glyph glyph-name="ugrave" unicode="&#xf9;" horiz-adv-x="856" 
d="M481 615l-99 99c-14 14 -21.667 24 -23 30c-0.666992 2 -1 4.66699 -1 8c0 18.667 13 28 39 28c14 0 26 -10 36 -30l65 -129zM836 576c-6.66699 -3.33301 -13.3379 -8.1709 -20.0049 -14.5039s-13.334 -14.166 -20.001 -23.499
c-9.33301 -13.333 -18.333 -37.666 -27 -72.999c-5.33301 -30.667 -12.666 -68.834 -21.999 -114.501l-34 -161.5c-29.333 -127.333 -123 -191 -281 -191c-72.667 0 -128.334 11.333 -167.001 34c-50 28.667 -86 81.334 -108 158.001c-2 6.66699 -6.33301 25.167 -13 55.5
l-27 127.5c-9.33301 46 -17.666 82.5 -24.999 109.5s-13.666 45.167 -18.999 54.5c-9.33301 16.667 -25.333 29.667 -48 39h198c-4.66699 -1.33301 -9 -2.83301 -13 -4.5s-8 -3.16699 -12 -4.5c-10.667 -6 -18.667 -15.5 -24 -28.5s-5.66602 -33.5 -0.999023 -61.5
l16.5 -96.5c4.33301 -24.333 7.5 -41.166 9.5 -50.499c5.33301 -27.333 10.833 -52.666 16.5 -75.999s11.834 -45 18.501 -65c16 -48.667 40.333 -83 73 -103c28.667 -18.667 70.334 -28 125.001 -28c110 0 178.667 44 206 132c2.66699 8.66699 6.33398 23.5 11.001 44.5
s10.334 48.5 17.001 82.5c14.667 70.667 23.667 121 27 151c4 35.333 3.33301 58.666 -2 69.999c-4.66699 8.66699 -19.334 21.334 -44.001 38.001h189v0z" />
    <glyph glyph-name="uacute" unicode="&#xfa;" horiz-adv-x="856" 
d="M390 615l-16.001 5l65 130c10 19.333 21.667 29 35 29c26 0 39 -9 39 -27c0 -3.33301 -0.333008 -6 -1 -8c-1.33301 -4 -8.66602 -14 -21.999 -30zM835.999 576c-6.66699 -3.33301 -13.3379 -8.1709 -20.0049 -14.5039s-13.334 -14.166 -20.001 -23.499
c-9.33301 -13.333 -18.333 -37.666 -27 -72.999c-5.33301 -30.667 -12.666 -68.834 -21.999 -114.501l-34 -161.5c-29.333 -127.333 -123 -191 -281 -191c-72.667 0 -128.334 11.333 -167.001 34c-50 28.667 -86 81.334 -108 158.001c-2 6.66699 -6.33301 25.167 -13 55.5
l-27 127.5c-9.33301 46 -17.666 82.5 -24.999 109.5s-13.666 45.167 -18.999 54.5c-9.33301 16.667 -25.333 29.667 -48 39h198c-4.66699 -1.33301 -9 -2.83301 -13 -4.5s-8 -3.16699 -12 -4.5c-10.667 -6 -18.667 -15.5 -24 -28.5s-5.66602 -33.5 -0.999023 -61.5
l16.5 -96.5c4.33301 -24.333 7.5 -41.166 9.5 -50.499c5.33301 -27.333 10.833 -52.666 16.5 -75.999s11.834 -45 18.501 -65c16 -48.667 40.333 -83 73 -103c28.667 -18.667 70.334 -28 125.001 -28c110 0 178.667 44 206 132c2.66699 8.66699 6.33398 23.5 11.001 44.5
s10.334 48.5 17.001 82.5c14.667 70.667 23.667 121 27 151c4 35.333 3.33301 58.666 -2 69.999c-4.66699 8.66699 -19.334 21.334 -44.001 38.001h189v0z" />
    <glyph glyph-name="ucircumflex" unicode="&#xfb;" horiz-adv-x="856" 
d="M509 621l-85 100l-86 -100h-41l93 137h66l95 -137h-42zM836 576c-6.66699 -3.33301 -13.3379 -8.1709 -20.0049 -14.5039s-13.334 -14.166 -20.001 -23.499c-9.33301 -13.333 -18.333 -37.666 -27 -72.999c-5.33301 -30.667 -12.666 -68.834 -21.999 -114.501l-34 -161.5
c-29.333 -127.333 -123 -191 -281 -191c-72.667 0 -128.334 11.333 -167.001 34c-50 28.667 -86 81.334 -108 158.001c-2 6.66699 -6.33301 25.167 -13 55.5l-27 127.5c-9.33301 46 -17.666 82.5 -24.999 109.5s-13.666 45.167 -18.999 54.5
c-9.33301 16.667 -25.333 29.667 -48 39h198c-4.66699 -1.33301 -9 -2.83301 -13 -4.5s-8 -3.16699 -12 -4.5c-10.667 -6 -18.667 -15.5 -24 -28.5s-5.66602 -33.5 -0.999023 -61.5l16.5 -96.5c4.33301 -24.333 7.5 -41.166 9.5 -50.499
c5.33301 -27.333 10.833 -52.666 16.5 -75.999s11.834 -45 18.501 -65c16 -48.667 40.333 -83 73 -103c28.667 -18.667 70.334 -28 125.001 -28c110 0 178.667 44 206 132c2.66699 8.66699 6.33398 23.5 11.001 44.5s10.334 48.5 17.001 82.5
c14.667 70.667 23.667 121 27 151c4 35.333 3.33301 58.666 -2 69.999c-4.66699 8.66699 -19.334 21.334 -44.001 38.001h189v0z" />
    <glyph glyph-name="udieresis" unicode="&#xfc;" horiz-adv-x="856" 
d="M380 664c0 -13.333 -5.16699 -24.833 -15.5 -34.5s-21.5 -14.5 -33.5 -14.5c-11.333 0 -22.333 5 -33 15s-16 21.333 -16 34c0 13.333 5.16699 24.833 15.5 34.5s21.5 14.5 33.5 14.5s23.167 -4.83301 33.5 -14.5s15.5 -21.167 15.5 -34.5zM555 664
c0 -13.333 -5.16699 -24.833 -15.5 -34.5s-21.5 -14.5 -33.5 -14.5c-11.333 0 -22.333 5 -33 15s-16 21.333 -16 34c0 13.333 5.16699 24.833 15.5 34.5s21.5 14.5 33.5 14.5s23.167 -4.83301 33.5 -14.5s15.5 -21.167 15.5 -34.5zM836 576
c-6.66699 -3.33301 -13.3379 -8.1709 -20.0049 -14.5039s-13.334 -14.166 -20.001 -23.499c-9.33301 -13.333 -18.333 -37.666 -27 -72.999c-5.33301 -30.667 -12.666 -68.834 -21.999 -114.501l-34 -161.5c-29.333 -127.333 -123 -191 -281 -191
c-72.667 0 -128.334 11.333 -167.001 34c-50 28.667 -86 81.334 -108 158.001c-2 6.66699 -6.33301 25.167 -13 55.5l-27 127.5c-9.33301 46 -17.666 82.5 -24.999 109.5s-13.666 45.167 -18.999 54.5c-9.33301 16.667 -25.333 29.667 -48 39h198
c-4.66699 -1.33301 -9 -2.83301 -13 -4.5s-8 -3.16699 -12 -4.5c-10.667 -6 -18.667 -15.5 -24 -28.5s-5.66602 -33.5 -0.999023 -61.5l16.5 -96.5c4.33301 -24.333 7.5 -41.166 9.5 -50.499c5.33301 -27.333 10.833 -52.666 16.5 -75.999s11.834 -45 18.501 -65
c16 -48.667 40.333 -83 73 -103c28.667 -18.667 70.334 -28 125.001 -28c110 0 178.667 44 206 132c2.66699 8.66699 6.33398 23.5 11.001 44.5s10.334 48.5 17.001 82.5c14.667 70.667 23.667 121 27 151c4 35.333 3.33301 58.666 -2 69.999
c-4.66699 8.66699 -19.334 21.334 -44.001 38.001h189v0z" />
    <glyph glyph-name="yacute" unicode="&#xfd;" horiz-adv-x="784" 
d="M348 615l-16.001 5l65 130c10 19.333 21.667 29 35 29c26 0 39 -9 39 -27c0 -3.33301 -0.333008 -6 -1 -8c-1.33301 -4 -8.66602 -14 -21.999 -30zM757.999 503c-4.66699 2.66699 -9.33398 3.99805 -14.001 3.99805c-4 0 -16.333 -4.66699 -37 -14
c-18 -10.667 -31.667 -20.667 -41 -30c-64 -64 -144 -140 -240 -228v-142c0 -19.333 2.33301 -36 7 -50c6.66699 -20.667 22.334 -35 47.001 -43h-184c24.667 8 40.334 22.333 47.001 43c5.33301 18 8 34.667 8 50v145l-237 225c-11.333 10.667 -25.333 20.667 -42 30
c-20.667 9.33301 -33 14 -37 14s-8.33301 -1.33301 -13 -4l100 103c-2 -5.33301 -3 -9.66602 -3 -12.999c0 -5.33301 5 -17.333 15 -36c7.33301 -13.333 17.666 -26.333 30.999 -39l225 -216c34 30 69.333 62.833 106 98.5l118 117.5c16 16 26.667 29 32 39
c10 18 15 29.667 15 35c0 4.66699 -1.33301 9.33398 -4 14.001l101 -103v0z" />
    <glyph glyph-name="ydieresis" unicode="&#xff;" horiz-adv-x="784" 
d="M345 664c0 -13.333 -5.16699 -24.833 -15.5 -34.5s-21.5 -14.5 -33.5 -14.5c-11.333 0 -22.333 5 -33 15s-16 21.333 -16 34c0 13.333 5.16699 24.833 15.5 34.5s21.5 14.5 33.5 14.5s23.167 -4.83301 33.5 -14.5s15.5 -21.167 15.5 -34.5zM520 664
c0 -13.333 -5.16699 -24.833 -15.5 -34.5s-21.5 -14.5 -33.5 -14.5c-11.333 0 -22.333 5 -33 15s-16 21.333 -16 34c0 13.333 5.16699 24.833 15.5 34.5s21.5 14.5 33.5 14.5s23.167 -4.83301 33.5 -14.5s15.5 -21.167 15.5 -34.5zM758 503
c-4.66699 2.66699 -9.33398 3.99805 -14.001 3.99805c-4 0 -16.333 -4.66699 -37 -14c-18 -10.667 -31.667 -20.667 -41 -30c-64 -64 -144 -140 -240 -228v-142c0 -19.333 2.33301 -36 7 -50c6.66699 -20.667 22.334 -35 47.001 -43h-184c24.667 8 40.334 22.333 47.001 43
c5.33301 18 8 34.667 8 50v145l-237 225c-11.333 10.667 -25.333 20.667 -42 30c-20.667 9.33301 -33 14 -37 14s-8.33301 -1.33301 -13 -4l100 103c-2 -5.33301 -3 -9.66602 -3 -12.999c0 -5.33301 5 -17.333 15 -36c7.33301 -13.333 17.666 -26.333 30.999 -39l225 -216
c34 30 69.333 62.833 106 98.5l118 117.5c16 16 26.667 29 32 39c10 18 15 29.667 15 35c0 4.66699 -1.33301 9.33398 -4 14.001l101 -103v0z" />
    <glyph glyph-name="dotlessi" unicode="&#x131;" horiz-adv-x="220" 
d="M198 0l-184 0.00292969c24 7.33301 40 21.666 48 42.999c5.33301 21.333 8 38 8 50v392c0 11.333 -2.66699 27.666 -8 48.999c-8 22 -24 36.667 -48 44h184c-24.667 -8 -40.334 -22.667 -47.001 -44c-4.66699 -14.667 -7 -31 -7 -49v-392
c0 -18.667 2.33301 -35.334 7 -50.001c6.66699 -20.667 22.334 -35 47.001 -43z" />
    <glyph glyph-name="Scaron" unicode="&#x160;" horiz-adv-x="860" 
d="M438 765h-66l-93 137h41l86 -100l85 100h42zM825 191c-4.66699 -61.333 -54.0029 -114.676 -148.003 -160.009c-66 -20.667 -142 -31 -228 -31c-36 0 -73.667 2 -113 6s-81 9.66699 -125 17c-1.33301 0.666992 -4.16602 1.5 -8.49902 2.5s-9.83301 2.5 -16.5 4.5
c-10 2.66699 -18.667 4 -26 4c-6 0 -12 -1 -18 -3c-1.33301 -0.666992 -3.5 -2.16699 -6.5 -4.5s-6.83301 -5.16602 -11.5 -8.49902c-8.66699 -7.33301 -14.667 -11 -18 -11c-4 0 -7.66699 2.66699 -11 8c-3.33301 11.333 -7.83301 25 -13.5 41l-19.5 56l-19.5 56
c-5.66699 16 -10.167 29.667 -13.5 41c2 2.66699 4.66699 4 8 4c109.333 -96.667 250.333 -145 423 -145c20.667 0 41.334 0.666992 62.001 2s41.667 3.33301 63 6c83.333 22 131 57.333 143 106c4 28.667 -11.333 55.334 -46 80.001c-54 25.333 -145.333 50.333 -274 75
c-62 11.333 -115.333 24 -160 38s-81.667 28.667 -111 44c-48.667 26 -73 69 -73 129c0 50.667 31.333 93.334 94 128.001c56 32 127.333 48 214 48c42 0 87.667 -4 137 -12l41.5 -9.5c16.333 -3.66699 35.833 -7.83398 58.5 -12.501c8.66699 -1.33301 18 2.33398 28 11.001
s18.333 12.334 25 11.001l33 -84c14 -33.333 28 -60.333 42 -81c1.33301 -3.33301 0.666016 -5.66602 -2.00098 -6.99902c-1.33301 -1.33301 -3.33301 -1.33301 -6 0c-2 0.666992 -4 1 -6 1c-58 48 -151 85.667 -279 113c-12.667 1.33301 -24.667 2.33301 -36 3
s-22.666 1 -33.999 1c-73.333 0 -132.333 -13.333 -177 -40c-15.333 -7.33301 -30.333 -22.666 -45 -45.999c-8.66699 -20 -6.66699 -39.333 6 -58c22.667 -22.667 56 -39.667 100 -51l56 -14l56 -14l103.5 -20l103.5 -20c40 -9.33301 75.833 -20.666 107.5 -33.999
s59.834 -28.666 84.501 -45.999c41.333 -39.333 60 -80.666 56 -123.999z" />
    <glyph glyph-name="scaron" unicode="&#x161;" horiz-adv-x="688" 
d="M360 621h-66l-93 137h41l86 -100l85 100h42zM660 153c-4 -49.333 -43.3311 -92 -117.998 -128c-54 -16.667 -115.667 -25 -185 -25c-58.667 0 -121.334 6 -188.001 18c-3.33301 0.666992 -10.333 2.66699 -21 6c-8 2 -14.667 3 -20 3
c-4.66699 0 -8.83398 -0.5 -12.501 -1.5s-9.16699 -4.83301 -16.5 -11.5c-7.33301 -6 -12.333 -9 -15 -9c-3.33301 0 -6 2.33301 -8 7c-2.66699 9.33301 -6.16699 20.333 -10.5 33l-15.5 45l-15.5 45c-4.33301 12.667 -8.16602 23.334 -11.499 32.001c2 2 4.33301 3 7 3
c87.333 -76.667 200 -115 338 -115c32.667 0 66 2 100 6c68 18 106 46.333 114 85c4 22 -8 43.333 -36 64c-42.667 20 -116 40 -220 60c-49.333 9.33301 -91.833 19.333 -127.5 30s-65.167 22.334 -88.5 35.001c-39.333 21.333 -59 55.666 -59 102.999
c0 40.667 25 75 75 103c45.333 25.333 102.666 38 171.999 38c33.333 0 69.666 -3 108.999 -9l34 -7.5l46 -10.5c3.33301 -0.666992 7 0 11 2s8 4.33301 12 7s7.83301 5 11.5 7s6.5 2.66699 8.5 2c4.66699 -11.333 9 -22.5 13 -33.5s8.33301 -22.167 13 -33.5
c5.33301 -13.333 10.833 -25.333 16.5 -36s11.5 -20.334 17.5 -29.001c0 -2.66699 -0.666992 -4.66699 -2 -6c-0.666992 -0.666992 -2.33398 -0.666992 -5.00098 0c-1.33301 0 -2.16602 0.166992 -2.49902 0.5s-0.833008 0.5 -1.5 0.5h-1
c-44.667 38.667 -119 68.667 -223 90c-20 2 -38.667 3 -56 3c-57.333 0 -104.333 -10.667 -141 -32c-13.333 -6 -25.333 -18 -36 -36c-7.33301 -15.333 -6 -31 4 -47c19.333 -18.667 46.333 -32.334 81 -41.001c14.667 -3.33301 29.334 -7 44.001 -11
s29.667 -7.66699 45 -11l83 -16l83 -16c64 -15.333 115 -36.666 153 -63.999c32.667 -31.333 47.667 -64.333 45 -99z" />
    <glyph glyph-name="Ydieresis" unicode="&#x178;" 
d="M443 818c0 -13.333 -5.16699 -24.833 -15.5 -34.5s-21.5 -14.5 -33.5 -14.5c-11.333 0 -22.333 5 -33 15s-16 21.333 -16 34c0 13.333 5.16699 24.833 15.5 34.5s21.5 14.5 33.5 14.5s23.167 -4.83301 33.5 -14.5s15.5 -21.167 15.5 -34.5zM618 818
c0 -13.333 -5.16699 -24.833 -15.5 -34.5s-21.5 -14.5 -33.5 -14.5c-11.333 0 -22.333 5 -33 15s-16 21.333 -16 34c0 13.333 5.16699 24.833 15.5 34.5s21.5 14.5 33.5 14.5s23.167 -4.83301 33.5 -14.5s15.5 -21.167 15.5 -34.5zM947 629
c-5.33301 2.66699 -11.333 4.00098 -18 4.00098c-6 0 -21 -5.66699 -45 -17c-9.33301 -4.66699 -18.333 -10.167 -27 -16.5s-17 -13.166 -25 -20.499l-300 -285v-178c0 -22.667 3 -43.334 9 -62.001c9.33301 -27.333 29 -45.333 59 -54h-230c30 8.66699 49.667 26.667 59 54
c6.66699 20 10 40.667 10 62v181l-297 282c-8 7.33301 -16.333 14.166 -25 20.499s-17.667 11.833 -27 16.5c-24 11.333 -39 17 -45 17c-6.66699 0 -12.667 -1.33301 -18 -4l126 129c-3.33301 -6.66699 -5 -12.334 -5 -17.001c0 -7.33301 6.33301 -22.333 19 -45
c8.66699 -15.333 21.667 -31.666 39 -48.999l109.5 -105.5l171.5 -164.5l133 123l148 147c17.333 17.333 30.333 33.666 39 48.999c12.667 22.667 19 37.667 19 45c0 4.66699 -1.66699 10.334 -5 17.001l126 -129v0z" />
    <glyph glyph-name="Zcaron" unicode="&#x17d;" horiz-adv-x="930" 
d="M498 765h-66l-93 137h41l86 -100l85 100h42zM279 84c101.333 -1.33301 187 -2.00098 257 -2.00098s125.667 0.333008 167 1c42 0.666992 72 20.667 90 60c13.333 -55.333 40 -103.666 80 -144.999l-823 1l131 124.5l120 116.5l236 232c65.333 65.333 118 120 158 164
h-458c-46 0 -76.667 -21.667 -92 -65l-112 148l867 1z" />
    <glyph glyph-name="zcaron" unicode="&#x17e;" horiz-adv-x="744" 
d="M396 621h-66l-93 137h41l86 -100l85 100h42zM223 67l339.002 -1c34.667 0.666992 58.667 16.667 72 48c11.333 -44 32.666 -82.667 63.999 -116l-658 1l104.5 99.5l95.5 92.5l189.5 187l126.5 131h-366c-38.667 0 -63.334 -17.333 -74.001 -52l-90 118l694 1z" />
    <glyph glyph-name="uni02C6" unicode="&#x2c6;" horiz-adv-x="300" 
d="M278 621h-42l-85 100l-86 -100h-41l93 137h66z" />
    <glyph glyph-name="uni02C7" unicode="&#x2c7;" horiz-adv-x="300" 
d="M287 758l-95 -137h-66l-93 137h41l86 -100l85 100h42z" />
    <glyph glyph-name="uni02D8" unicode="&#x2d8;" horiz-adv-x="300" 
d="M259 723c-0.666992 -62.667 -40.332 -94 -118.999 -94c-32.667 0 -59.334 7.66699 -80.001 23c-24 17.333 -35 41 -33 71h17c3.33301 -16 15.333 -28.667 36 -38c17.333 -7.33301 36 -11 56 -11c60 0 95.333 16.333 106 49h17z" />
    <glyph glyph-name="uni02D9" unicode="&#x2d9;" horiz-adv-x="200" 
d="M139 664c0 -10.667 -4.16699 -19.834 -12.5 -27.501s-17.166 -11.5 -26.499 -11.5s-18.166 3.83301 -26.499 11.5s-12.5 16.834 -12.5 27.501s4.16699 19.834 12.5 27.501s17.166 11.5 26.499 11.5s18.166 -3.83301 26.499 -11.5s12.5 -16.834 12.5 -27.501z" />
    <glyph glyph-name="uni02DA" unicode="&#x2da;" horiz-adv-x="160" 
d="M159 689c0 -21.333 -7.5 -39.833 -22.5 -55.5s-33.833 -23.5 -56.5 -23.5s-41.5 7.83301 -56.5 23.5s-22.5 34.167 -22.5 55.5c0 22 7.5 40.667 22.5 56s33.833 23 56.5 23s41.5 -7.66699 56.5 -23s22.5 -34 22.5 -56zM128 689c0 13.333 -4.66699 24.5 -14 33.5
s-20.666 13.5 -33.999 13.5s-24.666 -4.5 -33.999 -13.5s-14 -20.167 -14 -33.5s4.66699 -24.666 14 -33.999s20.666 -14 33.999 -14s24.666 4.66699 33.999 14s14 20.666 14 33.999z" />
    <glyph glyph-name="uni02DB" unicode="&#x2db;" horiz-adv-x="300" 
d="M256 -125c-56 -35.333 -97.667 -53 -125 -53c-26 0 -47.667 6.5 -65 19.5s-26 31.833 -26 56.5c0 38 25.333 67.667 76 89c7.33301 3.33301 46.666 14.666 117.999 33.999v-10c-47.333 -17.333 -77.666 -29.666 -90.999 -36.999c-34.667 -20.667 -52 -46 -52 -76
c0 -14 5.16699 -25 15.5 -33s22.5 -12 36.5 -12c23.333 0 56.333 13.667 99 41z" />
    <glyph glyph-name="uni02DC" unicode="&#x2dc;" horiz-adv-x="300" 
d="M289 716c-3.33301 -22.667 -12.332 -41.667 -26.999 -57c-16.667 -16 -36 -24 -58 -24c-18 0 -34.667 3.33301 -50 10c-21.333 6.66699 -38.333 10 -51 10c-18.667 0 -31.334 -8.66699 -38.001 -26l-34 -3c2 20.667 10.667 39 26 55s33 24 53 24
c13.333 0 32.333 -3.5 57 -10.5s42.334 -10.5 53.001 -10.5c13.333 0 24.666 10.667 33.999 32h35z" />
    <glyph glyph-name="uni02DD" unicode="&#x2dd;" horiz-adv-x="330" 
d="M299 758l-103 -137h-46l76 137h73zM182 758l-103 -137h-47l77 137h73z" />
    <glyph glyph-name="uni0401" unicode="&#x401;" horiz-adv-x="1000" 
d="M415 818c0 -13.333 -5.16699 -24.833 -15.5 -34.5s-21.5 -14.5 -33.5 -14.5c-11.333 0 -22.333 5 -33 15s-16 21.333 -16 34c0 13.333 5.16699 24.833 15.5 34.5s21.5 14.5 33.5 14.5s23.167 -4.83301 33.5 -14.5s15.5 -21.167 15.5 -34.5zM590 818
c0 -13.333 -5.16699 -24.833 -15.5 -34.5s-21.5 -14.5 -33.5 -14.5c-11.333 0 -22.333 5 -33 15s-16 21.333 -16 34c0 13.333 5.16699 24.833 15.5 34.5s21.5 14.5 33.5 14.5s23.167 -4.83301 33.5 -14.5s15.5 -21.167 15.5 -34.5zM839 0l-794.999 -0.000976562
c27.333 6.66699 45.666 23.667 54.999 51c6.66699 20 10 40.667 10 62v490c0 21.333 -3.33301 42 -10 62c-9.33301 27.333 -29 45.333 -59 54h715c31.333 0 50.333 -2.33301 57 -7c26.667 -23.333 68 -62.666 124 -117.999c-82 28.667 -142.667 43 -182 43h-545v-220h643
c26 0 47.667 8.66699 65 26v-132c-19.333 16.667 -40 25 -62 25h-648v-245h627c29.333 0 74 13 134 39z" />
    <glyph glyph-name="uni0402" unicode="&#x402;" horiz-adv-x="1036" 
d="M484 418l268.998 0.000976562c48 0 90 -13 126 -39c30 -21.333 51.5 -47.5 64.5 -78.5s19.5 -64.5 19.5 -100.5c0 -56 -20.333 -103.333 -61 -142s-90 -58 -148 -58l6 88c34.667 0 64.334 12.333 89.001 37s37 54.334 37 89.001c0 33.333 -12.667 62.666 -38 87.999
c-24.667 24.667 -54.334 37 -89.001 37h-275l1 -223c0 -22.667 3 -43.334 9 -62.001c4.66699 -16 24.334 -34 59.001 -54h-230c30 8.66699 49.667 26.667 59 54c6.66699 20 10 40.667 10 62v224h-93c-10 -4.66699 -19.167 -11 -27.5 -19s-15.166 -15.333 -20.499 -22
l-71 119h212v226c-54.667 0 -101.334 -0.5 -140.001 -1.5s-70.667 -2.16699 -96 -3.5c-19.333 -8.66699 -35 -20 -47 -34l-71 119h960l-71 -119c-12 14 -27.667 25.333 -47 34c-12.667 0.666992 -33 1.33398 -61 2.00098s-60.167 1.16699 -96.5 1.5
s-75.166 0.666016 -116.499 0.999023s-82 0.5 -122 0.5v-226z" />
    <glyph glyph-name="uni0403" unicode="&#x403;" horiz-adv-x="920" 
d="M446 776l-16.001 5l65 130c10 19.333 21.667 29 35 29c26 0 39 -9 39 -27c0 -3.33301 -0.333008 -6 -1 -8c-1.33301 -4 -8.66602 -14 -21.999 -30zM30.999 724c30 -8.66699 49.668 -26.667 59.001 -54c6.66699 -20 10 -40.667 10 -62v-492
c0 -21.333 -3.33301 -42 -10 -62c-9.33301 -27.333 -29 -45.333 -59 -54h230c-30 8.66699 -49.667 26.667 -59 54c-6 18 -9 38.667 -9 62l-1 511h556c11.333 0 22 -7 32 -21c4 -5.33301 8 -11 12 -17l12 -18h3c17.333 38.667 51.666 89.667 102.999 153h-879z" />
    <glyph glyph-name="uni0404" unicode="&#x404;" horiz-adv-x="1000" 
d="M958 251c-18 -19.333 -37.8311 -39 -59.498 -59s-45.167 -40 -70.5 -60c-40.667 -42.667 -90.667 -76 -150 -100c-60 -24.667 -124 -37 -192 -37c-122 0 -226.667 37.667 -314 113c-86.667 74.667 -130 164.667 -130 270c0 104 43 193.667 129 269
c87.333 75.333 192.333 113 315 113c108.667 0 204.667 -30.667 288 -92h1c14.667 -12 34.167 -27 58.5 -45l88.5 -64c20 -13.333 30 -22 30 -26h-271c22.667 16 34 28.333 34 37c0 15.333 -3.33301 28.333 -10 39l-12 12c-63.333 36 -132.333 54 -207 54
c-87.333 0 -164.333 -23 -231 -69c-67.333 -46 -108.333 -104.333 -123 -175h761c22.667 0 45.334 9.66699 68.001 29v-142c-24 18 -45.667 27 -65 27h-767c11.333 -75.333 50.666 -138.333 117.999 -189s147 -76 239 -76c81.333 0 151.666 19 210.999 57l14 9l35.5 33
c11.667 11.333 17.5 23 17.5 35c0 6 -1.33301 11.833 -4 17.5s-9.33398 12.5 -20.001 20.5s-17 15.333 -19 22h259z" />
    <glyph glyph-name="uni0405" unicode="&#x405;" horiz-adv-x="860" 
d="M825 191c-4.66699 -61.333 -54.0029 -114.676 -148.003 -160.009c-66 -20.667 -142 -31 -228 -31c-36 0 -73.667 2 -113 6s-81 9.66699 -125 17c-1.33301 0.666992 -4.16602 1.5 -8.49902 2.5s-9.83301 2.5 -16.5 4.5c-10 2.66699 -18.667 4 -26 4c-6 0 -12 -1 -18 -3
c-1.33301 -0.666992 -3.5 -2.16699 -6.5 -4.5s-6.83301 -5.16602 -11.5 -8.49902c-8.66699 -7.33301 -14.667 -11 -18 -11c-4 0 -7.66699 2.66699 -11 8c-3.33301 11.333 -7.83301 25 -13.5 41l-19.5 56l-19.5 56c-5.66699 16 -10.167 29.667 -13.5 41
c2 2.66699 4.66699 4 8 4c109.333 -96.667 250.333 -145 423 -145c20.667 0 41.334 0.666992 62.001 2s41.667 3.33301 63 6c83.333 22 131 57.333 143 106c4 28.667 -11.333 55.334 -46 80.001c-54 25.333 -145.333 50.333 -274 75c-62 11.333 -115.333 24 -160 38
s-81.667 28.667 -111 44c-48.667 26 -73 69 -73 129c0 50.667 31.333 93.334 94 128.001c56 32 127.333 48 214 48c42 0 87.667 -4 137 -12l41.5 -9.5c16.333 -3.66699 35.833 -7.83398 58.5 -12.501c8.66699 -1.33301 18 2.33398 28 11.001s18.333 12.334 25 11.001l33 -84
c14 -33.333 28 -60.333 42 -81c1.33301 -3.33301 0.666016 -5.66602 -2.00098 -6.99902c-1.33301 -1.33301 -3.33301 -1.33301 -6 0c-2 0.666992 -4 1 -6 1c-58 48 -151 85.667 -279 113c-12.667 1.33301 -24.667 2.33301 -36 3s-22.666 1 -33.999 1
c-73.333 0 -132.333 -13.333 -177 -40c-15.333 -7.33301 -30.333 -22.666 -45 -45.999c-8.66699 -20 -6.66699 -39.333 6 -58c22.667 -22.667 56 -39.667 100 -51l56 -14l56 -14l103.5 -20l103.5 -20c40 -9.33301 75.833 -20.666 107.5 -33.999
s59.834 -28.666 84.501 -45.999c41.333 -39.333 60 -80.666 56 -123.999z" />
    <glyph glyph-name="uni0406" unicode="&#x406;" horiz-adv-x="270" 
d="M18 0c30 8.66699 49.667 26.668 59 54.001c6.66699 20 10 40.667 10 62v490c0 21.333 -3.33301 42 -10 62c-9.33301 27.333 -29 45.333 -59 54h230c-30 -8.66699 -49.667 -26.667 -59 -54c-6 -19.333 -9 -40 -9 -62v-490c0 -22.667 3 -43.334 9 -62.001
c9.33301 -27.333 29 -45.333 59 -54h-230z" />
    <glyph glyph-name="uni0407" unicode="&#x407;" horiz-adv-x="273" 
d="M98 818c0 -13.333 -5.16699 -24.833 -15.5 -34.5s-21.5 -14.5 -33.5 -14.5c-11.333 0 -22.333 5 -33 15s-16 21.333 -16 34c0 13.333 5.16699 24.833 15.5 34.5s21.5 14.5 33.5 14.5s23.167 -4.83301 33.5 -14.5s15.5 -21.167 15.5 -34.5zM273 818
c0 -13.333 -5.16699 -24.833 -15.5 -34.5s-21.5 -14.5 -33.5 -14.5c-11.333 0 -22.333 5 -33 15s-16 21.333 -16 34c0 13.333 5.16699 24.833 15.5 34.5s21.5 14.5 33.5 14.5s23.167 -4.83301 33.5 -14.5s15.5 -21.167 15.5 -34.5zM21 0c30 8.66699 49.667 26.668 59 54.001
c6.66699 20 10 40.667 10 62v492c0 21.333 -3.33301 42 -10 62c-9.33301 27.333 -29 45.333 -59 54h230c-30 -8.66699 -49.667 -26.667 -59 -54c-6 -19.333 -9 -40 -9 -62v-492c0 -22.667 3 -43.334 9 -62.001c9.33301 -27.333 29 -45.333 59 -54h-230z" />
    <glyph glyph-name="uni0408" unicode="&#x408;" horiz-adv-x="899" 
d="M616 193c0 -58.667 -25.333 -106.334 -76 -143.001c-46.667 -33.333 -99.334 -50 -158.001 -50c-48.667 0 -89.667 11.667 -123 35c-22 10.667 -46.667 34.667 -74 72c-13.333 18.667 -25.5 34.167 -36.5 46.5s-21.167 21.166 -30.5 26.499l52 35.5l73 50.5
c1.33301 -3.33301 0.333008 -7.66602 -3 -12.999s-5 -9.66602 -5 -12.999c-0.666992 -3.33301 -1 -6.33301 -1 -9v-9c0 -54.667 30 -100.334 90 -137.001c18 -8.66699 38 -13 60 -13c35.333 0 66.333 10.333 93 31c21.333 16.667 34.666 41.667 39.999 75
c0.666992 3.33301 1.33398 12.5 2.00098 27.5s1.33398 35.5 2.00098 61.5c0 7.33301 0.166992 21.833 0.5 43.5s0.5 48.834 0.5 81.501v114v138c-40 0 -79.667 -0.166992 -119 -0.5s-75.833 -0.666016 -109.5 -0.999023s-63.5 -0.833008 -89.5 -1.5
s-45.333 -1.33398 -58 -2.00098c-19.333 -8.66699 -35 -20 -47 -34l-71 119h840l-71 -119c-12 14 -27.667 25.333 -47 34c-1.33301 0.666992 -8.83301 1.33398 -22.5 2.00098s-28.5 1.16699 -44.5 1.5s-30.667 0.666016 -44 0.999023s-21 0.5 -23 0.5v-451z" />
    <glyph glyph-name="uni0409" unicode="&#x409;" horiz-adv-x="1252" 
d="M1130 214c0 33.333 -12.668 62.666 -38.001 87.999s-55 38 -89 38h-201l138 -252h64c34.667 0 64.334 12.333 89.001 37s37 54.334 37 89.001zM996.999 418c48 0 90 -13 126 -39c30 -21.333 51.5 -47.5 64.5 -78.5s19.5 -64.5 19.5 -100.5
c0 -56 -20.333 -103.333 -61 -142s-90 -58 -148 -58h-251c34.667 19.333 56.334 38.333 65.001 57c5.33301 10.667 8 21.334 8 32.001c0 13.333 -4 27.666 -12 42.999l-264 507l-163 -307c-44 -84.667 -77.667 -151.334 -101 -200.001c-7.33301 -16 -11 -30.667 -11 -44
c0 -11.333 2.33301 -21.666 7 -30.999c5.33301 -12 18 -25.333 38 -40c9.33301 -7.33301 18.333 -13 27 -17h-310c49.333 22.667 81.666 42.667 96.999 60l29.5 45c8.33301 12.667 14.833 23.667 19.5 33l172.5 317c44.333 84 75.833 146 94.5 186h-164
c-23.333 0 -42.333 -8.33301 -57 -25c-8 -12 -13 -21 -15 -27l-77 135h826l-77 -135c-5.33301 12.667 -10.333 21.667 -15 27c-14.667 16.667 -33.667 25 -57 25h-164l51 -98l66 -125h236z" />
    <glyph glyph-name="uni040A" unicode="&#x40a;" horiz-adv-x="1226" 
d="M1102 214c0 33.333 -12.668 62.666 -38.001 87.999s-55 38 -89 38h-223v-252h224c34.667 0 64.334 12.333 89.001 37s37 54.334 37 89.001zM968.999 418c48 0 90 -12.999 126 -38.999c30 -21.333 51.5 -47.5 64.5 -78.5s19.5 -64.5 19.5 -100.5
c0 -56 -20.333 -103.333 -61 -142s-90 -58 -148 -58h-380c30 8.66699 49.667 26.667 59 54c6.66699 20 10 40.667 10 62v224h-460v-224c0 -22.667 3 -43.334 9 -62.001c9.33301 -27.333 29 -45.333 59 -54h-230c30 8.66699 49.667 26.667 59 54c6.66699 20 10 40.667 10 62
v492c0 21.333 -3.33301 42 -10 62c-9.33301 27.333 -29 45.333 -59 54h230c-30 -8.66699 -49.667 -26.667 -59 -54c-6 -19.333 -9 -40 -9 -62v-190h460v190c0 21.333 -3.33301 42 -10 62c-9.33301 27.333 -29 45.333 -59 54h230c-30 -8.66699 -49.667 -26.667 -59 -54
c-6 -19.333 -9 -40 -9 -62v-190h217z" />
    <glyph glyph-name="uni040B" unicode="&#x40b;" horiz-adv-x="1036" 
d="M876 214c0 33.333 -12.668 62.668 -38.001 88.001c-24.667 24.667 -54.334 37 -89.001 37h-265l1 -223c0 -22.667 3 -43.334 9 -62.001c4.66699 -16 24.334 -34 59.001 -54h-230c30 8.66699 49.667 26.667 59 54c6.66699 20 10 40.667 10 62v224h-93
c-10 -4.66699 -19.167 -11 -27.5 -19s-15.166 -15.333 -20.499 -22l-71 119h212v226c-54.667 0 -101.334 -0.5 -140.001 -1.5s-70.667 -2.16699 -96 -3.5c-19.333 -8.66699 -35 -20 -47 -34l-71 119h960l-71 -119c-12 14 -27.667 25.333 -47 34
c-12.667 0.666992 -33 1.33398 -61 2.00098s-60.167 1.16699 -96.5 1.5s-75.166 0.666016 -116.499 0.999023s-82 0.5 -122 0.5v-226h259c48 0 90 -13 126 -39c30 -21.333 51.5 -47.5 64.5 -78.5s19.5 -64.5 19.5 -100.5v-84c0 -21.333 3.33301 -42 10 -62
c9.33301 -27.333 29 -45.333 59 -54h-215c30 8.66699 49.667 26.667 59 54c6.66699 20 10 40.667 10 62v98z" />
    <glyph glyph-name="uni040C" unicode="&#x40c;" horiz-adv-x="952" 
d="M446 776l-16.001 5l65 130c10 19.333 21.667 29 35 29c26 0 39 -9 39 -27c0 -3.33301 -0.333008 -6 -1 -8c-1.33301 -4 -8.66602 -14 -21.999 -30zM28.999 0c30 8.66699 49.667 26.668 59 54.001c6.66699 20 10 40.667 10 62v492c0 21.333 -3.33301 42 -10 62
c-9.33301 27.333 -29 45.333 -59 54h230c-30 -8.66699 -49.667 -26.667 -59 -54c-6 -19.333 -9 -40 -9 -62v-492c0 -22.667 3 -43.334 9 -62.001c9.33301 -27.333 29 -45.333 59 -54h-230zM848.999 -27.999c-6 23.333 -17.333 41.3311 -34 53.998
c-36 26.667 -105.667 69.667 -209 129l-415 230v11l273 137l250 131c5.33301 2.66699 11.833 6.33398 19.5 11.001l27.5 17c18.667 12.667 31 31.667 37 57l74 -140c-28 8.66699 -51 7.66699 -69 -3l-205 -103.5l-223 -115.5
c-2.66699 -1.33301 -2.66699 -2.66602 0 -3.99902l219 -124l263 -147c24.667 -13.333 48.667 -16.333 72 -9z" />
    <glyph glyph-name="uni040E" unicode="&#x40e;" 
d="M751 930c23.333 0 42.333 8.33301 57 25c4.66699 4.66699 9.66699 13.667 15 27l77 -135h-826l77 135c2 -6 7 -15 15 -27c14.667 -16.667 33.667 -25 57 -25h528zM531 293l-35.999 -57.5l-27 -45.5l-28.5 -52.5l-40.5 -78.5c-10.667 -21.333 -18 -41 -22 -59
c-6 -24.667 -7.66699 -40.667 -5 -48c0.666992 -2.66699 1.83398 -5.16699 3.50098 -7.5l5.5 -7.5l-158 86c6.66699 -0.666992 12.667 0 18 2c6.66699 2 19.667 11.667 39 29c7.33301 7.33301 14.166 15.333 20.499 24s12.166 17.667 17.499 27l23.5 42l22 38.5l27.5 48
l40 70.5l-289 275c-8 7.33301 -16.333 14.166 -25 20.499s-17.667 11.833 -27 16.5c-24 11.333 -39 17 -45 17c-6.66699 0 -12.667 -1.33301 -18 -4l126 129c-3.33301 -6.66699 -5 -12.334 -5 -17.001c0 -7.33301 6.33301 -22.333 19 -45
c8.66699 -15.333 21.667 -31.666 39 -48.999l109.5 -105.5l171.5 -164.5l133 123l148 147c17.333 17.333 30.333 33.666 39 48.999c12.667 22.667 19 37.667 19 45c0 4.66699 -1.66699 10.334 -5 17.001l126 -129c-5.33301 2.66699 -11.333 4 -18 4
c-6 0 -21 -5.66699 -45 -17c-9.33301 -4.66699 -18.333 -10.167 -27 -16.5s-17 -13.166 -25 -20.499l-120 -115z" />
    <glyph glyph-name="uni040F" unicode="&#x40f;" horiz-adv-x="1050" 
d="M577 0c0 -22.667 3 -43.333 9 -62c9.33301 -27.333 29 -45.333 59 -54h-230c30 8.66699 49.667 26.667 59 54c6.66699 20 10 40.667 10 62h-447c30 8.66699 49.667 26.667 59 54c6.66699 20 10 40.667 10 62v492c0 21.333 -3.33301 42 -10 62
c-9.33301 27.333 -29 45.333 -59 54h230c-30 -8.66699 -49.667 -26.667 -59 -54c-6 -19.333 -9 -40 -9 -62v-539h660v539c0 21.333 -3.33301 42 -10 62c-9.33301 27.333 -29 45.333 -59 54h230c-30 -8.66699 -49.667 -26.667 -59 -54c-6 -19.333 -9 -40 -9 -62v-492
c0 -21.333 3.33301 -42 10 -62c9.33301 -27.333 29 -45.333 59 -54h-444z" />
    <glyph glyph-name="uni0410" unicode="&#x410;" horiz-adv-x="1050" 
d="M769 323l-56.501 157.499l-58.5 160.5c-15.333 0 -33.833 -0.166992 -55.5 -0.5s-47.167 -0.166016 -76.5 0.500977h-124c-2 0 -17.667 -39.667 -47 -119l-40 -113.5c-11.333 -33 -20.666 -61.167 -27.999 -84.5c0.666992 -0.666992 162.667 -1 486 -1zM784.999 -1.00098
c4.66699 2.66699 9.00293 5.00098 13.0029 7.00098s7.66699 4.33301 11 7c16.667 11.333 27 21 31 29s6 17.333 6 28c0 10 -4.66699 31 -14 63c-3.33301 10.667 -8.66602 25.667 -15.999 45l-28 74l-529 -1c-15.333 -36 -27.5 -69.833 -36.5 -101.5
s-14.167 -61.834 -15.5 -90.501c-0.666992 -8 2.66602 -15.833 9.99902 -23.5l21 -21.5c1.33301 -1.33301 5.16602 -2.83301 11.499 -4.5s9.16602 -4.83398 8.49902 -9.50098h-228c48.667 38 90 103.333 124 196l68 186l92 260h-165c-16.667 -4.66699 -29.667 -16 -39 -34
c-11.333 12 -27.333 34 -48 66c-20.667 32.667 -29.334 49 -26.001 49h977c1.33301 0 -6.66699 -12.667 -24 -38l-25 -39c-6.66699 -10.667 -11.667 -19 -15 -25c-5.33301 4 -16 11 -32 21h-179l53 -141l54 -141c42.667 -111.333 81.667 -203.666 117 -276.999
c27.333 -44 53 -71.667 77 -83z" />
    <glyph glyph-name="uni0411" unicode="&#x411;" horiz-adv-x="1000" 
d="M886 214c0 33.333 -12.668 62.666 -38.001 87.999c-24.667 24.667 -54.334 37 -89.001 37h-40h-91c-41.333 0 -96.666 0.166992 -165.999 0.5s-158 0.5 -266 0.5v-252h564c34.667 0 64.334 12.333 89.001 37s37 54.334 37 89.001zM752.999 418
c48 0 89.999 -13 125.999 -39c30 -21.333 51.5 -47.5 64.5 -78.5s19.5 -64.5 19.5 -100.5c0 -56 -20.333 -103.333 -61 -142s-90 -58 -148 -58h-720c30 8.66699 49.667 26.667 59 54c6.66699 20 10 40.667 10 62v492c0 21.333 -3.33301 42 -10 62
c-9.33301 27.333 -29 45.333 -59 54h879c-51.333 -63.333 -85.666 -114.333 -102.999 -153h-3l-12 18c-4 6 -8 11.667 -12 17c-10 14 -20.667 21 -32 21h-555v-209h557z" />
    <glyph glyph-name="uni0412" unicode="&#x412;" horiz-adv-x="1000" 
d="M886 214c0 33.333 -12.666 62.666 -37.999 87.999c-24.667 24.667 -54.334 37 -89.001 37h-99c-50.667 0 -120.334 0.333008 -209.001 1h-255v-252h564c34.667 0 64.334 12.333 89.001 37s37 54.334 37 89.001zM846.001 528c0 30.667 -12.667 56.667 -38 78
c-25.333 22 -55 33 -89 33h-94c-47.333 0 -112 0.333008 -194 1h-235v-222h523c34.667 0 64.667 10.667 90 32c24.667 20.667 37 46.667 37 78zM963.001 200c0 -56 -20.333 -103.334 -61 -142.001s-90 -58 -148 -58h-720c30 8.66699 49.667 26.667 59 54
c6.66699 20 10 40.667 10 62v490c0 21.333 -3.33301 42 -10 62c-9.33301 28 -29 46.667 -59 56h685c55.333 0 103.333 -17.667 144 -53c40 -35.333 60 -77.666 60 -126.999c0 -65.333 -30.333 -115.333 -91 -150c38.667 -20 70.167 -47.333 94.5 -82s36.5 -72 36.5 -112z
" />
    <glyph glyph-name="uni0413" unicode="&#x413;" horiz-adv-x="920" 
d="M910 724c-51.333 -63.333 -85.667 -114.333 -103 -153h-3l-12 18c-4 6 -8 11.667 -12 17c-10 14 -20.667 21 -32 21h-556l1 -511c0 -23.333 3 -44 9 -62c9.33301 -27.333 29 -45.333 59 -54h-230c30 8.66699 49.667 26.667 59 54c6.66699 20 10 40.667 10 62v492
c0 21.333 -3.33301 42 -10 62c-9.33301 27.333 -29 45.333 -59 54h879z" />
    <glyph glyph-name="uni0414" unicode="&#x414;" horiz-adv-x="1080" 
d="M818 72c0.666992 3.33301 1.16699 6.16895 1.5 8.50195s0.5 5.16602 0.5 8.49902c0 13.333 -4 27.666 -12 42.999l-264 507l-163 -307c-44 -84.667 -77.667 -151.334 -101 -200.001c-7.33301 -16 -11 -30.667 -11 -44c0 -3.33301 0.166992 -6.16602 0.5 -8.49902
s0.833008 -4.83301 1.5 -7.5h547v0zM31 0.00292969c49.333 22.667 81.666 42.667 96.999 60l29.5 45c8.33301 12.667 14.833 23.667 19.5 33l172.5 317c44.333 84 75.833 146 94.5 186h-164c-23.333 0 -42.333 -8.33301 -57 -25c-8 -12 -13 -21 -15 -27l-77 135h826
l-77 -135c-5.33301 12.667 -10.333 21.667 -15 27c-14.667 16.667 -33.667 25 -57 25h-164l107 -205.5l160 -297.5c22.667 -40.667 38.667 -66.334 48 -77.001c5.33301 -6 12.833 -12.5 22.5 -19.5s21.834 -14.167 36.501 -21.5
c5.33301 -3.33301 11.333 -6.66602 18 -9.99902l21 -10h-1026z" />
    <glyph glyph-name="uni0415" unicode="&#x415;" horiz-adv-x="1000" 
d="M839 0l-794.999 -0.000976562c27.333 6.66699 45.666 23.667 54.999 51c6.66699 20 10 40.667 10 62v495c0 21.333 -3.33301 42 -10 62c-9.33301 27.333 -29 45.333 -59 54h715c31.333 0 50.333 -2.33301 57 -7c26.667 -23.333 68 -62.666 124 -117.999
c-82 28.667 -142.667 43 -182 43h-545v-225h643c26 0 47.667 8.66699 65 26v-132c-19.333 16.667 -40 25 -62 25h-648v-245h627c29.333 0 74 13 134 39z" />
    <glyph glyph-name="uni0416" unicode="&#x416;" horiz-adv-x="1263" 
d="M150 -54c-0.666992 2.66699 -1.16699 4.99805 -1.5 6.99805s-0.5 4 -0.5 6c0 8.66699 7.66699 24.667 23 48c6 8.66699 12.5 16.834 19.5 24.501s14.833 15.167 23.5 22.5l366 315l-92 76l-116 99l-84 72c-18.667 16 -28.667 24.667 -30 26
c-8.66699 7.33301 -16.667 14.833 -24 22.5s-13.666 15.834 -18.999 24.501c-15.333 23.333 -23 39.333 -23 48c0 2 0.166992 4 0.5 6s0.833008 4.33301 1.5 7l-113 -141c6.66699 4.66699 13.667 7 21 7c6.66699 0 21 -4.33301 43 -13c15.333 -6 33 -17 53 -33l91 -73.5
l158 -128.5l-135.5 -110.5l-157.5 -131.5c-18.667 -16 -36.334 -27 -53.001 -33c-22 -8.66699 -36 -13 -42 -13c-7.33301 0 -14.333 2.33301 -21 7zM1111 -54.002c0.666992 2.66699 1.16699 4.99805 1.5 6.99805s0.5 4 0.5 6c0 8.66699 -7.66699 24.667 -23 48
c-6 8.66699 -12.5 16.834 -19.5 24.501s-14.833 15.167 -23.5 22.5l-366 315l92 76l116 99l84 72c18.667 16 28.667 24.667 30 26c8.66699 7.33301 16.667 14.833 24 22.5s13.666 15.834 18.999 24.501c15.333 23.333 23 39.333 23 48c0 2 -0.166992 4 -0.5 6
s-0.833008 4.33301 -1.5 7l113 -141c-6.66699 4.66699 -13.667 7 -21 7c-6.66699 0 -21 -4.33301 -43 -13c-16 -6 -33.667 -17 -53 -33l-91 -73.5l-158 -128.5l135.5 -110.5l157.5 -131.5c18.667 -16 36.334 -27 53.001 -33c22 -8.66699 36 -13 42 -13
c7.33301 0 14.333 2.33301 21 7zM515 -0.00390625c30 8.66699 49.667 26.668 59 54.001c6.66699 20 10 40.667 10 62v492c0 21.333 -3.33301 42 -10 62c-9.33301 27.333 -29 45.333 -59 54h230c-30 -8.66699 -49.667 -26.667 -59 -54c-6 -19.333 -9 -40 -9 -62v-492
c0 -22.667 3 -43.334 9 -62.001c9.33301 -27.333 29 -45.333 59 -54h-230z" />
    <glyph glyph-name="uni0417" unicode="&#x417;" horiz-adv-x="1000" 
d="M719 418c34.667 0 64.6641 10.667 89.9971 32c24.667 20.667 37 46.667 37 78c0 30.667 -12.667 56.667 -38 78c-25.333 22 -55 33 -89 33h-523c-5.33301 0 -10.666 -3.66699 -15.999 -11l-16 -22c-4 -5.33301 -8 -11 -12 -17l-12 -18h-3
c-17.333 38.667 -51.666 89.667 -102.999 153h685c55.333 0 103.333 -17.667 144 -53c40 -35.333 60 -77.666 60 -126.999c0 -65.333 -30.333 -115.333 -91 -150c38.667 -20 70.167 -47.333 94.5 -82s36.5 -72 36.5 -112c0 -56 -20.333 -103.333 -61 -142s-90 -58 -148 -58
h-720c26 32 47.5 61.167 64.5 87.5s29.833 49.166 38.5 68.499h3l12 -18c4 -6 8 -11.667 12 -17l16 -22c5.33301 -7.33301 10.666 -11 15.999 -11h564c34.667 0 64.334 12.333 89.001 37s37 54.334 37 89.001c0 33.333 -12.667 62.666 -38 87.999
c-24.667 24.667 -54.334 37 -89.001 37h-40h-91c-41.333 0 -96.666 0.166992 -165.999 0.5s-158 0.5 -266 0.5c-5.33301 0 -10.666 -3.66699 -15.999 -11l-16 -22c-4 -5.33301 -8 -11 -12 -17l-12 -18h-3c-8.66699 19.333 -20.667 40.5 -36 63.5s-36 50.5 -62 82.5h680z" />
    <glyph glyph-name="uni0418" unicode="&#x418;" horiz-adv-x="1040" 
d="M1012 722c-30 -8.66699 -49.667 -26.666 -59 -53.999c-6 -19.333 -9 -40 -9 -62v-490c0 -22.667 3 -43.334 9 -62.001c9.33301 -27.333 29 -45.333 59 -54h-230c30 8.66699 49.667 26.667 59 54c6.66699 20 10 40.667 10 62v336l-382 -264.5l-268 -187.5h-163
c30 8.66699 49.667 26.667 59 54c6.66699 20 10 40.667 10 62v490c0 21.333 -3.33301 42 -10 62c-9.33301 27.333 -29 45.333 -59 54h230c-30 -8.66699 -49.667 -26.667 -59 -54c-6 -19.333 -9 -40 -9 -62v-492l651 468v24c0 21.333 -3.33301 42 -10 62
c-9.33301 27.333 -29 45.333 -59 54h230z" />
    <glyph glyph-name="uni0419" unicode="&#x419;" horiz-adv-x="1040" 
d="M791 930c23.333 0 42.333 8.33301 57 25c4.66699 4.66699 9.66699 13.667 15 27l77 -135h-826l77 135c2 -6 7 -15 15 -27c14.667 -16.667 33.667 -25 57 -25h528zM782 722c30 -8.66699 49.667 -26.668 59 -54.001c6.66699 -20 10 -40.667 10 -62v-24l-651 -468v492
c0 22 3 42.667 9 62c9.33301 27.333 29 45.333 59 54h-230c30 -8.66699 49.667 -26.667 59 -54c6.66699 -20 10 -40.667 10 -62v-490c0 -21.333 -3.33301 -42 -10 -62c-9.33301 -27.333 -29 -45.333 -59 -54h163l268 187.5l382 264.5v-336c0 -21.333 -3.33301 -42 -10 -62
c-9.33301 -27.333 -29 -45.333 -59 -54h230c-30 8.66699 -49.667 26.667 -59 54c-6 18.667 -9 39.334 -9 62.001v490c0 22 3 42.667 9 62c9.33301 27.333 29 45.333 59 54h-230z" />
    <glyph glyph-name="uni041A" unicode="&#x41a;" horiz-adv-x="952" 
d="M29 0c30 8.66699 49.667 26.668 59 54.001c6.66699 20 10 40.667 10 62v492c0 21.333 -3.33301 42 -10 62c-9.33301 27.333 -29 45.333 -59 54h230c-30 -8.66699 -49.667 -26.667 -59 -54c-6 -19.333 -9 -40 -9 -62v-492c0 -22.667 3 -43.334 9 -62.001
c9.33301 -27.333 29 -45.333 59 -54h-230zM849 -27.999c-6 23.333 -17.333 41.3311 -34 53.998c-36 26.667 -105.667 69.667 -209 129l-415 230v11l273 137l250 131c5.33301 2.66699 11.833 6.33398 19.5 11.001l27.5 17c18.667 12.667 31 31.667 37 57l74 -140
c-28 8.66699 -51 7.66699 -69 -3l-205 -103.5l-223 -115.5c-2.66699 -1.33301 -2.66699 -2.66602 0 -3.99902l219 -124l263 -147c24.667 -13.333 48.667 -16.333 72 -9z" />
    <glyph glyph-name="uni041B" unicode="&#x41b;" horiz-adv-x="1080" 
d="M1057 0h-310.001c34.667 19.333 56.334 38.333 65.001 57c5.33301 10.667 8 21.334 8 32.001c0 13.333 -4 27.666 -12 42.999l-264 507l-163 -307c-44 -84.667 -77.667 -151.334 -101 -200.001c-7.33301 -16 -11 -30.667 -11 -44c0 -11.333 2.33301 -21.666 7 -30.999
c5.33301 -12 18 -25.333 38 -40c9.33301 -7.33301 18.333 -13 27 -17h-310c49.333 22.667 81.666 42.667 96.999 60l29.5 45c8.33301 12.667 14.833 23.667 19.5 33l172.5 317c44.333 84 75.833 146 94.5 186h-164c-23.333 0 -42.333 -8.33301 -57 -25
c-8 -12 -13 -21 -15 -27l-77 135h826l-77 -135c-5.33301 12.667 -10.333 21.667 -15 27c-14.667 16.667 -33.667 25 -57 25h-164l107 -205.5l160 -297.5c22.667 -40.667 38.667 -66.334 48 -77.001c5.33301 -6 12.833 -12.5 22.5 -19.5s21.834 -14.167 36.501 -21.5
c5.33301 -3.33301 11.333 -6.66602 18 -9.99902z" />
    <glyph glyph-name="uni041C" unicode="&#x41c;" horiz-adv-x="1380" 
d="M1059 0c5.33301 2.66699 10.1689 5.33203 14.502 7.99902s8.5 5.66699 12.5 9c20 14.667 32.667 28 38 40c4.66699 8.66699 7 18 7 28c0 8 -3.66699 23.667 -11 47c-16.667 52 -39.667 119 -69 201l-109 293l-60 -135c-44 -101.333 -74 -178.333 -90 -231
c0 -21.333 6.33301 -39.333 19 -54c4 -6 12 -11.667 24 -17c3.33301 -2 7 -4 11 -6l12 -6h-327c5.33301 2.66699 12 6.33398 20 11.001s17 10.667 27 18c12.667 14.667 19 32.667 19 54c-24 78.667 -74 200.667 -150 366l-76 -204.5l-102 -289.5
c-7.33301 -23.333 -11 -39 -11 -47c0 -10 2.33301 -19.333 7 -28c8.66699 -18.667 30.334 -37.667 65.001 -57h-310l21 10c6.66699 3.33301 12.667 6.66602 18 9.99902c14.667 7.33301 26.667 14.5 36 21.5s16.666 13.167 21.999 18.5c21.333 24 37.666 50 48.999 78l81 210
l110 289h-164c-23.333 0 -42.333 -8.33301 -57 -25c-5.33301 -5.33301 -10.333 -14.333 -15 -27l-77 135h587c-6 -3.33301 -11.667 -6.16602 -17 -8.49902s-10.333 -4.83301 -15 -7.5c-22.667 -12.667 -36 -23 -40 -31c-8.66699 -16 -9 -37.667 -1 -65
c7.33301 -24.667 16.333 -51.667 27 -81s23.334 -61.333 38.001 -96l72 -174l36 87l37 87c26.667 66 47.667 125 63 177c8 27.333 7.66699 49 -1 65c-7.33301 11.333 -31.333 27 -72 47h587l-77 -135c-2 6 -7 15 -15 27c-14.667 16.667 -33.667 25 -57 25h-164l80.5 -210
l110.5 -289c11.333 -28 27.666 -54 48.999 -78c15.333 -17.333 47.666 -37.333 96.999 -60h-310z" />
    <glyph glyph-name="uni041D" unicode="&#x41d;" horiz-adv-x="1050" 
d="M199 116c0 -22.667 3 -43.332 9 -61.999c9.33301 -27.333 29 -45.333 59 -54h-230c30 8.66699 49.667 26.667 59 54c6.66699 20 10 40.667 10 62v492c0 21.333 -3.33301 42 -10 62c-9.33301 27.333 -29 45.333 -59 54h230c-30 -8.66699 -49.667 -26.667 -59 -54
c-6 -19.333 -9 -40 -9 -62v-190h660v190c0 21.333 -3.33301 42 -10 62c-9.33301 27.333 -29 45.333 -59 54h230c-30 -8.66699 -49.667 -26.667 -59 -54c-6 -19.333 -9 -40 -9 -62v-492c0 -22.667 3 -43.334 9 -62.001c9.33301 -27.333 29 -45.333 59 -54h-230
c30 8.66699 49.667 26.667 59 54c6.66699 20 10 40.667 10 62v224h-660v-224z" />
    <glyph glyph-name="uni041E" unicode="&#x41e;" horiz-adv-x="940" 
d="M835 378c0 83.333 -35.333 153.333 -106 210c-71.333 58 -156 87 -254 87c-98.667 0 -183.334 -29 -254.001 -87c-70 -58 -105 -128 -105 -210c0 -82.667 35 -153 105 -211c70.667 -58 155.334 -87 254.001 -87c98 0 182.667 29 254 87c70.667 58 106 128.333 106 211z
M920 378c0 -104.667 -43.667 -194.666 -131 -269.999s-192 -113 -314 -113s-226.667 37.667 -314 113c-86.667 74.667 -130 164.667 -130 270c0 104 43 193.667 129 269c87.333 75.333 192.333 113 315 113s227.667 -37.667 315 -113
c86.667 -74.667 130 -164.334 130 -269.001z" />
    <glyph glyph-name="uni041F" unicode="&#x41f;" horiz-adv-x="1050" 
d="M1020 724c-30 -8.66699 -49.667 -26.665 -59 -53.998c-6 -19.333 -9 -40 -9 -62v-492c0 -22.667 3 -43.334 9 -62.001c9.33301 -27.333 29 -45.333 59 -54h-230c30 8.66699 49.667 26.667 59 54c6.66699 20 10 40.667 10 62v539h-660v-539c0 -22.667 3 -43.334 9 -62.001
c9.33301 -27.333 29 -45.333 59 -54h-230c30 8.66699 49.667 26.667 59 54c6.66699 20 10 40.667 10 62v492c0 21.333 -3.33301 42 -10 62c-9.33301 27.333 -29 45.333 -59 54h983z" />
    <glyph glyph-name="uni0420" unicode="&#x420;" 
d="M869 524c0 34 -12.334 63 -37.001 87c-25.333 24 -55.333 36 -90 36h-97c-49.333 0 -116.666 0.333008 -201.999 1h-246c-0.666992 -2 -1 -84 -1 -246h545c34.667 0 64.667 11.667 90 35c25.333 24 38 53 38 87zM945.999 524c0 -55.333 -20.333 -102.332 -61 -140.999
c-40.667 -39.333 -88.667 -59 -144 -59h-544l-1 -208c0 -22.667 3 -43.334 9 -62.001c9.33301 -27.333 29 -45.333 59 -54h-230c30 8.66699 49.667 26.667 59 54c6.66699 20 10 40.667 10 62v498c0 17.333 -3.33301 36 -10 56c-9.33301 27.333 -29 45.333 -59 54h708
c55.333 0 103.333 -19.667 144 -59c40 -39.333 60 -86.333 60 -141z" />
    <glyph glyph-name="uni0421" unicode="&#x421;" 
d="M947 251c-23.333 -25.333 -45.999 -47.833 -67.999 -67.5s-42.667 -36.834 -62 -51.501c-65.333 -47.333 -119.666 -80.666 -162.999 -99.999c-55.333 -24.667 -115 -37 -179 -37c-122 0 -226.667 37.667 -314 113c-86.667 74.667 -130 164.667 -130 270
c0 104 43 193.667 129 269c87.333 75.333 192.333 113 315 113c108.667 0 204.667 -30.667 288 -92h1c14.667 -12 34.167 -27 58.5 -45l88.5 -64c20 -13.333 30 -22 30 -26h-271c22.667 16 34 28.333 34 37c0 15.333 -3.33301 28.333 -10 39l-12 12
c-63.333 36 -132.333 54 -207 54c-98.667 0 -183.334 -29 -254.001 -87c-70 -58 -105 -128 -105 -210c0 -82.667 35 -153 105 -211c70.667 -58 155.334 -87 254.001 -87c81.333 0 151.666 19 210.999 57l14 9l35.5 33c11.667 11.333 17.5 23 17.5 35
c0 6 -1.33301 11.833 -4 17.5s-9.33398 12.5 -20.001 20.5s-17 15.333 -19 22h259z" />
    <glyph glyph-name="uni0422" unicode="&#x422;" horiz-adv-x="1030" 
d="M927 605c-12 14 -27.668 25.334 -47.001 34.001c-25.333 1.33301 -64.333 2.5 -117 3.5s-119 1.5 -199 1.5l1 -528c0 -22.667 3 -43.334 9 -62.001c4.66699 -16 24.334 -34 59.001 -54h-230c30 8.66699 49.667 26.667 59 54c6.66699 20 10 40.667 10 62v528
c-80 0 -146.333 -0.5 -199 -1.5s-91.667 -2.16699 -117 -3.5c-19.333 -8.66699 -35 -20 -47 -34l-71 119h960z" />
    <glyph glyph-name="uni0423" unicode="&#x423;" 
d="M531 293l-35.999 -57.5l-27 -45.5l-28.5 -52.5l-40.5 -78.5c-10.667 -21.333 -18 -41 -22 -59c-6 -24.667 -7.66699 -40.667 -5 -48c0.666992 -2.66699 1.83398 -5.16699 3.50098 -7.5l5.5 -7.5l-158 86c6.66699 -0.666992 12.667 0 18 2c6.66699 2 19.667 11.667 39 29
c7.33301 7.33301 14.166 15.333 20.499 24s12.166 17.667 17.499 27l23.5 42l22 38.5l27.5 48l40 70.5l-289 275c-8 7.33301 -16.333 14.166 -25 20.499s-17.667 11.833 -27 16.5c-24 11.333 -39 17 -45 17c-6.66699 0 -12.667 -1.33301 -18 -4l126 129
c-3.33301 -6.66699 -5 -12.334 -5 -17.001c0 -7.33301 6.33301 -22.333 19 -45c8.66699 -15.333 21.667 -31.666 39 -48.999l109.5 -105.5l171.5 -164.5l133 123l148 147c17.333 17.333 30.333 33.666 39 48.999c12.667 22.667 19 37.667 19 45
c0 4.66699 -1.66699 10.334 -5 17.001l126 -129c-5.33301 2.66699 -11.333 4 -18 4c-6 0 -21 -5.66699 -45 -17c-9.33301 -4.66699 -18.333 -10.167 -27 -16.5s-17 -13.166 -25 -20.499l-120 -115z" />
    <glyph glyph-name="uni0424" unicode="&#x424;" horiz-adv-x="949" 
d="M522 82c78 8 147 36.333 207 85c70.667 58 106 128.333 106 211c0 83.333 -35.333 153.333 -106 210c-60 48.667 -129 77 -207 85v-591zM221 167c58.667 -48.667 127.999 -77 207.999 -85v591c-79.333 -8 -148.666 -36.333 -207.999 -85c-70 -58 -105 -128 -105 -210
c0 -82.667 35 -153 105 -211zM919.999 378c0 -104.667 -43.666 -194.666 -130.999 -269.999c-77.333 -66 -166.333 -103 -267 -111c0 -20.667 3 -40 9 -58c9.33301 -27.333 29 -45.333 59 -54h-230c30 8.66699 49.667 26.667 59 54c5.33301 18.667 8.66602 38 9.99902 58
c-102.667 8 -192 45 -268 111c-86.667 74.667 -130 164.667 -130 270c0 104 43 193.667 129 269c87.333 75.333 192.333 113 315 113s227.667 -37.667 315 -113c86.667 -74.667 130 -164.334 130 -269.001z" />
    <glyph glyph-name="uni0425" unicode="&#x425;" 
d="M834 -7c2 4.66699 2.99707 9.00098 2.99707 13.001c0 7.33301 -8 23 -24 47c-9.33301 10.667 -17.666 19.667 -24.999 27s-13.666 13.333 -18.999 18l-105 78.5l-178 132.5l-283 -211c-4.66699 -3.33301 -10.5 -8.83301 -17.5 -16.5l-26.5 -28.5
c-16 -24 -24 -39.667 -24 -47c0 -4 1 -8.33301 3 -13l-109 143c6.66699 -4.66699 13.334 -7 20.001 -7c6 0 20.667 4.33301 44 13c13.333 4.66699 31.666 14.667 54.999 30c1.33301 1.33301 23.5 18.166 66.5 50.499l193.5 144.5l-258 193
c-16.667 12.667 -35.334 22.667 -56.001 30c-23.333 8 -37.666 12 -42.999 12c-7.33301 0 -14.333 -2 -21 -6l109 143c-2 -5.33301 -3 -10 -3 -14c0 -8 8.33301 -23.333 25 -46c12 -16 26.667 -30.667 44 -44l281 -210l281 210c17.333 13.333 32 28 44 44
c16.667 22.667 25 38 25 46c0 4 -1 8.66699 -3 14l109 -143c-7.33301 4 -14.333 6 -21 6c-6 0 -20.333 -4 -43 -12c-17.333 -6.66699 -36 -16.667 -56 -30l-95 -71l-163 -122l260 -195c20.667 -14.667 39 -24.667 55 -30c23.333 -8.66699 38 -13 44 -13
c6.66699 0 13.334 2.33301 20.001 7z" />
    <glyph glyph-name="uni0426" unicode="&#x426;" horiz-adv-x="1050" 
d="M37 0c30 8.66699 49.667 26.668 59 54.001c6.66699 20 10 40.667 10 62v492c0 21.333 -3.33301 42 -10 62c-9.33301 27.333 -29 45.333 -59 54h230c-30 -8.66699 -49.667 -26.667 -59 -54c-6 -19.333 -9 -40 -9 -62v-539h660v539c0 21.333 -3.33301 42 -10 62
c-9.33301 27.333 -29 45.333 -59 54h230c-30 -8.66699 -49.667 -26.667 -59 -54c-6 -19.333 -9 -40 -9 -62v-608c0 -22.667 3 -43.334 9 -62.001c9.33301 -27.333 29 -45.333 59 -54h-230c30 8.66699 49.667 26.667 59 54c6.66699 20 10 40.667 10 62h-822z" />
    <glyph glyph-name="uni0427" unicode="&#x427;" horiz-adv-x="1060" 
d="M186 510c0 -33.333 12.666 -62.667 37.999 -88c24.667 -24.667 54.334 -37 89.001 -37h91c46 0 113 -0.333008 201 -1h255v224c0 21.333 -3.33301 42 -10 62c-9.33301 27.333 -29 45.333 -59 54h231c-30 -8.66699 -49.667 -26.667 -59 -54
c-6.66699 -20 -10 -40.667 -10 -62v-492c0 -21.333 3.33301 -42 10 -62c9.33301 -27.333 29 -45.333 59 -54h-231c30 8.66699 49.667 26.667 59 54c6.66699 20 10 40.667 10 62v190h-557c-48 0 -90 13 -126 39c-30 21.333 -51.5 47.5 -64.5 78.5s-19.5 64.5 -19.5 100.5v84
c0 21.333 -3.33301 42 -10 62c-9.33301 27.333 -29 45.333 -59 54h231c-30 -8.66699 -49.667 -26.667 -59 -54c-6.66699 -20 -10 -40.667 -10 -62v-98z" />
    <glyph glyph-name="uni0428" unicode="&#x428;" horiz-adv-x="1297" 
d="M693 69l401 0.000976562v539c0 21.333 -3.33301 42 -10 62c-9.33301 27.333 -29 45.333 -59 54h230c-30 -8.66699 -49.667 -26.667 -59 -54c-6 -19.333 -9 -40 -9 -62v-492c0 -22.667 3 -43.334 9 -62.001c9.33301 -27.333 29 -45.333 59 -54h-1218
c30 8.66699 49.667 26.667 59 54c6.66699 20 10 40.667 10 62v492c0 21.333 -3.33301 42 -10 62c-9.33301 27.333 -29 45.333 -59 54h230c-30 -8.66699 -49.667 -26.667 -59 -54c-6 -19.333 -9 -40 -9 -62v-539h401v539c0 21.333 -3.33301 42 -10 62
c-9.33301 27.333 -29 45.333 -59 54h230c-30 -8.66699 -49.667 -26.667 -59 -54c-6 -19.333 -9 -40 -9 -62v-539z" />
    <glyph glyph-name="uni0429" unicode="&#x429;" horiz-adv-x="1297" 
d="M37 0c30 8.66699 49.667 26.668 59 54.001c6.66699 20 10 40.667 10 62v492c0 21.333 -3.33301 42 -10 62c-9.33301 27.333 -29 45.333 -59 54h230c-30 -8.66699 -49.667 -26.667 -59 -54c-6 -19.333 -9 -40 -9 -62v-539h401v539c0 21.333 -3.33301 42 -10 62
c-9.33301 27.333 -29 45.333 -59 54h230c-30 -8.66699 -49.667 -26.667 -59 -54c-6 -19.333 -9 -40 -9 -62v-539h401v539c0 21.333 -3.33301 42 -10 62c-9.33301 27.333 -29 45.333 -59 54h230c-30 -8.66699 -49.667 -26.667 -59 -54c-6 -19.333 -9 -40 -9 -62v-608
c0 -22.667 3 -43.334 9 -62.001c9.33301 -27.333 29 -45.333 59 -54h-230c30 8.66699 49.667 26.667 59 54c6.66699 20 10 40.667 10 62h-1057z" />
    <glyph glyph-name="uni042A" unicode="&#x42a;" horiz-adv-x="1057" 
d="M936 214c0 33.333 -12.667 62.666 -38 87.999c-24.667 24.667 -54.334 37 -89.001 37h-15h-23h-43h-77c-32.667 0 -73.667 0.166992 -123 0.5s-110 0.5 -182 0.5v-252h464c34.667 0 64.334 12.333 89.001 37s37 54.334 37 89.001zM346 418h456.999c48 0 90 -13 126 -39
c30 -21.333 51.5 -47.5 64.5 -78.5s19.5 -64.5 19.5 -100.5c0 -56 -20.333 -103.333 -61 -142s-90 -58 -148 -58h-620c30 8.66699 49.667 26.667 59 54c6.66699 20 10 40.667 10 62v511h-55c-11.333 0 -22 -7 -32 -21c-4 -5.33301 -8 -11 -12 -17l-12 -18h-3
c-17.333 38.667 -51.666 89.667 -102.999 153h379c-30 -8.66699 -49.667 -26.667 -59 -54c-6.66699 -20 -10 -40.667 -10 -62v-190z" />
    <glyph glyph-name="uni042B" unicode="&#x42b;" horiz-adv-x="1157" 
d="M888 0c30 8.66699 49.667 26.668 59 54.001c6.66699 20 10 40.667 10 62v490c0 21.333 -3.33301 42 -10 62c-9.33301 27.333 -29 45.333 -59 54h230c-30 -8.66699 -49.667 -26.667 -59 -54c-6 -19.333 -9 -40 -9 -62v-490c0 -22.667 3 -43.334 9 -62.001
c9.33301 -27.333 29 -45.333 59 -54h-230zM786 214.001c0 33.333 -12.667 62.666 -38 87.999c-24.667 24.667 -54.334 37 -89.001 37h-15h-23h-43h-77c-32.667 0 -73.667 0.166992 -123 0.5s-110 0.5 -182 0.5v-252h464c34.667 0 64.334 12.333 89.001 37
s37 54.334 37 89.001zM265 724.001c-30 -8.66699 -49.667 -26.667 -59 -54c-6.66699 -20 -10 -40.667 -10 -62v-190h457c48 0 90 -13 126 -39c30 -21.333 51.5 -47.5 64.5 -78.5s19.5 -64.5 19.5 -100.5c0 -56 -20.333 -103.333 -61 -142s-90 -58 -148 -58h-620
c30 8.66699 49.667 26.667 59 54c6.66699 20 10 40.667 10 62v492c0 21.333 -3.33301 42 -10 62c-9.33301 27.333 -29 45.333 -59 54h231z" />
    <glyph glyph-name="uni042C" unicode="&#x42c;" horiz-adv-x="907" 
d="M786 214c0 33.333 -12.667 62.666 -38 87.999c-24.667 24.667 -54.334 37 -89.001 37h-15h-23h-43h-77c-32.667 0 -73.667 0.166992 -123 0.5s-110 0.5 -182 0.5v-252h464c34.667 0 64.334 12.333 89.001 37s37 54.334 37 89.001zM265 724
c-30 -8.66699 -49.667 -26.667 -59 -54c-6.66699 -20 -10 -40.667 -10 -62v-190h457c48 0 90 -13 126 -39c30 -21.333 51.5 -47.5 64.5 -78.5s19.5 -64.5 19.5 -100.5c0 -56 -20.333 -103.333 -61 -142s-90 -58 -148 -58h-620c30 8.66699 49.667 26.667 59 54
c6.66699 20 10 40.667 10 62v492c0 21.333 -3.33301 42 -10 62c-9.33301 27.333 -29 45.333 -59 54h231z" />
    <glyph glyph-name="uni042D" unicode="&#x42d;" horiz-adv-x="1000" 
d="M42 274h259.001c-2 -6.66699 -8.33301 -14 -19 -22s-17.334 -14.833 -20.001 -20.5s-4 -11.5 -4 -17.5c0 -12 5.83301 -23.667 17.5 -35l35.5 -33l14 -9c58.667 -38 129 -57 211 -57c92 0 171.667 25.333 239 76s106.666 113.667 117.999 189h-767
c-19.333 0 -41 -9 -65 -27v142c22.667 -19.333 45.334 -29 68.001 -29h761c-14.667 70.667 -55.667 129 -123 175s-144.333 69 -231 69c-75.333 0 -144.333 -18 -207 -54l-12 -12c-6.66699 -10.667 -10 -23.667 -10 -39c0 -8.66699 11.333 -21 34 -37h-271
c0 4 10 12.667 30 26l88.5 64c24.333 18 43.833 33 58.5 45h1c83.333 61.333 179.333 92 288 92c122.667 0 227.667 -37.667 315 -113c86 -75.333 129 -165 129 -269c0 -105.333 -43.333 -195.333 -130 -270c-87.333 -75.333 -192 -113 -314 -113c-68 0 -132 12.333 -192 37
c-59.333 24 -109.333 57.333 -150 100c-25.333 20 -48.833 40 -70.5 60s-41.5 39.667 -59.5 59z" />
    <glyph glyph-name="uni042E" unicode="&#x42e;" horiz-adv-x="1242" 
d="M493 287c-5.33301 12.667 -10.334 21.668 -15.001 27.001c-14.667 16.667 -33.667 25 -57 25h-34c8 -70.667 42.667 -131.334 104 -182.001c70.667 -58 155.334 -87 254.001 -87c98 0 182.667 29 254 87c70.667 58 106 128.333 106 211
c0 83.333 -35.333 153.333 -106 210c-71.333 58 -156 87 -254 87c-98.667 0 -183.334 -29 -254.001 -87c-53.333 -44.667 -86.666 -96.667 -99.999 -156h179zM1190 368.001c0 -104.667 -43.667 -194.666 -131 -269.999s-192 -113 -314 -113s-226.667 37.667 -314 113
c-79.333 68 -122.333 148.333 -129 241h-122v-223c0 -22.667 3 -43.334 9 -62.001c9.33301 -27.333 29 -45.333 59 -54h-230c30 8.66699 49.667 26.667 59 54c6.66699 20 10 40.667 10 62v490c0 21.333 -3.33301 42 -10 62c-9.33301 27.333 -29 45.333 -59 54h230
c-30 -8.66699 -49.667 -26.667 -59 -54c-6 -19.333 -9 -40 -9 -62v-184h125c12 80.667 53.667 152.334 125 215.001c87.333 75.333 192.333 113 315 113s227.667 -37.667 315 -113c86.667 -74.667 130 -164.334 130 -269.001z" />
    <glyph glyph-name="uni042F" unicode="&#x42f;" horiz-adv-x="1030" 
d="M40 1c48 24 80.6631 42.667 97.9961 56c22 16.667 57.333 55 106 115c6.66699 7.33301 19.834 23.666 39.501 48.999l80.5 103h-63c-55.333 0 -103.333 19.667 -144 59c-40.667 38.667 -61 85.667 -61 141c0 54.667 20 101.667 60 141c40.667 39.333 88.667 59 144 59
h708c-30 -8.66699 -49.667 -26.667 -59 -54c-6.66699 -20 -10 -38.667 -10 -56v-498c0 -21.333 3.33301 -42 10 -62c9.33301 -27.333 29 -45.333 59 -54h-230c30 8.66699 49.667 26.667 59 54c6 18.667 9 39.334 9 62.001v209h-176
c-59.333 -0.666992 -103.666 -1 -132.999 -1s-43.666 0 -42.999 0c-137.333 -150.667 -206.666 -241 -207.999 -271c0 -6.66699 4 -13 12 -19s15.667 -11.333 23 -16c1.33301 -1.33301 3.83301 -2.5 7.5 -3.5s7.66699 -2.16699 12 -3.5s8.33301 -3 12 -5
s6.16699 -4.33301 7.5 -7h-74c-30 0 -65.333 0.333008 -106 1s-72.667 1 -96 1h-44zM845.996 402c0 162 -0.333008 244 -1 246h-246c-85.333 -0.666992 -153 -1 -203 -1h-96c-35.333 0 -65.333 -12 -90 -36s-37 -53 -37 -87s12.667 -63 38 -87
c25.333 -23.333 55.333 -35 90 -35h545z" />
    <glyph glyph-name="uni0430" unicode="&#x430;" horiz-adv-x="840" 
d="M615 258l-37.502 98.5l-55.5 155.5h-204c-1.33301 0 -13.666 -31.667 -36.999 -95l-33 -91.5c-9.33301 -26.333 -16.666 -48.833 -21.999 -67.5h389v0zM627.998 -1c12 6 26.6699 17.6709 44.0029 35.0039c2.66699 5.33301 4 12.666 4 21.999c0 11.333 -3.33301 28 -10 50
c-1.33301 4.66699 -5 14.667 -11 30l-25 65h-423c-12.667 -29.333 -22.334 -56.666 -29.001 -81.999s-10.667 -49.333 -12 -72c-1.33301 -6 1.66699 -12.667 9 -20c2.66699 -2.66699 5.16699 -5.33398 7.5 -8.00098s4.83301 -5.33398 7.5 -8.00098
c0.666992 -1.33301 3.66699 -2.5 9 -3.5s7.66602 -3.5 6.99902 -7.5h-182c37.333 28.667 70.333 81 99 157l54.5 148.5l73.5 207.5c-61.333 -1.33301 -105.333 -1.33301 -132 0c-13.333 -4 -23.666 -13 -30.999 -27c-8.66699 9.33301 -21.334 27 -38.001 53
c-17.333 26 -24.333 39 -21 39h781c1.33301 0 -5 -10.333 -19 -31c-8.66699 -12.667 -15.5 -23.167 -20.5 -31.5l-11.5 -19.5c-4 4 -12.333 9.66699 -25 17c-15.333 0.666992 -34.833 1.16699 -58.5 1.5s-52.167 0.166016 -85.5 -0.500977l43 -113l43 -113
c17.333 -46 33.833 -87.333 49.5 -124s30.5 -69.334 44.5 -98.001c21.333 -34 41.666 -56 60.999 -66z" />
    <glyph glyph-name="uni0431" unicode="&#x431;" horiz-adv-x="800" 
d="M770 167c0 -27.333 -3.99805 -50.3369 -11.998 -69.0039s-20.333 -35.667 -37 -51c-32.667 -31.333 -72 -47 -118 -47h-576c24.667 8 40.334 22.333 47.001 43c5.33301 18 8 34.667 8 50v392c0 15.333 -2.66699 32 -8 50c-6.66699 20.667 -22.334 35 -47.001 43h703
c-20.667 -25.333 -37.834 -48.166 -51.501 -68.499s-23.834 -38.166 -30.501 -53.499h-3c-3.33301 4.66699 -6.5 9.33398 -9.5 14.001s-6.16699 9.33398 -9.5 14.001c-8 10.667 -16.667 16 -26 16h-443v-166h446c46 0 85.333 -15.667 118 -47
c16.667 -15.333 29 -32.333 37 -51s12 -41.667 12 -69zM709.002 170.996c0 14 -2.66797 27 -8.00098 39s-12.666 22.5 -21.999 31.5s-20.166 16.167 -32.499 21.5s-25.5 8 -39.5 8h-79c-40.667 0 -96.334 0.333008 -167.001 1h-204v-202h451c27.333 0 51 10 71 30
s30 43.667 30 71z" />
    <glyph glyph-name="uni0432" unicode="&#x432;" horiz-adv-x="800" 
d="M709 171c0 14 -2.66797 27 -8.00098 39s-12.666 22.5 -21.999 31.5s-20.166 16.167 -32.499 21.5s-25.5 8 -39.5 8h-79c-40.667 0 -96.334 0.333008 -167.001 1h-204v-202h451c27.333 0 51 10 71 30s30 43.667 30 71zM676.999 422c0 12 -2.66699 23.5 -8 34.5
s-12.666 20.5 -21.999 28.5s-20.166 14.333 -32.499 19s-25.5 7 -39.5 7h-75c-38 0 -89.667 0.333008 -155 1h-188v-178h418c14 0 27.167 2.33301 39.5 7s23.166 11 32.499 19s16.666 17.333 21.999 28s8 22 8 34zM769.999 160c0 -44.667 -16.333 -82.335 -49 -113.002
c-32.667 -31.333 -72 -47 -118 -47h-576c24.667 8 40.334 22.333 47.001 43c5.33301 18 8 34.667 8 50v392c0 14.667 -2.66699 31 -8 49c-8 24 -23.667 39 -47 45h548c45.333 0 83.666 -14.333 114.999 -43c32 -28 48 -61.667 48 -101c0 -51.333 -24 -91.333 -72 -120
c30 -15.333 54.667 -36.666 74 -63.999c20 -29.333 30 -59.666 30 -90.999z" />
    <glyph glyph-name="uni0433" unicode="&#x433;" horiz-adv-x="738" 
d="M728 578c-20.667 -25.333 -37.8311 -48.1699 -51.498 -68.5029s-23.834 -38.166 -30.501 -53.499h-3c-3.33301 4.66699 -6.5 9.33398 -9.5 14.001s-6.16699 9.33398 -9.5 14.001c-8 10.667 -16.667 16 -26 16h-444v-407c0 -14.667 2.66699 -31 8 -49
c7.33301 -21.333 23 -36 47 -44h-184c24 8 39.667 22.667 47 44c5.33301 18 8 34.333 8 49v392c0 15.333 -2.66699 32 -8 50c-6.66699 20.667 -22.334 35 -47.001 43h703z" />
    <glyph glyph-name="uni0434" unicode="&#x434;" horiz-adv-x="864" 
d="M654 57c1.33301 5.33301 2 9.66797 2 13.001c0 11.333 -3.33301 23.333 -10 36l-211 402l-130.5 -244c-35 -66.667 -61.833 -119.334 -80.5 -158.001c-6 -13.333 -9 -25 -9 -35c0 -2.66699 0.166992 -5 0.5 -7s0.833008 -4.33301 1.5 -7h437v0zM25 0.00195312
c39.333 19.333 65 35.334 77 48.001c19.333 27.333 32.666 48 39.999 62l134 245.5c35.333 66.333 61.666 117.833 78.999 154.5h-131c-17.333 0 -32.666 -6.66699 -45.999 -20c-6.66699 -10.667 -10.667 -18 -12 -22l-61 108h661l-62 -108c-4 9.33301 -8 16.666 -12 21.999
c-13.333 13.333 -28.666 20 -45.999 20h-131l122.5 -230l91.5 -170c17.333 -32 30.333 -52.667 39 -62c32.667 -23.333 58.667 -39.333 78 -48h-821z" />
    <glyph glyph-name="uni0435" unicode="&#x435;" horiz-adv-x="800" 
d="M671 0l-635.998 0.000976562c22 6 36.667 19.667 44 41c5.33301 18 8 34.333 8 49v392c0 15.333 -2.66699 32 -8 50c-6.66699 21.333 -22.334 35.666 -47.001 42.999h572c25.333 0 40.666 -1.66699 45.999 -5c10.667 -9.33301 24.167 -21.833 40.5 -37.5l58.5 -57.5
c-68 23.333 -116.667 35 -146 35h-436v-176h515c20 0 37.333 6.66699 52 20v-105c-17.333 13.333 -34 20 -50 20h-518v-196h501c24 0 59.667 10.333 107 31z" />
    <glyph glyph-name="uni0436" unicode="&#x436;" horiz-adv-x="1010" 
d="M120 -43c-1.33301 5.33301 -1.99805 8.66797 -1.99805 10.001c0 6 6.33301 19 19 39c9.33301 13.333 20.666 25.666 33.999 36.999l124 105.5l169 146.5l-73.5 61l-92.5 79l-67.5 57.5c-15 13 -23.167 20.167 -24.5 21.5c-6.66699 6 -12.834 12 -18.501 18
s-10.834 12.333 -15.501 19c-12 18.667 -18 31.667 -18 39c0 4 0.333008 7.33301 1 10l-90 -113c4.66699 4 10.334 6 17.001 6c2 0 5.83301 -0.833008 11.5 -2.5s13.167 -4.5 22.5 -8.5c11.333 -4 25.333 -12.667 42 -26l73.5 -59l126.5 -103l-108.5 -88l-126.5 -105
c-15.333 -13.333 -29.333 -22.333 -42 -27c-18 -6.66699 -29.333 -10 -34 -10c-5.33301 0 -11 2 -17 6zM889.002 -42.998c0.666992 2.66699 1.00098 6.00098 1.00098 10.001c0 6.66699 -6 19.667 -18 39l-16 19.5c-5.33301 6.33301 -11.333 12.166 -18 17.499l-124 105.5
l-169 146.5l73.5 61l92.5 79l67.5 57.5c15 13 22.833 20.167 23.5 21.5c7.33301 6 13.833 12 19.5 18s10.834 12.333 15.501 19c12 18.667 18 31.667 18 39c0 1.33301 -0.166992 2.83301 -0.5 4.5s-0.5 3.5 -0.5 5.5l90 -113c-6 4 -11.667 6 -17 6
c-2 0 -5.83301 -0.833008 -11.5 -2.5s-13.167 -4.5 -22.5 -8.5c-12.667 -4 -27 -12.667 -43 -26l-72.5 -59l-126.5 -103l108.5 -88l126.5 -105c14.667 -13.333 28.667 -22.333 42 -27c17.333 -6.66699 28.666 -10 33.999 -10s10.666 2 15.999 6zM412.003 0.00292969
c24 6.66699 39.6689 21 47.002 43c5.33301 15.333 8 32 8 50v393c0 18 -2.66699 34.667 -8 50c-6.66699 22 -22.334 36.333 -47.001 43h184c-24.667 -6.66699 -40.334 -21 -47.001 -43c-4.66699 -14 -7 -30.667 -7 -50v-393c0 -19.333 2.33301 -36 7 -50
c7.33301 -22 23 -36.333 47 -43h-184z" />
    <glyph glyph-name="uni0437" unicode="&#x437;" horiz-adv-x="800" 
d="M27 0c20.667 25.333 37.832 48.6748 51.499 70.0078s23.834 39.666 30.501 54.999h3c3.33301 -4.66699 6.5 -9.33398 9.5 -14.001s6.16699 -9.33398 9.5 -14.001l12.5 -17.5c4.33301 -6.33301 8.83301 -9.5 13.5 -9.5h451c27.333 0 51 10 71 30s30 43.667 30 71
c0 14 -2.66699 27 -8 39s-12.666 22.5 -21.999 31.5s-20.166 16.167 -32.499 21.5s-25.5 8 -39.5 8h-32h-72c-33.333 0 -77.833 0.166992 -133.5 0.5s-126.5 0.5 -212.5 0.5c-4.66699 0 -9.16699 -3.16699 -13.5 -9.5l-12.5 -17.5
c-3.33301 -4.66699 -6.5 -9.33398 -9.5 -14.001s-6.16699 -9.33398 -9.5 -14.001h-3c-6.66699 15.333 -16.167 32.333 -28.5 51s-28.833 40.667 -49.5 66h544c14 0 27.167 2.33301 39.5 7s23.166 11 32.499 19s16.666 17.333 21.999 28s8 22 8 34s-2.66699 23.5 -8 34.5
s-12.666 20.5 -21.999 28.5s-20.166 14.333 -32.499 19s-25.5 7 -39.5 7h-31h-68c-30.667 0 -71.667 0.166992 -123 0.5s-116.666 0.5 -195.999 0.5c-4.66699 0 -9.16699 -3.16699 -13.5 -9.5l-12.5 -17.5c-3.33301 -4.66699 -6.5 -9.33398 -9.5 -14.001
s-6.16699 -9.33398 -9.5 -14.001h-3c-6.66699 15.333 -16.834 33.166 -30.501 53.499s-30.834 43.166 -51.501 68.499h548c45.333 0 83.666 -14.333 114.999 -43c32 -28 48 -61.667 48 -101c0 -51.333 -24 -91.333 -72 -120c30 -15.333 54.667 -36.666 74 -63.999
c20 -29.333 30 -59.666 30 -90.999c0 -44.667 -16.333 -82.334 -49 -113.001c-32.667 -31.333 -72 -47 -118 -47h-576z" />
    <glyph glyph-name="uni0438" unicode="&#x438;" horiz-adv-x="832" 
d="M810 578c-24 -6.66699 -39.998 -21.001 -47.998 -43.001c-4.66699 -18 -7 -34.667 -7 -50v-392c0 -14.667 2.33301 -31 7 -49c8 -22.667 24 -37.334 48 -44.001h-184c24 8 39.667 22.667 47 44c5.33301 18 8 34.333 8 49v269l-259 -179.5l-261 -182.5h-131
c24 6.66699 40 21.334 48 44.001c5.33301 22.667 8 39 8 49v392c0 10.667 -2.66699 27.334 -8 50.001c-8 22 -24 36.333 -48 43h184c-24.667 -8 -40.334 -22.333 -47.001 -43c-4.66699 -14 -7 -30.667 -7 -50v-393l324.5 230.5l196.5 143.5v19c0 15.333 -2.66699 32 -8 50
c-6.66699 20.667 -22.334 35 -47.001 43h184z" />
    <glyph glyph-name="uni0439" unicode="&#x439;" horiz-adv-x="832" 
d="M633 724c17.333 0 32.668 6.66797 46.001 20.001c4 5.33301 8 12.666 12 21.999l62 -108h-661l61 108c1.33301 -4 5.33301 -11.333 12 -22c13.333 -13.333 28.666 -20 45.999 -20h422zM626.002 578.001c24.667 -8 40.332 -22.332 46.999 -42.999
c5.33301 -18 8 -34.667 8 -50v-19l-196.5 -143.5l-324.5 -230.5v393c0 19.333 2.33301 36 7 50c6.66699 20.667 22.334 35 47.001 43h-184c24 -6.66699 40 -21 48 -43c5.33301 -22.667 8 -39.334 8 -50.001v-392c0 -10 -2.66699 -26.333 -8 -49
c-8 -22.667 -24 -37.334 -48 -44.001h131l261 182.5l259 179.5v-269c0 -14.667 -2.66699 -31 -8 -49c-7.33301 -21.333 -23 -36 -47 -44h184c-24 6.66699 -40 21.334 -48 44.001c-4.66699 18 -7 34.333 -7 49v392c0 15.333 2.33301 32 7 50c8 22 24 36.333 48 43h-184z" />
    <glyph glyph-name="uni043A" unicode="&#x43a;" horiz-adv-x="762" 
d="M23 0c24 6.66699 39.6689 21 47.002 43c5.33301 15.333 8 32 8 50v392c0 18 -2.66699 34.667 -8 50c-6.66699 22 -22.334 36.333 -47.001 43h184c-24.667 -6.66699 -40.334 -21 -47.001 -43c-4.66699 -14 -7 -30.667 -7 -50v-392c0 -19.333 2.33301 -36 7 -50
c7.33301 -22 23 -36.333 47 -43h-184zM679.002 -22c-5.33301 18.667 -14.332 33.002 -26.999 43.002c-28.667 21.333 -84.334 55.666 -167.001 102.999l-332 184v9l218 109.5l200 104.5c7.33301 3.33301 20 11 38 23c15.333 10 25 25 29 45l60 -112
c-23.333 7.33301 -42 6.66602 -56 -2.00098l-163 -83l-179 -92c-2.66699 -1.33301 -2.66699 -2.66602 0 -3.99902l175 -99l211 -117c19.333 -10.667 38.333 -13.334 57 -8.00098z" />
    <glyph glyph-name="uni043B" unicode="&#x43b;" horiz-adv-x="864" 
d="M846 0l-247.999 0.00195312c28 16.667 45.333 32 52 46c4 6.66699 6 14.667 6 24c0 11.333 -3.33301 23.333 -10 36l-211 402l-130.5 -244c-35 -66.667 -61.833 -119.334 -80.5 -158.001c-6 -13.333 -9 -25 -9 -35c0 -8.66699 2.33301 -17.5 7 -26.5
s14.667 -19.167 30 -30.5c3.33301 -2.66699 6.66602 -5 9.99902 -7s7 -4.33301 11 -7h-248c39.333 19.333 65 35.333 77 48c19.333 27.333 32.666 48 39.999 62l134 245.5c35.333 66.333 61.666 117.833 78.999 154.5h-131c-17.333 0 -32.666 -6.66699 -45.999 -20
c-6.66699 -10.667 -10.667 -18 -12 -22l-61 108h661l-62 -108c-4 9.33301 -8 16.666 -12 21.999c-13.333 13.333 -28.666 20 -45.999 20h-131l122.5 -230l91.5 -170c17.333 -32 30.333 -52.667 39 -62c32.667 -23.333 58.667 -39.333 78 -48z" />
    <glyph glyph-name="uni043C" unicode="&#x43c;" horiz-adv-x="1104" 
d="M847 0c4 2.66699 7.66602 4.99707 10.999 6.99707s6.66602 4.33301 9.99902 7c16 11.333 26.333 22 31 32c3.33301 8 5 15.333 5 22c0 7.33301 -2.66699 20 -8 38c-13.333 42 -31.833 95.5 -55.5 160.5l-86.5 234.5l-48 -108c-17.333 -40.667 -32 -76.334 -44 -107.001
s-21.333 -56.667 -28 -78c0 -16 5 -30.333 15 -43c4.66699 -6 11 -10.667 19 -14l18 -9h-261c9.33301 3.33301 21.666 11 36.999 23c10.667 10.667 16 25 16 43c-20.667 64 -60.667 161.667 -120 293l-60.5 -164l-82.5 -231c-9.33301 -27.333 -10.333 -47.333 -3 -60
c6.66699 -14 24 -29.333 52 -46h-248l16 8l16 8c22 11.333 37.333 22 46 32c11.333 12.667 24.333 33.334 39 62.001c7.33301 21.333 17.5 48.5 30.5 81.5l45.5 118.5l46.5 118.5c13 33 23.167 60.167 30.5 81.5h-132c-18 0 -33 -6.66699 -45 -20
c-5.33301 -5.33301 -9.33301 -12.666 -12 -21.999l-62 108h470l-14.5 -7c-4.33301 -2 -8.16602 -4 -11.499 -6c-18.667 -10.667 -29.334 -19 -32.001 -25c-7.33301 -13.333 -7.66602 -30.666 -0.999023 -51.999c5.33301 -19.333 12.5 -40.666 21.5 -63.999l30.5 -77
l29 -69.5l29 -69.5l29 69.5l30 69.5c10.667 26.667 20.167 51.667 28.5 75s15.5 45.333 21.5 66c6.66699 21.333 6.33398 38.666 -0.999023 51.999c-5.33301 10 -24.666 22.667 -57.999 38h470l-62 -108c-1.33301 4 -5.33301 11.333 -12 22
c-11.333 13.333 -26.333 20 -45 20h-131l64 -168l88 -232c12.667 -26 25.667 -46.333 39 -61c12.667 -13.333 38.667 -29.666 78 -48.999h-248z" />
    <glyph glyph-name="uni043D" unicode="&#x43d;" horiz-adv-x="840" 
d="M632 0c24.667 8 40.3311 22.334 46.998 43.001c5.33301 18 8 34.667 8 50v176h-528v-176c0 -15.333 2.33301 -32 7 -50c8 -22 24 -36.333 48 -43h-184c24.667 8 40.334 22.333 47.001 43c5.33301 18 8 34.667 8 50v392c0 14.667 -2.66699 31 -8 49
c-7.33301 21.333 -23 36 -47 44h184c-24 -6.66699 -40 -21.334 -48 -44.001c-4.66699 -18 -7 -34.333 -7 -49v-161h528v161c0 14.667 -2.66699 31 -8 49c-7.33301 21.333 -23 36 -47 44h184c-24 -8 -39.667 -22.667 -47 -44c-4.66699 -14 -7 -30.333 -7 -49v-392
c0 -19.333 2.33301 -36 7 -50c6.66699 -20.667 22.334 -35 47.001 -43h-184z" />
    <glyph glyph-name="uni043E" unicode="&#x43e;" horiz-adv-x="752" 
d="M668 302c0 66 -28.333 122 -85 168c-55.333 46.667 -123 70 -203 70s-147.667 -23.333 -203 -70c-56 -46 -84 -102 -84 -168s28 -122.333 84 -169c56 -46 123.667 -69 203 -69s147 23 203 69c56.667 46.667 85 103 85 169zM736 302c0 -82.667 -34.667 -154.667 -104 -216
c-69.333 -60 -153.333 -90 -252 -90c-99.333 0 -183.333 30 -252 90s-103 132 -103 216s34.333 156 103 216s152.667 90 252 90c98.667 0 182.667 -30 252 -90s104 -132 104 -216z" />
    <glyph glyph-name="uni043F" unicode="&#x43f;" horiz-adv-x="840" 
d="M816 578c-24 -8 -39.6699 -22.667 -47.0029 -44c-4.66699 -14 -7 -30.333 -7 -49v-392c0 -19.333 2.33301 -36 7 -50c6.66699 -20.667 22.334 -35 47.001 -43h-184c24.667 8 40.334 22.333 47.001 43c5.33301 18 8 34.667 8 50v430h-528v-430
c0 -15.333 2.33301 -32 7 -50c8 -22 24 -36.333 48 -43h-184c24.667 8 40.334 22.333 47.001 43c5.33301 18 8 34.667 8 50v392c0 14.667 -2.66699 31 -8 49c-7.33301 21.333 -23 36 -47 44h786z" />
    <glyph glyph-name="uni0440" unicode="&#x440;" horiz-adv-x="784" 
d="M695 419c0 14 -2.66602 26.999 -7.99902 38.999s-12.5 22.5 -21.5 31.5s-19.667 16 -32 21s-25.5 7.5 -39.5 7.5h-436c-0.666992 -2.66699 -1.16699 -20.167 -1.5 -52.5s-0.166016 -80.166 0.500977 -143.499h436c14 0 27.167 2.5 39.5 7.5s23.166 12 32.499 21
s16.666 19.333 21.999 31s8 24.167 8 37.5zM757.001 418.999c0 -44.667 -16.334 -82.332 -49.001 -112.999c-32.667 -31.333 -71 -47 -115 -47h-435l-1 -166c0 -19.333 2.33301 -36 7 -50c6.66699 -20.667 22.334 -35 47.001 -43h-184c24.667 8 40.334 22.333 47.001 43
c5.33301 18 8 34.667 8 50v398c0 12 -2.66699 27 -8 45c-6.66699 21.333 -22.334 35.666 -47.001 42.999h567c44 0 82.333 -15.667 115 -47c32 -31.333 48 -69 48 -113z" />
    <glyph glyph-name="uni0441" unicode="&#x441;" horiz-adv-x="785" 
d="M758 201c-37.333 -40 -71.999 -71.666 -103.999 -94.999c-52 -38 -95.667 -64.667 -131 -80c-45.333 -20 -93 -30 -143 -30c-99.333 0 -183.333 30 -252 90s-103 132 -103 216s34.333 156 103 216s152.667 90 252 90c88 0 164.667 -24.667 230 -74h1
c11.333 -9.33301 26.833 -21.333 46.5 -36l71.5 -51c16 -10 24 -17 24 -21h-217c18 12.667 27 22.667 27 30c0 13.333 -2.66699 23.666 -8 30.999c-1.33301 2 -4.33301 5.33301 -9 10c-50.667 28.667 -106 43 -166 43c-80 0 -147.667 -23.333 -203 -70
c-56 -46 -84 -102 -84 -168s28 -122.333 84 -169c56 -46 123.667 -69 203 -69c65.333 0 121.666 15.333 168.999 46l11 7l28 26.5c9.33301 9 14 18.167 14 27.5c0 4.66699 -1 9.5 -3 14.5s-7.33301 10.5 -16 16.5c-8 6 -13 11.667 -15 17h207z" />
    <glyph glyph-name="uni0442" unicode="&#x442;" horiz-adv-x="824" 
d="M742 481c-10 10.667 -22.667 19.666 -38 26.999c-19.333 1.33301 -49.833 2.33301 -91.5 3s-95.5 1 -161.5 1l1 -421c0 -18 2 -34 6 -48c4.66699 -14 20.667 -29 48 -45h-184c24 6.66699 40 21.334 48 44.001c5.33301 22.667 8 39 8 49v421
c-66 0 -119.833 -0.333008 -161.5 -1s-72.167 -1.66699 -91.5 -3c-15.333 -7.33301 -28 -16.333 -38 -27l-57 95h768z" />
    <glyph glyph-name="uni0443" unicode="&#x443;" horiz-adv-x="784" 
d="M355 75c-8 -17.333 -12.3311 -33.6689 -12.998 -49.002c-2 -22 6.66699 -41.333 26 -58l-169 73c26 -3.33301 46 3.66699 60 21c12 12.667 21 26.667 27 42l60 139l-232 220c-11.333 10.667 -25.333 20.667 -42 30c-20.667 9.33301 -33 14 -37 14
s-8.33301 -1.33301 -13 -4l100 103c-2 -5.33301 -3 -9.66602 -3 -12.999c0 -5.33301 5 -17.333 15 -36c7.33301 -13.333 17.666 -26.333 30.999 -39l225 -216c34 30 69.333 62.833 106 98.5l118 117.5c16 16 26.667 29 32 39c10 18 15 29.667 15 35
c0 4.66699 -1.33301 9.33398 -4 14.001l101 -103c-4.66699 2.66699 -9.33398 4 -14.001 4c-4 0 -16.333 -4.66699 -37 -14c-18 -10.667 -31.667 -20.667 -41 -30l-109 -106l-133 -124z" />
    <glyph glyph-name="uni0444" unicode="&#x444;" horiz-adv-x="752" 
d="M177 133c47.333 -39.333 102.666 -62 165.999 -68v473c-63.333 -6 -118.666 -28.667 -165.999 -68c-56 -46 -84 -102 -84 -168s28 -122.333 84 -169zM668 302c0 66 -28.333 122 -85 168c-47.333 39.333 -102.666 62 -165.999 68v-473c63.333 6 118.666 28.667 165.999 68
c56.667 46.667 85 103 85 169zM287 -116c24 6.66699 40 20.999 48 42.999c5.33301 22.667 8 39.334 8 50.001v21c-84 6 -155.667 35.333 -215 88c-68.667 60 -103 132 -103 216s34.333 156 103 216s152.667 90 252 90c98.667 0 182.667 -30 252 -90s104 -132 104 -216
c0 -82.667 -34.667 -154.667 -104 -216c-60.667 -52.667 -132.334 -82 -215.001 -88v-21c0 -19.333 2.33301 -36 7 -50c6.66699 -20.667 22.334 -35 47.001 -43h-184z" />
    <glyph glyph-name="uni0445" unicode="&#x445;" horiz-adv-x="784" 
d="M667 -6c1.33301 5.33301 2 9.00293 2 11.0029c0 6 -6.33301 18.333 -19 37c-6 8 -17.667 20 -35 36c-4 3.33301 -79.333 59.666 -226 168.999l-227 -169c-8.66699 -6.66699 -20.334 -18.667 -35.001 -36c-12.667 -18.667 -19 -31 -19 -37c0 -2 0.666992 -5.66699 2 -11
l-87 115c5.33301 -3.33301 10.666 -5 15.999 -5s17 3.33301 35 10c14 4.66699 28.667 12.667 44 24l77.5 57.5l130.5 98.5l-206 154c-6.66699 4.66699 -14.167 9.16699 -22.5 13.5s-16.166 8 -23.499 11s-14.166 5.33301 -20.499 7s-10.833 2.5 -13.5 2.5
c-5.33301 0 -10.666 -1.66699 -15.999 -5l87 114c-1.33301 -4 -2 -7.33301 -2 -10c0 -6 6.66699 -18.667 20 -38c4.66699 -6.66699 9.83398 -12.834 15.501 -18.501s12.167 -11.167 19.5 -16.5l225 -168l225 168c10 7.33301 21.667 19 35 35
c13.333 19.333 20 31.666 20 36.999c0 3.33301 -1 7 -3 11l88 -114c-5.33301 3.33301 -11 5 -17 5s-17.667 -3.33301 -35 -10c-14.667 -5.33301 -29.334 -13.333 -44.001 -24c-0.666992 -0.666992 -69.667 -52 -207 -154l208 -156c17.333 -12 32 -20 44 -24
c18 -6.66699 29.667 -10 35 -10s10.666 1.66699 15.999 5z" />
    <glyph glyph-name="uni0446" unicode="&#x446;" horiz-adv-x="840" 
d="M687 0h-656.999c24 8 39.667 22.667 47 44c5.33301 18 8 34.333 8 49v392c0 15.333 -2.66699 32 -8 50c-6.66699 20.667 -22.334 35 -47.001 43h184c-24 -6.66699 -40 -21 -48 -43c-4.66699 -18 -7 -34.667 -7 -50v-430h528v430c0 15.333 -2.66699 32 -8 50
c-6.66699 20.667 -22.334 35 -47.001 43h184c-24.667 -8 -40.334 -22.333 -47.001 -43c-4.66699 -14 -7 -30.667 -7 -50v-508c0 -19.333 2.33301 -36 7 -50c6.66699 -20.667 22.334 -35 47.001 -43h-184c24.667 8 40.334 22.333 47.001 43c5.33301 18 8 34.667 8 50v23z" />
    <glyph glyph-name="uni0447" unicode="&#x447;" horiz-adv-x="848" 
d="M149 408c0 -26.667 10.001 -50.001 30.001 -70.001s43.667 -30 71 -30h73c36.667 0 90.334 -0.333008 161.001 -1h204v178c0 18 -2.66699 34.667 -8 50c-6.66699 22 -22.334 36.333 -47.001 43h185c-24 -6.66699 -40 -21 -48 -43c-5.33301 -18 -8 -34.667 -8 -50v-392
c0 -15.333 2.66699 -32 8 -50c8.66699 -22 24.667 -36.333 48 -43h-185c24 6.66699 39.667 21 47 43c5.33301 15.333 8 32 8 50v152h-446c-39.333 0 -72.666 10.333 -99.999 31c-24 17.333 -41.333 38.333 -52 63s-16 51.334 -16 80.001v66c0 18 -2.66699 34.667 -8 50
c-6.66699 22 -22.334 36.333 -47.001 43h185c-24.667 -6.66699 -40.334 -21 -47.001 -43c-5.33301 -15.333 -8 -32 -8 -50v-77z" />
    <glyph glyph-name="uni0448" unicode="&#x448;" horiz-adv-x="1038" 
d="M554 55h321.005v430c0 18 -2.66699 34.667 -8 50c-6.66699 22 -22.334 36.333 -47.001 43h184c-24.667 -6.66699 -40.334 -21 -47.001 -43c-4.66699 -14 -7 -30.667 -7 -50v-392c0 -19.333 2.33301 -36 7 -50c7.33301 -22 23 -36.333 47 -43h-974
c24 7.33301 39.667 21.666 47 42.999c5.33301 18 8 34.667 8 50v392c0 15.333 -2.66699 32 -8 50c-6.66699 21.333 -22.334 35.666 -47.001 42.999h184c-24 -6.66699 -40 -21 -48 -43c-2 -7.33301 -3.66699 -15.166 -5 -23.499s-2 -17.166 -2 -26.499v-430h321v430
c0 18 -2.66699 34.667 -8 50c-6.66699 22 -22.334 36.333 -47.001 43h184c-24.667 -6.66699 -40.334 -21 -47.001 -43c-5.33301 -16 -8 -32.667 -8 -50v-430z" />
    <glyph glyph-name="uni0449" unicode="&#x449;" horiz-adv-x="1038" 
d="M30 0c24 7.33301 39.6699 21.666 47.0029 42.999c5.33301 18 8 34.667 8 50v392c0 15.333 -2.66699 32 -8 50c-6.66699 21.333 -22.334 35.666 -47.001 42.999h184c-24 -6.66699 -40 -21 -48 -43c-2 -7.33301 -3.66699 -15.166 -5 -23.499s-2 -17.166 -2 -26.499v-430
h321v430c0 18 -2.66699 34.667 -8 50c-6.66699 22 -22.334 36.333 -47.001 43h184c-24.667 -6.66699 -40.334 -21 -47.001 -43c-5.33301 -16 -8 -32.667 -8 -50v-430h321v430c0 18 -2.66699 34.667 -8 50c-6.66699 22 -22.334 36.333 -47.001 43h184
c-24.667 -6.66699 -40.334 -21 -47.001 -43c-4.66699 -14 -7 -30.667 -7 -50v-508c0 -19.333 2.33301 -36 7 -50c6.66699 -20.667 22.334 -35 47.001 -43h-184c24.667 8 40.334 22.333 47.001 43c5.33301 18 8 34.667 8 50v23h-845z" />
    <glyph glyph-name="uni044A" unicode="&#x44a;" horiz-adv-x="860" 
d="M769 171c0 14 -2.66992 27 -8.00293 39s-12.666 22.5 -21.999 31.5s-20.166 16.167 -32.499 21.5s-25.5 8 -39.5 8h-13h-16c-8 0 -20.667 0.166992 -38 0.5s-43.666 0.5 -78.999 0.5h-204v-202h351c27.333 0 51 10 71 30s30 43.667 30 71zM158.997 500
c-9.33301 0 -17.998 -5.3291 -25.998 -15.9961c-3.33301 -4.66699 -6.5 -9.33398 -9.5 -14.001s-6.16699 -9.33398 -9.5 -14.001h-3c-6.66699 15.333 -16.834 33.166 -30.501 53.499s-30.834 43.166 -51.501 68.499h343c-24.667 -8 -40.334 -22.333 -47.001 -43
c-2.66699 -8.66699 -4.66699 -14.5 -6 -17.5s-2 -8.83301 -2 -17.5v-166h346c46 0 85.333 -15.667 118 -47c16.667 -15.333 29 -32.333 37 -51s12 -41.667 12 -69s-4 -50.333 -12 -69s-20.333 -35.667 -37 -51c-32.667 -31.333 -72 -47 -118 -47h-476
c24.667 8 40.334 22.333 47.001 43c5.33301 18 8 34.667 8 50v407h-83z" />
    <glyph glyph-name="uni044B" unicode="&#x44b;" horiz-adv-x="899" 
d="M684 0c24 6.66699 39.999 20.998 47.999 42.998c5.33301 22.667 8 39.334 8 50.001v392c0 10 -2.66699 26.333 -8 49c-8 22.667 -24 37.334 -48 44.001h184c-24 -8 -39.667 -22.667 -47 -44c-4.66699 -14 -7 -30.333 -7 -49v-392c0 -19.333 2.33301 -36 7 -50
c6.66699 -20.667 22.334 -35 47.001 -43h-184zM211.999 577.998c-18 -5.33301 -31.668 -15.5 -41.001 -30.5s-14 -30.833 -14 -47.5v-166h346c46 0 85.333 -15.667 118 -47c16.667 -15.333 29 -32.333 37 -51s12 -41.667 12 -69s-4 -50.333 -12 -69s-20.333 -35.667 -37 -51
c-32.667 -31.333 -72 -47 -118 -47h-476c24.667 8 40.334 22.333 47.001 43c5.33301 18 8 34.667 8 50v407c0 16.667 -4.5 32.5 -13.5 47.5s-22.833 25.167 -41.5 30.5h185zM608.998 170.998c0 14 -2.66797 27 -8.00098 39s-12.666 22.5 -21.999 31.5
s-20.166 16.167 -32.499 21.5s-25.5 8 -39.5 8h-10h-14h-30h-57c-24.667 0 -56.334 0.166992 -95.001 0.5s-86.667 0.5 -144 0.5v-202h351c27.333 0 51 10 71 30s30 43.667 30 71z" />
    <glyph glyph-name="uni044C" unicode="&#x44c;" horiz-adv-x="699" 
d="M212 578c-18 -5.33301 -31.668 -15.5 -41.001 -30.5s-14 -30.833 -14 -47.5v-166h346c46 0 85.333 -15.667 118 -47c16.667 -15.333 29 -32.333 37 -51s12 -41.667 12 -69s-4 -50.333 -12 -69s-20.333 -35.667 -37 -51c-32.667 -31.333 -72 -47 -118 -47h-476
c24.667 8 40.334 22.333 47.001 43c5.33301 18 8 34.667 8 50v407c0 16.667 -4.5 32.5 -13.5 47.5s-22.833 25.167 -41.5 30.5h185zM608.999 171c0 14 -2.66797 27 -8.00098 39s-12.666 22.5 -21.999 31.5s-20.166 16.167 -32.499 21.5s-25.5 8 -39.5 8h-10h-14h-30h-57
c-24.667 0 -56.334 0.166992 -95.001 0.5s-86.667 0.5 -144 0.5v-202h351c27.333 0 51 10 71 30s30 43.667 30 71z" />
    </font>
</defs>
</svg>
